<svg xmlns="http://www.w3.org/2000/svg" width="15.938" height="15.938" viewBox="0 0 15.938 15.938">
  <path id="Path_1165" data-name="Path 1165" d="M3.855,3.014A7.7,7.7,0,0,1,9.5.656,7.673,7.673,0,0,1,15.128,3a7.673,7.673,0,0,1,2.341,5.628,7.673,7.673,0,0,1-2.341,5.628A7.673,7.673,0,0,1,9.5,16.594a7.673,7.673,0,0,1-5.628-2.341A7.673,7.673,0,0,1,1.531,8.625,7.646,7.646,0,0,1,3.855,3.014Zm.764,10.492A6.652,6.652,0,0,0,9.5,15.531a6.652,6.652,0,0,0,4.881-2.025,6.652,6.652,0,0,0,2.025-4.881,6.652,6.652,0,0,0-2.025-4.881A6.652,6.652,0,0,0,9.5,1.719,6.652,6.652,0,0,0,4.619,3.744,6.652,6.652,0,0,0,2.594,8.625,6.652,6.652,0,0,0,4.619,13.506ZM10.064,6A.8.8,0,0,1,8.936,4.873.8.8,0,0,1,10.064,6Zm1.029,5.811a.531.531,0,1,1,0,1.063H7.906a.531.531,0,1,1,0-1.062H8.969V8.625H8.438a.531.531,0,1,1,0-1.062H9.5a.511.511,0,0,1,.531.531v3.719Z" transform="translate(-1.531 -0.656)" fill="#fff"/>
</svg>
