<svg xmlns="http://www.w3.org/2000/svg" width="14.875" height="17" viewBox="0 0 14.875 17">
  <path id="Path_1168" data-name="Path 1168" d="M12.488,7.4A4.068,4.068,0,0,1,9.5,8.625a4.1,4.1,0,0,1-3-1.245,4.1,4.1,0,0,1-1.245-3,4.1,4.1,0,0,1,1.245-3A4.1,4.1,0,0,1,9.5.125a4.1,4.1,0,0,1,3,1.245,4.1,4.1,0,0,1,1.245,3A4.122,4.122,0,0,1,12.488,7.4Zm-.73-5.279A3.074,3.074,0,0,0,9.5,1.188a3.074,3.074,0,0,0-2.258.93,3.074,3.074,0,0,0-.93,2.258,3.074,3.074,0,0,0,.93,2.258,3.074,3.074,0,0,0,2.258.93,3.074,3.074,0,0,0,2.258-.93,3.074,3.074,0,0,0,.93-2.258A3.074,3.074,0,0,0,11.758,2.117Zm-.564,8.1a5.527,5.527,0,0,1,4.051,1.693,5.527,5.527,0,0,1,1.693,4.051,1.135,1.135,0,0,1-1.162,1.162H3.225a1.135,1.135,0,0,1-1.162-1.162,5.527,5.527,0,0,1,1.693-4.051,5.527,5.527,0,0,1,4.051-1.693Zm4.582,5.844a.088.088,0,0,0,.1-.1,4.557,4.557,0,0,0-.631-2.341,4.692,4.692,0,0,0-1.71-1.71,4.557,4.557,0,0,0-2.341-.631H7.807a4.506,4.506,0,0,0-3.3,1.378,4.506,4.506,0,0,0-1.378,3.3.088.088,0,0,0,.1.1Z" transform="translate(-2.063 -0.125)" fill="#fff"/>
</svg>
