<svg xmlns="http://www.w3.org/2000/svg" width="17" height="12.75" viewBox="0 0 17 12.75">
  <path id="Path_1167" data-name="Path 1167" d="M15.875,2.25A2.1,2.1,0,0,1,18,4.375v8.5A2.1,2.1,0,0,1,15.875,15H3.125A2.1,2.1,0,0,1,1,12.875v-8.5A2.1,2.1,0,0,1,3.125,2.25ZM3.125,3.313a1.021,1.021,0,0,0-.747.315,1.021,1.021,0,0,0-.315.747v1.2l6.475,4.848a1.562,1.562,0,0,0,1.926,0L16.938,5.57v-1.2a1.077,1.077,0,0,0-1.062-1.062Zm13.813,9.563V6.9l-5.844,4.383a2.656,2.656,0,0,1-3.187,0L2.063,6.9v5.977a1.021,1.021,0,0,0,.315.747,1.021,1.021,0,0,0,.747.315h12.75a1.077,1.077,0,0,0,1.063-1.062Z" transform="translate(-1 -2.25)" fill="#fff"/>
</svg>
