<svg xmlns="http://www.w3.org/2000/svg" width="19" height="16.625" viewBox="0 0 19 16.625">
  <path id="Path_1176" data-name="Path 1176" d="M11.355-11.207a1.718,1.718,0,0,1-1.262.52,1.718,1.718,0,0,1-1.262-.52,1.718,1.718,0,0,1-.52-1.262v-1.187a1.718,1.718,0,0,1,.52-1.262,1.718,1.718,0,0,1,1.262-.52,1.718,1.718,0,0,1,1.262.52,1.718,1.718,0,0,1,.52,1.262h6.531a.578.578,0,0,1,.427.167.578.578,0,0,1,.167.427.578.578,0,0,1-.167.427.578.578,0,0,1-.427.167H11.875A1.718,1.718,0,0,1,11.355-11.207ZM9.5-13.656v1.188a.578.578,0,0,0,.167.427.578.578,0,0,0,.427.167.578.578,0,0,0,.427-.167.578.578,0,0,0,.167-.427v-1.187a.578.578,0,0,0-.167-.427.578.578,0,0,0-.427-.167.578.578,0,0,0-.427.167A.578.578,0,0,0,9.5-13.656ZM.594-12.469a.578.578,0,0,1-.427-.167A.578.578,0,0,1,0-13.062a.578.578,0,0,1,.167-.427.578.578,0,0,1,.427-.167H6.531a.578.578,0,0,1,.427.167.578.578,0,0,1,.167.427.578.578,0,0,1-.167.427.578.578,0,0,1-.427.167Zm17.813,4.75a.578.578,0,0,1,.427.167A.578.578,0,0,1,19-7.125a.578.578,0,0,1-.167.427.578.578,0,0,1-.427.167H16.625a1.718,1.718,0,0,1-.52,1.262,1.718,1.718,0,0,1-1.262.52,1.718,1.718,0,0,1-1.262-.52,1.718,1.718,0,0,1-.52-1.262V-7.719a1.718,1.718,0,0,1,.52-1.262,1.718,1.718,0,0,1,1.262-.52,1.718,1.718,0,0,1,1.262.52,1.718,1.718,0,0,1,.52,1.262ZM15.438-6.531V-7.719a.578.578,0,0,0-.167-.427.578.578,0,0,0-.427-.167.578.578,0,0,0-.427.167.578.578,0,0,0-.167.427v1.188a.578.578,0,0,0,.167.427.578.578,0,0,0,.427.167.578.578,0,0,0,.427-.167A.578.578,0,0,0,15.438-6.531Zm2.969,4.75a.578.578,0,0,1,.427.167A.578.578,0,0,1,19-1.187a.578.578,0,0,1-.167.427.578.578,0,0,1-.427.167H8.313A1.718,1.718,0,0,1,7.793.668a1.718,1.718,0,0,1-1.262.52A1.718,1.718,0,0,1,5.27.668,1.718,1.718,0,0,1,4.75-.594V-1.781a1.718,1.718,0,0,1,.52-1.262,1.718,1.718,0,0,1,1.262-.52,1.718,1.718,0,0,1,1.262.52,1.718,1.718,0,0,1,.52,1.262ZM7.125-.594V-1.781a.578.578,0,0,0-.167-.427.578.578,0,0,0-.427-.167.578.578,0,0,0-.427.167.578.578,0,0,0-.167.427V-.594A.578.578,0,0,0,6.1-.167.578.578,0,0,0,6.531,0a.578.578,0,0,0,.427-.167A.578.578,0,0,0,7.125-.594ZM.594-6.531A.578.578,0,0,1,.167-6.7.578.578,0,0,1,0-7.125a.578.578,0,0,1,.167-.427.578.578,0,0,1,.427-.167H11.281a.578.578,0,0,1,.427.167.578.578,0,0,1,.167.427.578.578,0,0,1-.167.427.578.578,0,0,1-.427.167Zm2.375,4.75a.578.578,0,0,1,.427.167.578.578,0,0,1,.167.427A.578.578,0,0,1,3.4-.761a.578.578,0,0,1-.427.167H.594A.578.578,0,0,1,.167-.761.578.578,0,0,1,0-1.187a.578.578,0,0,1,.167-.427.578.578,0,0,1,.427-.167Z" transform="translate(0 15.438)" fill="#d9251b"/>
</svg>
