<svg xmlns="http://www.w3.org/2000/svg" width="16.625" height="14.25" viewBox="0 0 16.625 14.25">
  <path id="Path_1178" data-name="Path 1178" d="M16.439-7.533a.494.494,0,0,1,.186.408.494.494,0,0,1-.186.408L11.1-1.373a.509.509,0,0,1-.835.019.509.509,0,0,1,.019-.835l4.3-4.342H3.563A.578.578,0,0,1,3.136-6.7a.578.578,0,0,1-.167-.427.578.578,0,0,1,.167-.427.578.578,0,0,1,.427-.167H14.584l-4.3-4.342a.509.509,0,0,1-.019-.835.509.509,0,0,1,.835.019ZM.148-14.064a.607.607,0,0,1,.445-.186.578.578,0,0,1,.427.167.578.578,0,0,1,.167.427V-.594a.578.578,0,0,1-.167.427A.578.578,0,0,1,.594,0,.578.578,0,0,1,.167-.167.578.578,0,0,1,0-.594V-13.656A.552.552,0,0,1,.148-14.064Z" transform="translate(0 14.25)" fill="#d9251b"/>
</svg>
