<svg xmlns="http://www.w3.org/2000/svg" width="19.125" height="17" viewBox="0 0 19.125 17">
  <path id="Path_1164" data-name="Path 1164" d="M19.063,8.625a.511.511,0,0,1-.531.531.571.571,0,0,1-.365-.133l-1.229-1.1v6.541a2.664,2.664,0,0,1-2.656,2.656H4.719a2.558,2.558,0,0,1-1.876-.78,2.558,2.558,0,0,1-.78-1.876V7.928L.834,9.023a.571.571,0,0,1-.365.133.511.511,0,0,1-.531-.531.543.543,0,0,1,.166-.4L9.135.258a.569.569,0,0,1,.73,0l2.822,2.49V1.719a.511.511,0,0,1,.531-.531h3.188a.511.511,0,0,1,.531.531V6.5L18.9,8.227A.543.543,0,0,1,19.063,8.625ZM13.75,2.25V3.711L15.875,5.57V2.25Zm2.125,4.781V7L9.5,1.354,3.125,7v7.471a1.587,1.587,0,0,0,1.594,1.594h9.563a1.587,1.587,0,0,0,1.594-1.594ZM6.844,7.4a.907.907,0,0,1,.9-.9h3.553a.888.888,0,0,1,.332.066.8.8,0,0,1,.465.465.975.975,0,0,1,.066.365v3.52a.891.891,0,0,1-.249.631.809.809,0,0,1-.614.266H7.74a.907.907,0,0,1-.9-.9Zm1.063.166V10.75h3.188V7.563Z" transform="translate(0.063 -0.125)" fill="#fff"/>
</svg>
