<svg xmlns="http://www.w3.org/2000/svg" width="14.875" height="17" viewBox="0 0 14.875 17">
  <path id="Path_1166" data-name="Path 1166" d="M4.686,12.311a.8.8,0,1,1-.232.564A.768.768,0,0,1,4.686,12.311Zm9.064.033a.531.531,0,1,1,0,1.063H7.906a.531.531,0,1,1,0-1.062ZM5.814,9.521a.522.522,0,0,1-.764,0l-.963-.963a.455.455,0,0,1-.017-.747.467.467,0,0,1,.747-.017l.6.6L7.01,6.832a.473.473,0,0,1,.747,0A.472.472,0,0,1,7.74,7.6Zm0-4.582A.8.8,0,0,1,4.686,3.811.8.8,0,0,1,5.814,4.939ZM13.75,8.094a.531.531,0,1,1,0,1.063H8.969a.531.531,0,1,1,0-1.062ZM14.813.125a2.053,2.053,0,0,1,1.511.614,2.053,2.053,0,0,1,.614,1.511V15a2.1,2.1,0,0,1-2.125,2.125H4.188A2.1,2.1,0,0,1,2.063,15V2.25A2.053,2.053,0,0,1,2.677.739,2.053,2.053,0,0,1,4.188.125ZM15.875,15V2.25A1.021,1.021,0,0,0,15.56,1.5a1.021,1.021,0,0,0-.747-.315H4.188A1.021,1.021,0,0,0,3.44,1.5a1.021,1.021,0,0,0-.315.747V15a1.077,1.077,0,0,0,1.063,1.063H14.813A1.077,1.077,0,0,0,15.875,15ZM13.75,3.844a.531.531,0,1,1,0,1.063H7.906a.531.531,0,1,1,0-1.062Z" transform="translate(-2.063 -0.125)" fill="#fff"/>
</svg>
