<svg xmlns="http://www.w3.org/2000/svg" width="15.938" height="15.938" viewBox="0 0 15.938 15.938">
  <path id="Path_58" data-name="Path 58" d="M2.855-11.986A7.7,7.7,0,0,1,8.5-14.344,7.673,7.673,0,0,1,14.128-12a7.673,7.673,0,0,1,2.341,5.628A7.673,7.673,0,0,1,14.128-.747,7.673,7.673,0,0,1,8.5,1.594,7.673,7.673,0,0,1,2.872-.747,7.673,7.673,0,0,1,.531-6.375,7.646,7.646,0,0,1,2.855-11.986ZM3.619-1.494A6.652,6.652,0,0,0,8.5.531a6.652,6.652,0,0,0,4.881-2.025,6.652,6.652,0,0,0,2.025-4.881,6.652,6.652,0,0,0-2.025-4.881A6.652,6.652,0,0,0,8.5-13.281a6.652,6.652,0,0,0-4.881,2.025A6.652,6.652,0,0,0,1.594-6.375,6.652,6.652,0,0,0,3.619-1.494ZM9.064-9a.768.768,0,0,1-.564.232A.768.768,0,0,1,7.936-9,.768.768,0,0,1,7.7-9.562a.768.768,0,0,1,.232-.564.768.768,0,0,1,.564-.232.768.768,0,0,1,.564.232.768.768,0,0,1,.232.564A.768.768,0,0,1,9.064-9Zm1.029,5.811a.517.517,0,0,1,.382.149.517.517,0,0,1,.149.382.517.517,0,0,1-.149.382.517.517,0,0,1-.382.149H6.906a.517.517,0,0,1-.382-.149.517.517,0,0,1-.149-.382.517.517,0,0,1,.149-.382.517.517,0,0,1,.382-.149H7.969V-6.375H7.438a.517.517,0,0,1-.382-.149.517.517,0,0,1-.149-.382.517.517,0,0,1,.149-.382.517.517,0,0,1,.382-.149H8.5a.517.517,0,0,1,.382.149.517.517,0,0,1,.149.382v3.719Z" transform="translate(-0.531 14.344)" fill="#fff"/>
</svg>
