<svg xmlns="http://www.w3.org/2000/svg" width="15.75" height="18" viewBox="0 0 15.75 18">
  <path id="Path_1190" data-name="Path 1190" d="M12.375-11.25a4.505,4.505,0,0,0-4.5-4.5,4.505,4.505,0,0,0-4.5,4.5H0V-.562A2.813,2.813,0,0,0,2.812,2.25H12.937A2.813,2.813,0,0,0,15.75-.562V-11.25Zm-4.5-2.812a2.816,2.816,0,0,1,2.812,2.812H5.062A2.816,2.816,0,0,1,7.875-14.062Zm6.187,13.5A1.126,1.126,0,0,1,12.937.562H2.812A1.126,1.126,0,0,1,1.687-.562v-9H3.375v1.406a.844.844,0,0,0,.844.844.844.844,0,0,0,.844-.844V-9.562h5.625v1.406a.844.844,0,0,0,.844.844.844.844,0,0,0,.844-.844V-9.562h1.687Z" transform="translate(0 15.75)" fill="#fff"/>
</svg>
