<svg xmlns="http://www.w3.org/2000/svg" width="17" height="12.75" viewBox="0 0 17 12.75">
  <path id="Path_56" data-name="Path 56" d="M14.875-12.75a2.053,2.053,0,0,1,1.511.614A2.053,2.053,0,0,1,17-10.625v8.5a2.053,2.053,0,0,1-.614,1.511A2.053,2.053,0,0,1,14.875,0H2.125A2.053,2.053,0,0,1,.614-.614,2.053,2.053,0,0,1,0-2.125v-8.5a2.053,2.053,0,0,1,.614-1.511,2.053,2.053,0,0,1,1.511-.614ZM2.125-11.687a1.021,1.021,0,0,0-.747.315,1.021,1.021,0,0,0-.315.747v1.2L7.537-4.582A1.541,1.541,0,0,0,8.5-4.25a1.541,1.541,0,0,0,.963-.332L15.938-9.43v-1.2a1.021,1.021,0,0,0-.315-.747,1.021,1.021,0,0,0-.747-.315ZM15.938-2.125V-8.1L10.094-3.719A2.56,2.56,0,0,1,8.5-3.187a2.56,2.56,0,0,1-1.594-.531L1.063-8.1v5.977a1.021,1.021,0,0,0,.315.747,1.021,1.021,0,0,0,.747.315h12.75a1.021,1.021,0,0,0,.747-.315A1.021,1.021,0,0,0,15.938-2.125Z" transform="translate(0 12.75)" fill="#fff"/>
</svg>
