<svg xmlns="http://www.w3.org/2000/svg" width="13.125" height="15" viewBox="0 0 13.125 15">
  <path id="Path_1194" data-name="Path 1194" d="M12.656-11.25a.456.456,0,0,1,.337.132.456.456,0,0,1,.132.337.456.456,0,0,1-.132.337.456.456,0,0,1-.337.132H.469a.456.456,0,0,1-.337-.132A.456.456,0,0,1,0-10.781a.456.456,0,0,1,.132-.337.456.456,0,0,1,.337-.132H3.281l1-1.318a1.31,1.31,0,0,1,1.113-.557H7.734a1.31,1.31,0,0,1,1.113.557l1,1.318Zm-8.2,0H8.672l-.557-.762a.472.472,0,0,0-.381-.176H5.391a.472.472,0,0,0-.381.176Zm6.914,2.021a.479.479,0,0,1,.352-.146.456.456,0,0,1,.337.132.456.456,0,0,1,.132.337V-.469A2.257,2.257,0,0,1,11.5,1.187a2.257,2.257,0,0,1-1.655.688H3.281a2.257,2.257,0,0,1-1.655-.688A2.257,2.257,0,0,1,.938-.469V-8.906a.456.456,0,0,1,.132-.337.456.456,0,0,1,.337-.132.456.456,0,0,1,.337.132.456.456,0,0,1,.132.337V-.469a1.356,1.356,0,0,0,.41,1,1.356,1.356,0,0,0,1,.41H9.844a1.356,1.356,0,0,0,1-.41,1.356,1.356,0,0,0,.41-1V-8.906A.435.435,0,0,1,11.367-9.229ZM4.219-.937A.456.456,0,0,1,4.087-.6a.456.456,0,0,1-.337.132A.456.456,0,0,1,3.413-.6a.456.456,0,0,1-.132-.337V-7.5a.456.456,0,0,1,.132-.337.456.456,0,0,1,.337-.132.456.456,0,0,1,.337.132.456.456,0,0,1,.132.337Zm2.813,0A.456.456,0,0,1,6.9-.6a.456.456,0,0,1-.337.132A.456.456,0,0,1,6.226-.6a.456.456,0,0,1-.132-.337V-7.5a.456.456,0,0,1,.132-.337.456.456,0,0,1,.337-.132.456.456,0,0,1,.337.132.456.456,0,0,1,.132.337Zm2.813,0A.456.456,0,0,1,9.712-.6a.456.456,0,0,1-.337.132A.456.456,0,0,1,9.038-.6a.456.456,0,0,1-.132-.337V-7.5a.456.456,0,0,1,.132-.337.456.456,0,0,1,.337-.132.456.456,0,0,1,.337.132.456.456,0,0,1,.132.337Z" transform="translate(0 13.125)" fill="#2081e2"/>
</svg>
