<svg id="Group_3495" data-name="Group 3495" xmlns="http://www.w3.org/2000/svg" xmlns:xlink="http://www.w3.org/1999/xlink" width="15.249" height="11.619" viewBox="0 0 15.249 11.619">
  <defs>
    <clipPath id="clip-path">
      <rect id="Rectangle_76881" data-name="Rectangle 76881" width="15.249" height="11.619" fill="#ddd"/>
    </clipPath>
  </defs>
  <g id="Group_3494" data-name="Group 3494" clip-path="url(#clip-path)">
    <path id="Path_1183" data-name="Path 1183" d="M12.928.982a.032.032,0,0,0-.019-.018A12.552,12.552,0,0,0,9.805,0a.048.048,0,0,0-.05.024q-.212.387-.386.794a11.612,11.612,0,0,0-3.487,0A7.712,7.712,0,0,0,5.49.025.049.049,0,0,0,5.44,0a12.527,12.527,0,0,0-3.1.963.052.052,0,0,0-.021.017A12.864,12.864,0,0,0,.063,9.657a.051.051,0,0,0,.02.035,12.64,12.64,0,0,0,3.808,1.924.049.049,0,0,0,.053-.017,9.087,9.087,0,0,0,.78-1.267.049.049,0,0,0-.022-.064l0,0A8.227,8.227,0,0,1,3.507,9.7a.05.05,0,0,1-.018-.067A.061.061,0,0,1,3.5,9.617c.081-.06.16-.122.237-.185a.046.046,0,0,1,.049-.007,9.02,9.02,0,0,0,7.664,0,.047.047,0,0,1,.049.006c.077.064.156.126.237.186a.049.049,0,0,1,.009.068.048.048,0,0,1-.014.013,7.851,7.851,0,0,1-1.189.566.048.048,0,0,0-.028.063l0,0A10.188,10.188,0,0,0,11.3,11.6a.048.048,0,0,0,.053.018,12.6,12.6,0,0,0,3.815-1.924.049.049,0,0,0,.02-.035A12.775,12.775,0,0,0,12.928.982M5.1,7.925A1.465,1.465,0,0,1,3.726,6.389,1.457,1.457,0,0,1,5.1,4.852a1.449,1.449,0,0,1,1.37,1.537A1.457,1.457,0,0,1,5.1,7.925m5.067,0A1.466,1.466,0,0,1,8.792,6.389a1.457,1.457,0,0,1,1.371-1.537,1.45,1.45,0,0,1,1.371,1.537,1.454,1.454,0,0,1-1.371,1.537" transform="translate(0 0)" fill="#ddd"/>
  </g>
</svg>
