<svg xmlns="http://www.w3.org/2000/svg" width="15.005" height="15" viewBox="0 0 15.005 15">
  <path id="Path_1193" data-name="Path 1193" d="M14.473-11.484a1.819,1.819,0,0,1,.557,1.333,1.819,1.819,0,0,1-.557,1.333l-9.4,9.4a1.812,1.812,0,0,1-.879.5l-3.6.791H.5A.444.444,0,0,1,.146,1.7a.471.471,0,0,1-.117-.381l.82-3.6a1.816,1.816,0,0,1,.5-.908l9.375-9.375a1.819,1.819,0,0,1,1.333-.557,1.819,1.819,0,0,1,1.333.557ZM4.424-.088l7.266-7.266L9.258-9.785,2.021-2.52a.79.79,0,0,0-.264.439L1.113.791Q3.135.352,3.984.176A.949.949,0,0,0,4.424-.088Zm9.4-9.4a.894.894,0,0,0,.264-.659.894.894,0,0,0-.264-.659l-1.113-1.113a.894.894,0,0,0-.659-.264.894.894,0,0,0-.659.264L9.932-10.459l2.432,2.432Z" transform="translate(-0.024 13.125)" fill="#2081e2"/>
</svg>
