<svg xmlns="http://www.w3.org/2000/svg" version="1.1" xmlns:xlink="http://www.w3.org/1999/xlink" xmlns:svgjs="http://svgjs.com/svgjs" width="120" height="53.695"><svg xmlns="http://www.w3.org/2000/svg" xmlns:xlink="http://www.w3.org/1999/xlink" width="120" height="53.695" viewBox="0 0 120 53.695">
  <defs>
    <clipPath id="SvgjsClipPath1147">
      <rect id="SvgjsRect1146" data-name="Rectangle 20397" width="120" height="53.695" transform="translate(0 0)" fill="none"></rect>
    </clipPath>
  </defs>
  <g id="SvgjsG1145" data-name="Group 3428" transform="translate(0 0)">
    <rect id="SvgjsRect1144" data-name="Rectangle 20396" width="119.306" height="31.189" transform="translate(0.356 0.272)" fill="#fff"></rect>
    <path id="SvgjsPath1143" data-name="Path 56" d="M.568.567H6.635V4.454H.568ZM0,5.022H7.2V0H0Z" fill="#d9251b"></path>
    <path id="SvgjsPath1142" data-name="Path 57" d="M7.2.567h6.068V4.454H7.2ZM6.635,5.022h7.2V0h-7.2Z" fill="#d9251b"></path>
    <path id="SvgjsPath1141" data-name="Path 58" d="M13.837.567h6.068V4.454H13.837Zm-.566,4.455h7.2V0h-7.2Z" fill="#d9251b"></path>
    <path id="SvgjsPath1140" data-name="Path 59" d="M20.473.567h6.068V4.454H20.473Zm-.568,4.455h7.2V0h-7.2Z" fill="#d9251b"></path>
    <path id="SvgjsPath1139" data-name="Path 60" d="M27.108.567h6.068V4.454H27.108Zm-.567,4.455h7.2V0h-7.2Z" fill="#d9251b"></path>
    <path id="SvgjsPath1138" data-name="Path 61" d="M33.743.567h6.068V4.454H33.743Zm-.567,4.455h7.2V0h-7.2Z" fill="#d9251b"></path>
    <path id="SvgjsPath1137" data-name="Path 62" d="M40.378.567h6.068V4.454H40.378Zm-.567,4.455h7.2V0h-7.2Z" fill="#d9251b"></path>
    <path id="SvgjsPath1136" data-name="Path 63" d="M47.013.567h6.068V4.454H47.013Zm-.567,4.455h7.2V0h-7.2Z" fill="#d9251b"></path>
    <path id="SvgjsPath1135" data-name="Path 64" d="M53.649.567h6.067V4.454H53.649Zm-.568,4.455h7.2V0h-7.2Z" fill="#d9251b"></path>
    <path id="SvgjsPath1134" data-name="Path 65" d="M60.284.567h6.068V4.454H60.284Zm-.568,4.455h7.2V0h-7.2Z" fill="#d9251b"></path>
    <path id="SvgjsPath1133" data-name="Path 66" d="M66.919.567h6.068V4.454H66.919Zm-.567,4.455h7.2V0h-7.2Z" fill="#d9251b"></path>
    <path id="SvgjsPath1132" data-name="Path 67" d="M73.554.567h6.068V4.454H73.554Zm-.568,4.455h7.2V0h-7.2Z" fill="#d9251b"></path>
    <path id="SvgjsPath1131" data-name="Path 68" d="M80.189.567h6.068V4.454H80.189Zm-.567,4.455h7.2V0h-7.2Z" fill="#d9251b"></path>
    <path id="SvgjsPath1130" data-name="Path 69" d="M86.824.567h6.068V4.454H86.824Zm-.567,4.455h7.2V0h-7.2Z" fill="#d9251b"></path>
    <path id="SvgjsPath1129" data-name="Path 70" d="M93.46.567h6.068V4.454H93.46Zm-.568,4.455h7.2V0h-7.2Z" fill="#d9251b"></path>
    <path id="SvgjsPath1128" data-name="Path 71" d="M100.094.567h6.068V4.454h-6.068Zm-.567,4.455h7.2V0h-7.2Z" fill="#d9251b"></path>
    <path id="SvgjsPath1127" data-name="Path 72" d="M106.73.567H112.8V4.454H106.73Zm-.568,4.455h7.2V0h-7.2Z" fill="#d9251b"></path>
    <path id="SvgjsPath1126" data-name="Path 73" d="M113.365.567h6.068V4.454h-6.068ZM112.8,5.022H120V0h-7.2Z" fill="#d9251b"></path>
    <path id="SvgjsPath1125" data-name="Path 74" d="M.568,5.022H6.635V8.908H.568ZM0,9.476H7.2V4.454H0Z" fill="#d9251b"></path>
    <path id="SvgjsPath1124" data-name="Path 75" d="M13.838,9.476h-7.2V4.454h7.2ZM7.2,8.909h6.068V5.022H7.2Z" fill="#d9251b"></path>
    <path id="SvgjsPath1123" data-name="Path 76" d="M20.473,9.476h-7.2V4.454h7.2Zm-6.635-.567h6.068V5.022H13.838Z" fill="#d9251b"></path>
    <path id="SvgjsPath1122" data-name="Path 77" d="M27.108,9.476h-7.2V4.454h7.2Zm-6.635-.567h6.068V5.022H20.473Z" fill="#d9251b"></path>
    <path id="SvgjsPath1121" data-name="Path 78" d="M33.743,9.476h-7.2V4.454h7.2Zm-6.635-.567h6.068V5.022H27.108Z" fill="#d9251b"></path>
    <path id="SvgjsPath1120" data-name="Path 79" d="M40.378,9.476h-7.2V4.454h7.2Zm-6.635-.567h6.068V5.022H33.743Z" fill="#d9251b"></path>
    <path id="SvgjsPath1119" data-name="Path 80" d="M47.013,9.476h-7.2V4.454h7.2Zm-6.635-.567h6.068V5.022H40.378Z" fill="#d9251b"></path>
    <path id="SvgjsPath1118" data-name="Path 81" d="M53.649,9.476h-7.2V4.454h7.2Zm-6.636-.567h6.068V5.022H47.013Z" fill="#d9251b"></path>
    <path id="SvgjsPath1117" data-name="Path 82" d="M60.284,9.476h-7.2V4.454h7.2Zm-6.635-.567h6.068V5.022H53.649Z" fill="#d9251b"></path>
    <path id="SvgjsPath1116" data-name="Path 83" d="M66.919,9.476h-7.2V4.454h7.2Zm-6.635-.567h6.068V5.022H60.284Z" fill="#d9251b"></path>
    <path id="SvgjsPath1115" data-name="Path 84" d="M73.554,9.476h-7.2V4.454h7.2Zm-6.635-.567h6.068V5.022H66.919Z" fill="#d9251b"></path>
    <path id="SvgjsPath1114" data-name="Path 85" d="M80.189,9.476h-7.2V4.454h7.2Zm-6.635-.567h6.068V5.022H73.554Z" fill="#d9251b"></path>
    <path id="SvgjsPath1113" data-name="Path 86" d="M86.824,9.476h-7.2V4.454h7.2Zm-6.635-.567h6.068V5.022H80.189Z" fill="#d9251b"></path>
    <path id="SvgjsPath1112" data-name="Path 87" d="M93.459,9.476h-7.2V4.454h7.2Zm-6.635-.567h6.068V5.022H86.824Z" fill="#d9251b"></path>
    <path id="SvgjsPath1111" data-name="Path 88" d="M100.094,9.476h-7.2V4.454h7.2Zm-6.635-.567h6.068V5.022H93.459Z" fill="#d9251b"></path>
    <path id="SvgjsPath1110" data-name="Path 89" d="M106.73,9.476h-7.2V4.454h7.2ZM100.1,8.909h6.068V5.022H100.1Z" fill="#d9251b"></path>
    <path id="SvgjsPath1109" data-name="Path 90" d="M113.365,9.476h-7.2V4.454h7.2Zm-6.635-.567H112.8V5.022H106.73Z" fill="#d9251b"></path>
    <path id="SvgjsPath1108" data-name="Path 91" d="M113.365,5.022h6.068V8.908h-6.068ZM112.8,9.476H120V4.454h-7.2Z" fill="#d9251b"></path>
    <path id="SvgjsPath1107" data-name="Path 92" d="M.568,9.476H6.635v3.887H.568ZM0,13.929H7.2V8.907H0Z" fill="#d9251b"></path>
    <path id="SvgjsPath1106" data-name="Path 93" d="M13.838,13.929h-7.2V8.907h7.2ZM7.2,13.363h6.068V9.476H7.2Z" fill="#d9251b"></path>
    <path id="SvgjsPath1105" data-name="Path 94" d="M20.473,13.929h-7.2V8.907h7.2Zm-6.635-.566h6.068V9.476H13.838Z" fill="#d9251b"></path>
    <path id="SvgjsPath1104" data-name="Path 95" d="M27.108,13.929h-7.2V8.907h7.2Zm-6.635-.566h6.068V9.476H20.473Z" fill="#d9251b"></path>
    <path id="SvgjsPath1103" data-name="Path 96" d="M33.743,13.929h-7.2V8.907h7.2Zm-6.635-.566h6.068V9.476H27.108Z" fill="#d9251b"></path>
    <path id="SvgjsPath1102" data-name="Path 97" d="M40.378,13.929h-7.2V8.907h7.2Zm-6.635-.566h6.068V9.476H33.743Z" fill="#d9251b"></path>
    <path id="SvgjsPath1101" data-name="Path 98" d="M47.013,13.929h-7.2V8.907h7.2Zm-6.635-.566h6.068V9.476H40.378Z" fill="#d9251b"></path>
    <path id="SvgjsPath1100" data-name="Path 99" d="M53.649,13.929h-7.2V8.907h7.2Zm-6.636-.566h6.068V9.476H47.013Z" fill="#d9251b"></path>
    <path id="SvgjsPath1099" data-name="Path 100" d="M60.284,13.929h-7.2V8.907h7.2Zm-6.635-.566h6.068V9.476H53.649Z" fill="#d9251b"></path>
    <path id="SvgjsPath1098" data-name="Path 101" d="M66.919,13.929h-7.2V8.907h7.2Zm-6.635-.566h6.068V9.476H60.284Z" fill="#d9251b"></path>
    <path id="SvgjsPath1097" data-name="Path 102" d="M73.554,13.929h-7.2V8.907h7.2Zm-6.635-.566h6.068V9.476H66.919Z" fill="#d9251b"></path>
    <path id="SvgjsPath1096" data-name="Path 103" d="M80.189,13.929h-7.2V8.907h7.2Zm-6.635-.566h6.068V9.476H73.554Z" fill="#d9251b"></path>
    <path id="SvgjsPath1095" data-name="Path 104" d="M86.824,13.929h-7.2V8.907h7.2Zm-6.635-.566h6.068V9.476H80.189Z" fill="#d9251b"></path>
    <path id="SvgjsPath1094" data-name="Path 105" d="M93.459,13.929h-7.2V8.907h7.2Zm-6.635-.566h6.068V9.476H86.824Z" fill="#d9251b"></path>
    <path id="SvgjsPath1093" data-name="Path 106" d="M100.094,13.929h-7.2V8.907h7.2Zm-6.635-.566h6.068V9.476H93.459Z" fill="#d9251b"></path>
    <path id="SvgjsPath1092" data-name="Path 107" d="M106.73,13.929h-7.2V8.907h7.2Zm-6.635-.566h6.068V9.476H100.1Z" fill="#d9251b"></path>
    <path id="SvgjsPath1091" data-name="Path 108" d="M113.365,13.929h-7.2V8.907h7.2Zm-6.635-.566H112.8V9.476H106.73Z" fill="#d9251b"></path>
    <path id="SvgjsPath1090" data-name="Path 109" d="M113.365,9.476h6.068v3.887h-6.068Zm-.568,4.453H120V8.907h-7.2Z" fill="#d9251b"></path>
    <path id="SvgjsPath1089" data-name="Path 110" d="M.568,13.929H6.635v3.887H.568ZM0,18.383H7.2V13.362H0Z" fill="#d9251b"></path>
    <path id="SvgjsPath1088" data-name="Path 111" d="M13.838,18.383h-7.2V13.361h7.2ZM7.2,17.816h6.068V13.929H7.2Z" fill="#d9251b"></path>
    <path id="SvgjsPath1087" data-name="Path 112" d="M20.473,18.383h-7.2V13.361h7.2Zm-6.635-.567h6.068V13.929H13.838Z" fill="#d9251b"></path>
    <path id="SvgjsPath1086" data-name="Path 113" d="M27.108,18.383h-7.2V13.361h7.2Zm-6.635-.567h6.068V13.929H20.473Z" fill="#d9251b"></path>
    <path id="SvgjsPath1085" data-name="Path 114" d="M33.743,18.383h-7.2V13.361h7.2Zm-6.635-.567h6.068V13.929H27.108Z" fill="#d9251b"></path>
    <path id="SvgjsPath1084" data-name="Path 115" d="M40.378,18.383h-7.2V13.361h7.2Zm-6.635-.567h6.068V13.929H33.743Z" fill="#d9251b"></path>
    <path id="SvgjsPath1083" data-name="Path 116" d="M47.013,18.383h-7.2V13.361h7.2Zm-6.635-.567h6.068V13.929H40.378Z" fill="#d9251b"></path>
    <path id="SvgjsPath1082" data-name="Path 117" d="M53.649,18.383h-7.2V13.361h7.2Zm-6.636-.567h6.068V13.929H47.013Z" fill="#d9251b"></path>
    <path id="SvgjsPath1081" data-name="Path 118" d="M60.284,18.383h-7.2V13.361h7.2Zm-6.635-.567h6.068V13.929H53.649Z" fill="#d9251b"></path>
    <path id="SvgjsPath1080" data-name="Path 119" d="M66.919,18.383h-7.2V13.361h7.2Zm-6.635-.567h6.068V13.929H60.284Z" fill="#d9251b"></path>
    <path id="SvgjsPath1079" data-name="Path 120" d="M73.554,18.382h-7.2V13.36h7.2Zm-6.635-.567h6.068V13.928H66.919Z" fill="#d9251b"></path>
    <path id="SvgjsPath1078" data-name="Path 121" d="M80.189,18.382h-7.2V13.36h7.2Zm-6.635-.567h6.068V13.928H73.554Z" fill="#d9251b"></path>
    <path id="SvgjsPath1077" data-name="Path 122" d="M86.824,18.383h-7.2V13.361h7.2Zm-6.635-.567h6.068V13.929H80.189Z" fill="#d9251b"></path>
    <path id="SvgjsPath1076" data-name="Path 123" d="M93.459,18.383h-7.2V13.361h7.2Zm-6.635-.567h6.068V13.929H86.824Z" fill="#d9251b"></path>
    <path id="SvgjsPath1075" data-name="Path 124" d="M100.094,18.382h-7.2V13.36h7.2Zm-6.635-.567h6.068V13.928H93.459Z" fill="#d9251b"></path>
    <path id="SvgjsPath1074" data-name="Path 125" d="M106.73,18.382h-7.2V13.36h7.2Zm-6.635-.567h6.068V13.928H100.1Z" fill="#d9251b"></path>
    <path id="SvgjsPath1073" data-name="Path 126" d="M113.365,18.383h-7.2V13.361h7.2Zm-6.635-.567H112.8V13.929H106.73Z" fill="#d9251b"></path>
    <path id="SvgjsPath1072" data-name="Path 127" d="M113.365,13.929h6.068v3.887h-6.068Zm-.568,4.454H120V13.362h-7.2Z" fill="#d9251b"></path>
    <path id="SvgjsPath1071" data-name="Path 128" d="M.568,18.383H6.635V22.27H.568ZM0,22.838H7.2V17.816H0Z" fill="#d9251b"></path>
    <path id="SvgjsPath1070" data-name="Path 129" d="M13.838,22.837h-7.2V17.815h7.2ZM7.2,22.27h6.068V18.383H7.2Z" fill="#d9251b"></path>
    <path id="SvgjsPath1069" data-name="Path 130" d="M20.473,22.837h-7.2V17.815h7.2Zm-6.635-.567h6.068V18.383H13.838Z" fill="#d9251b"></path>
    <path id="SvgjsPath1068" data-name="Path 131" d="M27.108,22.837h-7.2V17.815h7.2Zm-6.635-.567h6.068V18.383H20.473Z" fill="#d9251b"></path>
    <path id="SvgjsPath1067" data-name="Path 132" d="M33.743,22.837h-7.2V17.815h7.2Zm-6.635-.567h6.068V18.383H27.108Z" fill="#d9251b"></path>
    <path id="SvgjsPath1066" data-name="Path 133" d="M40.378,22.837h-7.2V17.815h7.2Zm-6.635-.567h6.068V18.383H33.743Z" fill="#d9251b"></path>
    <path id="SvgjsPath1065" data-name="Path 134" d="M47.013,22.837h-7.2V17.815h7.2Zm-6.635-.567h6.068V18.383H40.378Z" fill="#d9251b"></path>
    <path id="SvgjsPath1064" data-name="Path 135" d="M53.649,22.837h-7.2V17.815h7.2Zm-6.636-.567h6.068V18.383H47.013Z" fill="#d9251b"></path>
    <path id="SvgjsPath1063" data-name="Path 136" d="M60.284,22.837h-7.2V17.815h7.2Zm-6.635-.567h6.068V18.383H53.649Z" fill="#d9251b"></path>
    <path id="SvgjsPath1062" data-name="Path 137" d="M66.919,22.837h-7.2V17.815h7.2Zm-6.635-.567h6.068V18.383H60.284Z" fill="#d9251b"></path>
    <path id="SvgjsPath1061" data-name="Path 138" d="M73.554,22.837h-7.2V17.815h7.2Zm-6.635-.567h6.068V18.383H66.919Z" fill="#d9251b"></path>
    <path id="SvgjsPath1060" data-name="Path 139" d="M80.189,22.837h-7.2V17.815h7.2Zm-6.635-.567h6.068V18.383H73.554Z" fill="#d9251b"></path>
    <path id="SvgjsPath1059" data-name="Path 140" d="M86.824,22.837h-7.2V17.815h7.2Zm-6.635-.567h6.068V18.383H80.189Z" fill="#d9251b"></path>
    <path id="SvgjsPath1058" data-name="Path 141" d="M93.459,22.837h-7.2V17.815h7.2Zm-6.635-.567h6.068V18.383H86.824Z" fill="#d9251b"></path>
    <path id="SvgjsPath1057" data-name="Path 142" d="M100.094,22.837h-7.2V17.815h7.2Zm-6.635-.567h6.068V18.383H93.459Z" fill="#d9251b"></path>
    <path id="SvgjsPath1056" data-name="Path 143" d="M106.73,22.837h-7.2V17.815h7.2ZM100.1,22.27h6.068V18.383H100.1Z" fill="#d9251b"></path>
    <path id="SvgjsPath1055" data-name="Path 144" d="M113.365,22.837h-7.2V17.815h7.2Zm-6.635-.567H112.8V18.383H106.73Z" fill="#d9251b"></path>
    <path id="SvgjsPath1054" data-name="Path 145" d="M113.365,18.383h6.068V22.27h-6.068Zm-.568,4.455H120V17.816h-7.2Z" fill="#d9251b"></path>
    <path id="SvgjsPath1053" data-name="Path 146" d="M.568,22.838H6.635v3.886H.568ZM0,27.29H7.2V22.268H0Z" fill="#d9251b"></path>
    <path id="SvgjsPath1052" data-name="Path 147" d="M13.838,27.29h-7.2V22.268h7.2ZM7.2,26.724h6.068V22.837H7.2Z" fill="#d9251b"></path>
    <path id="SvgjsPath1051" data-name="Path 148" d="M20.473,27.29h-7.2V22.268h7.2Zm-6.635-.566h6.068V22.837H13.838Z" fill="#d9251b"></path>
    <path id="SvgjsPath1050" data-name="Path 149" d="M27.108,27.29h-7.2V22.268h7.2Zm-6.635-.566h6.068V22.837H20.473Z" fill="#d9251b"></path>
    <path id="SvgjsPath1049" data-name="Path 150" d="M33.743,27.29h-7.2V22.268h7.2Zm-6.635-.566h6.068V22.837H27.108Z" fill="#d9251b"></path>
    <path id="SvgjsPath1048" data-name="Path 151" d="M40.378,27.29h-7.2V22.268h7.2Zm-6.635-.566h6.068V22.837H33.743Z" fill="#d9251b"></path>
    <path id="SvgjsPath1047" data-name="Path 152" d="M47.013,27.29h-7.2V22.268h7.2Zm-6.635-.566h6.068V22.837H40.378Z" fill="#d9251b"></path>
    <path id="SvgjsPath1046" data-name="Path 153" d="M53.649,27.29h-7.2V22.268h7.2Zm-6.636-.566h6.068V22.837H47.013Z" fill="#d9251b"></path>
    <path id="SvgjsPath1045" data-name="Path 154" d="M60.284,27.29h-7.2V22.268h7.2Zm-6.635-.566h6.068V22.837H53.649Z" fill="#d9251b"></path>
    <path id="SvgjsPath1044" data-name="Path 155" d="M66.919,27.29h-7.2V22.268h7.2Zm-6.635-.566h6.068V22.837H60.284Z" fill="#d9251b"></path>
    <path id="SvgjsPath1043" data-name="Path 156" d="M73.554,27.29h-7.2V22.268h7.2Zm-6.635-.566h6.068V22.837H66.919Z" fill="#d9251b"></path>
    <path id="SvgjsPath1042" data-name="Path 157" d="M80.189,27.29h-7.2V22.268h7.2Zm-6.635-.566h6.068V22.837H73.554Z" fill="#d9251b"></path>
    <path id="SvgjsPath1041" data-name="Path 158" d="M86.824,27.29h-7.2V22.268h7.2Zm-6.635-.566h6.068V22.837H80.189Z" fill="#d9251b"></path>
    <path id="SvgjsPath1040" data-name="Path 159" d="M93.459,27.29h-7.2V22.268h7.2Zm-6.635-.566h6.068V22.837H86.824Z" fill="#d9251b"></path>
    <path id="SvgjsPath1039" data-name="Path 160" d="M100.094,27.29h-7.2V22.268h7.2Zm-6.635-.566h6.068V22.837H93.459Z" fill="#d9251b"></path>
    <path id="SvgjsPath1038" data-name="Path 161" d="M106.73,27.29h-7.2V22.268h7.2Zm-6.635-.566h6.068V22.837H100.1Z" fill="#d9251b"></path>
    <path id="SvgjsPath1037" data-name="Path 162" d="M113.365,27.29h-7.2V22.268h7.2Zm-6.635-.566H112.8V22.837H106.73Z" fill="#d9251b"></path>
    <path id="SvgjsPath1036" data-name="Path 163" d="M113.365,22.838h6.068v3.886h-6.068ZM112.8,27.29H120V22.268h-7.2Z" fill="#d9251b"></path>
    <path id="SvgjsPath1035" data-name="Path 164" d="M.568,27.29H6.635v3.887H.568ZM0,31.744H7.2V26.722H0Z" fill="#d9251b"></path>
    <path id="SvgjsPath1034" data-name="Path 165" d="M13.838,31.744h-7.2V26.722h7.2ZM7.2,31.177h6.068V27.29H7.2Z" fill="#d9251b"></path>
    <path id="SvgjsPath1033" data-name="Path 166" d="M20.473,31.744h-7.2V26.722h7.2Zm-6.635-.567h6.068V27.29H13.838Z" fill="#d9251b"></path>
    <path id="SvgjsPath1032" data-name="Path 167" d="M27.108,31.744h-7.2V26.722h7.2Zm-6.635-.567h6.068V27.29H20.473Z" fill="#d9251b"></path>
    <path id="SvgjsPath1031" data-name="Path 168" d="M33.743,31.744h-7.2V26.722h7.2Zm-6.635-.567h6.068V27.29H27.108Z" fill="#d9251b"></path>
    <path id="SvgjsPath1030" data-name="Path 169" d="M40.378,31.744h-7.2V26.722h7.2Zm-6.635-.567h6.068V27.29H33.743Z" fill="#d9251b"></path>
    <path id="SvgjsPath1029" data-name="Path 170" d="M47.013,31.744h-7.2V26.722h7.2Zm-6.635-.567h6.068V27.29H40.378Z" fill="#d9251b"></path>
    <path id="SvgjsPath1028" data-name="Path 171" d="M53.649,31.744h-7.2V26.722h7.2Zm-6.636-.567h6.068V27.29H47.013Z" fill="#d9251b"></path>
    <path id="SvgjsPath1027" data-name="Path 172" d="M60.284,31.744h-7.2V26.722h7.2Zm-6.635-.567h6.068V27.29H53.649Z" fill="#d9251b"></path>
    <path id="SvgjsPath1026" data-name="Path 173" d="M66.919,31.744h-7.2V26.722h7.2Zm-6.635-.567h6.068V27.29H60.284Z" fill="#d9251b"></path>
    <path id="SvgjsPath1025" data-name="Path 174" d="M73.554,31.744h-7.2V26.722h7.2Zm-6.635-.567h6.068V27.29H66.919Z" fill="#d9251b"></path>
    <path id="SvgjsPath1024" data-name="Path 175" d="M80.189,31.744h-7.2V26.722h7.2Zm-6.635-.567h6.068V27.29H73.554Z" fill="#d9251b"></path>
    <path id="SvgjsPath1023" data-name="Path 176" d="M86.824,31.744h-7.2V26.722h7.2Zm-6.635-.567h6.068V27.29H80.189Z" fill="#d9251b"></path>
    <path id="SvgjsPath1022" data-name="Path 177" d="M93.459,31.744h-7.2V26.722h7.2Zm-6.635-.567h6.068V27.29H86.824Z" fill="#d9251b"></path>
    <path id="SvgjsPath1021" data-name="Path 178" d="M100.094,31.744h-7.2V26.722h7.2Zm-6.635-.567h6.068V27.29H93.459Z" fill="#d9251b"></path>
    <path id="SvgjsPath1020" data-name="Path 179" d="M106.73,31.744h-7.2V26.722h7.2Zm-6.635-.567h6.068V27.29H100.1Z" fill="#d9251b"></path>
    <path id="SvgjsPath1019" data-name="Path 180" d="M113.365,31.744h-7.2V26.722h7.2Zm-6.635-.567H112.8V27.29H106.73Z" fill="#d9251b"></path>
    <path id="SvgjsPath1018" data-name="Path 181" d="M113.365,27.29h6.068v3.887h-6.068Zm-.568,4.454H120V26.722h-7.2Z" fill="#d9251b"></path>
    <path id="SvgjsPath1017" data-name="Path 182" d="M17.155,6.815,13.27,4.208V9.476h3.885ZM33.743,22.27h-7.85l4.163,2.8h3.687Zm-6.635-3.887h3.317V15.722L26.54,13.115v4.7H19.258l4.163,2.794h3.687Zm12.7,8.341H32.528l4.163,2.795H43.7V6.815L39.812,4.208V26.724Zm-19.338-12.8H23.79V11.268L19.905,8.66v4.7H13.27V26.722H5.988l4.163,2.8h7.006V16.156h3.317V13.929Zm52.514,3.887h-19.9v8.906h-5.8v.284h-.043l-.35-.235-.315.471,3.39,2.275h7.006V20.61H76.873V15.722l-3.885-2.607v4.7Zm0-8.907h-19.9v5.022h3.442V11.7H76.869V6.815L72.984,4.208v4.7Zm20.473,0H78.974L83.137,11.7H93.459Zm19.338-4.7v4.7H99.527V26.722H92.244l4.164,2.8h7.006V11.7h13.27V6.813Z" fill="#231f20"></path>
    <path id="SvgjsPath1016" data-name="Path 183" d="M0,53.695H7.271v-3.41H0Zm8.213,0h7.271v-3.41H8.213Zm96.3,0h7.271v-3.41h-7.271Zm8.214,0H120v-3.41h-7.271ZM3.737,49.689h7.271v-3.41H3.737Zm112.526-3.412h-7.269v3.41h7.272v-3.41ZM7.47,45.681h7.271V42.27H7.47Zm97.788,0h7.271V42.27h-7.271ZM3.737,41.675h7.271v-3.41H3.737Zm112.526-3.412h-7.269v3.41h7.272v-3.41Zm-15.482-4H16.425v3.41h2.794v.6H11.948v3.41h7.271v.6H15.682v3.41h3.537v.6H11.948v3.41h7.271v.6H16.425v3.41h87.149v-3.41h-2.793v-.6h7.271v-3.41h-7.271v-.6h3.536v-3.41h-3.536v-.6h7.271v-3.41h-7.271v-.6h2.793v-3.41ZM0,37.667H7.271v-3.41H0Zm8.213,0h7.271v-3.41H8.213Zm96.3,0h7.271v-3.41h-7.271Zm8.214,0H120v-3.41h-7.271Z" fill="#d9251b"></path>
    <g id="SvgjsG1015" data-name="Group 98">
      <g id="SvgjsG1014" data-name="Group 97" clip-path="url(#clip-path)">
        <path id="SvgjsPath1013" data-name="Path 184" d="M57.7,49.973c-.172.019,0-14.018,0-14.018h2.8l1.216,3.826v8.805l-1,2.405Z" fill="#fff"></path>
        <path id="SvgjsPath1012" data-name="Path 185" d="M67.086,49.973V36h2.763l.738,4.646,1.209-.483,3.19-4.2h3l-1.4,3.7-1.331,2.424.089,2.5,3.56,6.148H76.781l-1.732-.753-1.695-3.622-1.33-1.22-.749,2.034-.549,3.561-2.262.265Z" fill="#fff"></path>
        <path id="SvgjsPath1011" data-name="Path 186" d="M25.407,49.973V35.955h7.242a2.279,2.279,0,0,1,2,.955A39.948,39.948,0,0,1,36.6,40.591L36.007,42.7l-.263,1.882a41.674,41.674,0,0,1,.658,4.139,13.121,13.121,0,0,0-.625,1.942s-3.127-.1-3.292,0-3.816.332-3.816.332Z" fill="#fff"></path>
        <path id="SvgjsPath1010" data-name="Path 187" d="M91.809,36.831a2.155,2.155,0,0,0-1.771-.877H85.7a2.967,2.967,0,0,0-2.978,2.939c-.006,1.554.159,3.277.836,3.954L88.929,45.3l1.109,1.017v.814a.472.472,0,0,1-.471.471H87.586l-1.739-.505-.363-1.6H82.993V47.52a2.837,2.837,0,0,0,.6,1.8c.039.046.078.091.117.13a26.458,26.458,0,0,0,3.113,1.711l6.635-.167v-5.12a14.945,14.945,0,0,0-1.494-2.83l-4.458-1.4-.881-1.257.712-1.085,1.56.672,2.846.99,1.458-.069s-.733-3.473-1.393-4.061" fill="#fff"></path>
        <path id="SvgjsPath1009" data-name="Path 188" d="M83.555,42.847l1.2,1.076.877-.147s-.245-.914-.261-.914S84,42.393,83.989,42.4s-.434.443-.434.443" fill="#fff"></path>
        <path id="SvgjsPath1008" data-name="Path 189" d="M87.507,41.639a11.594,11.594,0,0,1,4.458,1.4,7.162,7.162,0,0,1,1.875,3.683l-2.1-2.748-2.222-1.432Z" fill="#fff"></path>
        <path id="SvgjsPath1007" data-name="Path 190" d="M48.846,40.549v.66a1.151,1.151,0,0,1-1.15,1.15H41.545v7.612l2.415,1.02,1.235-1.029V45.708l1.3.236,1.2.778,1.169,3.251,1.737,1.02h1.23V48.768L50.669,45.71l1.86-3.347V39.511l-1.678-2.6H41.545v5.453h3.778V39.512h3.254Z" fill="#fff"></path>
        <path id="SvgjsPath1006" data-name="Path 191" d="M32.649,40.51H30.157v1.246h2.492Zm-2.492,7.049h2.648V46H30.157Z" fill="#d9251b"></path>
        <path id="SvgjsPath1005" data-name="Path 192" d="M50.85,36.909S50.626,36,47.957,36H41.544v.912l1.729,3.153a13.257,13.257,0,0,1,.634-2.2c.148-.037,4.937-.037,4.937-.037Z" fill="#fff"></path>
        <path id="SvgjsPath1004" data-name="Path 193" d="M36.8,45.339a1.964,1.964,0,0,1,.564,1.441v2.375A2.637,2.637,0,0,1,34.6,51.92H27.355l-1.947-1.947.195-.195h7.046a2.338,2.338,0,0,0,2.571-2.57v-2.3a2.22,2.22,0,0,0-1.382-2.1,2.312,2.312,0,0,0,1.226-2.1V38.719a2.942,2.942,0,0,0-.408-1.81l1.966,1.965a2.451,2.451,0,0,1,.584,1.792v1.986a2.307,2.307,0,0,1-1.091,2.025Zm-8.779-6.971h3.972a.588.588,0,0,1,.662.662v1.48H30.159v1.246H28.017Zm0,5.491h3.894c.623-.019.9.078.9.623V46H30.159v1.558H28.017Z"></path>
        <path id="SvgjsPath1003" data-name="Path 194" d="M46.3,46.72v5.2h-2.8l-1.947-1.947.194-.195h2.415v-5.2h2.609L47.7,46.72Zm-2.142-8.313h4.03a.581.581,0,0,1,.662.662v1.48H46.3v1.81H44.154Zm4.712,11.566.195-.195h2.492l-2.238-5.12a2.778,2.778,0,0,0,1.947-2.648V38.72a3.256,3.256,0,0,0-.571-2.051l2.129,2.207a2.45,2.45,0,0,1,.584,1.791v3.29A2.609,2.609,0,0,1,51.5,46.6l2.336,5.315H50.815Z"></path>
        <path id="SvgjsPath1002" data-name="Path 195" d="M62.453,51.918h-2.8L57.7,49.971l.195-.195h2.414V36.148l.195-.195L62.453,37.9Z"></path>
        <path id="SvgjsPath1001" data-name="Path 196" d="M73.354,46.351,71.8,48.337V51.92H69.031l-1.947-1.947v-.195h2.57V46.273l1.966-2.511.389.117ZM69.654,36h.195L71.8,37.9v2.259l-2.142,2.9Zm7.34,15.922-1.947-1.947-.115-.195h3l-4.518-8.293,4.238-5.53h.339L79.935,37.9l-4.3,5.53,4.517,8.488Z"></path>
        <path id="SvgjsPath1000" data-name="Path 197" d="M90.036,46.312,87.5,45.767a4,4,0,0,1-2.1-1.072l-1.849-1.849a4.127,4.127,0,0,0,2,.779l3.816.779c.468.1.662.254.662.662Zm3.8-1.4a2.456,2.456,0,0,1,.759,1.792v2.531A2.638,2.638,0,0,1,91.828,52H87.466a3.042,3.042,0,0,1-2.181-.974l-1.576-1.576a2.941,2.941,0,0,0,1.81.408h4.362a2.338,2.338,0,0,0,2.57-2.57V44.754a2.441,2.441,0,0,0-.486-1.713ZM87.585,47.6H85.949a.581.581,0,0,1-.662-.662V45.494h.195Zm-.078-5.958-1.48-.312c-.467-.1-.662-.252-.662-.662V38.991a.58.58,0,0,1,.662-.662H89.22c.449,0,.722.254.663.662v1.09h2.336V38.64a3.271,3.271,0,0,0-.408-1.81L93.777,38.8a2.451,2.451,0,0,1,.584,1.792v1.635H91.635l-1.752-1.752H88.169a.581.581,0,0,0-.662.662Z"></path>
      </g>
    </g>
  </g>
</svg><style>@media (prefers-color-scheme: light) { :root { filter: none; } }
</style></svg>