<svg xmlns="http://www.w3.org/2000/svg" width="13.125" height="13.125" viewBox="0 0 13.125 13.125">
  <path id="Path_63" data-name="Path 63" d="M13.122-3.4a.353.353,0,0,0-.352-.352h-.814a.352.352,0,0,0-.352.357l.067,1.8-.041.041L7.559-5.625,11.631-9.7l.041.041-.067,1.8a.352.352,0,0,0,.352.357h.814a.353.353,0,0,0,.352-.352l0-3.984a.353.353,0,0,0-.352-.352l-3.984,0a.353.353,0,0,0-.352.352v.814a.352.352,0,0,0,.357.352l1.8-.067.041.041L6.562-6.621,2.49-10.693l.041-.041,1.8.067a.352.352,0,0,0,.357-.352v-.814a.353.353,0,0,0-.352-.352l-3.984,0A.353.353,0,0,0,0-11.836L0-7.852A.353.353,0,0,0,.354-7.5h.814a.352.352,0,0,0,.352-.357l-.067-1.8L1.494-9.7,5.566-5.625,1.494-1.553l-.041-.041.067-1.8a.352.352,0,0,0-.352-.357H.354A.353.353,0,0,0,0-3.4L0,.586A.353.353,0,0,0,.352.937l3.984,0A.353.353,0,0,0,4.687.583V-.231A.352.352,0,0,0,4.33-.583l-1.8.067L2.49-.557,6.562-4.629,10.635-.557l-.041.041-1.8-.067a.352.352,0,0,0-.357.352V.583a.353.353,0,0,0,.352.352l3.984,0a.353.353,0,0,0,.352-.352Z" transform="translate(0 12.188)" fill="#5f6367"/>
</svg>
