<svg xmlns="http://www.w3.org/2000/svg" width="25.061" height="20.03" viewBox="0 0 25.061 20.03">
  <path id="Path_1174" data-name="Path 1174" d="M10.7-12.148a5,5,0,0,1,1.836-.352,4.817,4.817,0,0,1,3.535,1.465A4.817,4.817,0,0,1,17.539-7.5a5.512,5.512,0,0,1-.078.7L16.25-7.734A3.522,3.522,0,0,0,15.7-9.512a3.71,3.71,0,0,0-1.348-1.27,3.666,3.666,0,0,0-1.816-.469,2.919,2.919,0,0,0-.625.078ZM12.539,0a9.243,9.243,0,0,0,4.18-1.016l1.094.859A10.6,10.6,0,0,1,12.539,1.25,10.691,10.691,0,0,1,6.016-.957,14.554,14.554,0,0,1,1.406-6.836,1.876,1.876,0,0,1,1.289-7.5a1.876,1.876,0,0,1,.117-.664,15.6,15.6,0,0,1,2.031-3.359l.977.781A14.642,14.642,0,0,0,2.578-7.656a.347.347,0,0,0-.039.156.643.643,0,0,0,.039.2,12.974,12.974,0,0,0,4.16,5.332A9.577,9.577,0,0,0,12.539,0Zm0-15a9.243,9.243,0,0,0-4.18,1.016l-1.094-.859a10.6,10.6,0,0,1,5.273-1.406,10.516,10.516,0,0,1,4.512,1.016A12.33,12.33,0,0,1,20.9-12.4a15.706,15.706,0,0,1,2.773,4.238,1.876,1.876,0,0,1,.117.664,1.876,1.876,0,0,1-.117.664,15.6,15.6,0,0,1-2.031,3.359l-.977-.781A14.642,14.642,0,0,0,22.5-7.344a.347.347,0,0,0,.039-.156.643.643,0,0,0-.039-.2,12.974,12.974,0,0,0-4.16-5.332A9.577,9.577,0,0,0,12.539-15Zm0,12.5A4.817,4.817,0,0,1,9-3.965,4.817,4.817,0,0,1,7.539-7.5a5.512,5.512,0,0,1,.078-.7l1.211.938a3.579,3.579,0,0,0,1.152,2.5A3.6,3.6,0,0,0,12.539-3.75a2.919,2.919,0,0,0,.625-.078l1.211.977A5,5,0,0,1,12.539-2.5ZM24.8,1.367a.6.6,0,0,1,.117.9.684.684,0,0,1-.9.117L.273-16.367a.568.568,0,0,1-.1-.879.571.571,0,0,1,.879-.137Z" transform="translate(-0.012 17.53)" fill="#707579"/>
</svg>
