<svg xmlns="http://www.w3.org/2000/svg" width="19.125" height="17" viewBox="0 0 19.125 17">
  <path id="Path_59" data-name="Path 59" d="M19.125-6.375a.517.517,0,0,1-.149.382.517.517,0,0,1-.382.149.571.571,0,0,1-.365-.133L17-7.072V-.531a2.558,2.558,0,0,1-.78,1.876,2.558,2.558,0,0,1-1.876.78H4.781a2.558,2.558,0,0,1-1.876-.78,2.558,2.558,0,0,1-.78-1.876V-7.072L.9-5.977a.571.571,0,0,1-.365.133.517.517,0,0,1-.382-.149A.517.517,0,0,1,0-6.375a.543.543,0,0,1,.166-.4L9.2-14.742a.571.571,0,0,1,.365-.133.571.571,0,0,1,.365.133l2.822,2.49v-1.029a.517.517,0,0,1,.149-.382.517.517,0,0,1,.382-.149h3.188a.517.517,0,0,1,.382.149.517.517,0,0,1,.149.382V-8.5l1.959,1.727A.543.543,0,0,1,19.125-6.375ZM13.813-12.75v1.461L15.938-9.43v-3.32Zm2.125,4.781V-8L9.563-13.646,3.188-8V-.531A1.537,1.537,0,0,0,3.652.6a1.537,1.537,0,0,0,1.129.465h9.563A1.537,1.537,0,0,0,15.473.6a1.537,1.537,0,0,0,.465-1.129ZM6.906-7.6a.862.862,0,0,1,.266-.631A.862.862,0,0,1,7.8-8.5h3.553a.888.888,0,0,1,.332.066.829.829,0,0,1,.282.183.829.829,0,0,1,.183.282.975.975,0,0,1,.066.365v3.52a.891.891,0,0,1-.249.631.809.809,0,0,1-.614.266H7.8a.862.862,0,0,1-.631-.266.862.862,0,0,1-.266-.631Zm1.063.166V-4.25h3.188V-7.437Z" transform="translate(0 14.875)" fill="#fff"/>
</svg>
