<svg xmlns="http://www.w3.org/2000/svg" width="14.875" height="17" viewBox="0 0 14.875 17">
  <path id="Path_57" data-name="Path 57" d="M2.623-2.689a.768.768,0,0,1,.564-.232.768.768,0,0,1,.564.232.768.768,0,0,1,.232.564.768.768,0,0,1-.232.564.768.768,0,0,1-.564.232.768.768,0,0,1-.564-.232.768.768,0,0,1-.232-.564A.768.768,0,0,1,2.623-2.689Zm9.064.033a.517.517,0,0,1,.382.149.517.517,0,0,1,.149.382.517.517,0,0,1-.149.382.517.517,0,0,1-.382.149H5.844a.517.517,0,0,1-.382-.149.517.517,0,0,1-.149-.382.517.517,0,0,1,.149-.382.517.517,0,0,1,.382-.149ZM3.752-5.479a.525.525,0,0,1-.382.166.525.525,0,0,1-.382-.166l-.963-.963a.455.455,0,0,1-.017-.747.467.467,0,0,1,.747-.017l.6.6L4.947-8.168a.473.473,0,0,1,.747,0,.472.472,0,0,1-.017.764Zm0-4.582a.768.768,0,0,1-.564.232.768.768,0,0,1-.564-.232.768.768,0,0,1-.232-.564.768.768,0,0,1,.232-.564.768.768,0,0,1,.564-.232.768.768,0,0,1,.564.232.768.768,0,0,1,.232.564A.768.768,0,0,1,3.752-10.061Zm7.936,3.154a.517.517,0,0,1,.382.149.517.517,0,0,1,.149.382.517.517,0,0,1-.149.382.517.517,0,0,1-.382.149H6.906a.517.517,0,0,1-.382-.149.517.517,0,0,1-.149-.382.517.517,0,0,1,.149-.382.517.517,0,0,1,.382-.149Zm1.063-7.969a2.053,2.053,0,0,1,1.511.614,2.053,2.053,0,0,1,.614,1.511V0a2.053,2.053,0,0,1-.614,1.511,2.053,2.053,0,0,1-1.511.614H2.125A2.053,2.053,0,0,1,.614,1.511,2.053,2.053,0,0,1,0,0V-12.75a2.053,2.053,0,0,1,.614-1.511,2.053,2.053,0,0,1,1.511-.614ZM13.813,0V-12.75A1.021,1.021,0,0,0,13.5-13.5a1.021,1.021,0,0,0-.747-.315H2.125a1.021,1.021,0,0,0-.747.315,1.021,1.021,0,0,0-.315.747V0a1.021,1.021,0,0,0,.315.747,1.021,1.021,0,0,0,.747.315H12.75A1.021,1.021,0,0,0,13.5.747,1.021,1.021,0,0,0,13.813,0ZM11.688-11.156a.517.517,0,0,1,.382.149.517.517,0,0,1,.149.382.517.517,0,0,1-.149.382.517.517,0,0,1-.382.149H5.844a.517.517,0,0,1-.382-.149.517.517,0,0,1-.149-.382.517.517,0,0,1,.149-.382.517.517,0,0,1,.382-.149Z" transform="translate(0 14.875)" fill="#fff"/>
</svg>
