<svg xmlns="http://www.w3.org/2000/svg" width="12.25" height="12.25" viewBox="0 0 12.25 12.25">
  <path id="Path_1182" data-name="Path 1182" d="M-2.215-7.465a3.056,3.056,0,0,1,2.242-.93,3.033,3.033,0,0,1,2.229.916A3.033,3.033,0,0,1,3.172-5.25a3.033,3.033,0,0,1-.916,2.229,3.033,3.033,0,0,1-2.229.916A3.033,3.033,0,0,1-2.2-3.021,3.033,3.033,0,0,1-3.117-5.25,3.011,3.011,0,0,1-2.215-7.465ZM-1.422-3.8a1.975,1.975,0,0,0,1.449.6,1.975,1.975,0,0,0,1.449-.6,1.975,1.975,0,0,0,.6-1.449,1.975,1.975,0,0,0-.6-1.449A1.975,1.975,0,0,0,.027-7.3a1.975,1.975,0,0,0-1.449.6,1.975,1.975,0,0,0-.6,1.449A1.975,1.975,0,0,0-1.422-3.8ZM3.8-9.023a.624.624,0,0,1,.219.492.734.734,0,0,1-.205.52.666.666,0,0,1-.506.219.71.71,0,0,1-.52-.219.71.71,0,0,1-.219-.52.666.666,0,0,1,.219-.506.734.734,0,0,1,.52-.205A.624.624,0,0,1,3.8-9.023ZM6.125-7.766q.027.738.027,2.516T6.125-2.734a3.771,3.771,0,0,1-1,2.584A3.674,3.674,0,0,1,2.543.82Q1.8.875.027.875T-2.488.82a3.753,3.753,0,0,1-2.57-.984A2.639,2.639,0,0,1-5.633-.93a3.869,3.869,0,0,1-.314-.848,4.245,4.245,0,0,1-.1-.957Q-6.1-3.473-6.1-5.25t.055-2.543a3.716,3.716,0,0,1,.984-2.543,3.684,3.684,0,0,1,2.57-1.012q.738-.027,2.516-.027t2.516.027a3.771,3.771,0,0,1,2.584,1A3.771,3.771,0,0,1,6.125-7.766ZM4.813-1.641A2.966,2.966,0,0,0,4.949-2.2q.055-.342.082-.82T5.059-3.8V-6.7q0-.3-.027-.779T4.949-8.3a2.966,2.966,0,0,0-.137-.561,1.973,1.973,0,0,0-1.176-1.176,2.966,2.966,0,0,0-.561-.137q-.342-.055-.82-.082t-.766-.027H-1.422q-.3,0-.779.027t-.82.082a2.966,2.966,0,0,0-.561.137A1.973,1.973,0,0,0-4.758-8.859a2.966,2.966,0,0,0-.137.561q-.055.342-.082.82T-5-6.713v2.625q0,.26.014.67t.041.7q.027.287.082.588t.109.492A2.073,2.073,0,0,0-3.582-.465a2.966,2.966,0,0,0,.561.137q.342.055.82.082t.766.027H1.477q.3,0,.779-.027t.82-.082a2.966,2.966,0,0,0,.561-.137A2.073,2.073,0,0,0,4.813-1.641Z" transform="translate(6.098 11.375)" fill="#ddd"/>
</svg>
