<svg xmlns="http://www.w3.org/2000/svg" width="12.25" height="12.25" viewBox="0 0 12.25 12.25">
  <path id="Path_71" data-name="Path 71" d="M-3.383,0V-8.178h-2.54V0ZM-4.654-9.294a1.483,1.483,0,0,0,1.471-1.485A1.471,1.471,0,0,0-4.654-12.25a1.471,1.471,0,0,0-1.471,1.471A1.483,1.483,0,0,0-4.654-9.294ZM6.122,0h0V-4.493c0-2.2-.473-3.891-3.043-3.891a2.669,2.669,0,0,0-2.4,1.321H.644V-8.178H-1.792V0H.745V-4.05c0-1.066.2-2.1,1.523-2.1,1.3,0,1.32,1.217,1.32,2.166V0Z" transform="translate(6.125 12.25)" fill="#5f6367"/>
</svg>
