<svg xmlns="http://www.w3.org/2000/svg" width="240" height="36" viewBox="0 0 240 36">
  <g id="Group_3498" data-name="Group 3498" transform="translate(-1521 -3248)">
    <rect id="Rectangle_20361" data-name="Rectangle 20361" width="240" height="36" rx="18" transform="translate(1521 3248)" fill="#d9251b"/>
    <path id="Path_1186" data-name="Path 1186" d="M2.457-1.2H5.512V0H.975V-9.035H2.457ZM9.854.117A3.668,3.668,0,0,1,8.021-.345a3.315,3.315,0,0,1-1.287-1.3,3.921,3.921,0,0,1-.468-1.943,3.846,3.846,0,0,1,.481-1.937,3.322,3.322,0,0,1,1.313-1.3A3.81,3.81,0,0,1,9.919-7.28a3.81,3.81,0,0,1,1.859.455,3.322,3.322,0,0,1,1.313,1.3,3.846,3.846,0,0,1,.481,1.937,3.766,3.766,0,0,1-.494,1.937A3.421,3.421,0,0,1,11.733-.345,3.878,3.878,0,0,1,9.854.117Zm0-1.287a2.205,2.205,0,0,0,1.073-.273,2.08,2.08,0,0,0,.813-.819,2.633,2.633,0,0,0,.312-1.326,2.688,2.688,0,0,0-.3-1.319,2.018,2.018,0,0,0-.793-.812,2.169,2.169,0,0,0-1.066-.273,2.132,2.132,0,0,0-1.059.273,1.949,1.949,0,0,0-.774.813,2.788,2.788,0,0,0-.286,1.319A2.513,2.513,0,0,0,8.365-1.8,1.955,1.955,0,0,0,9.854-1.17Zm8.073-6.11a3.176,3.176,0,0,1,1.476.332,2.834,2.834,0,0,1,1.007.826v-1.04H21.9V.117a3.66,3.66,0,0,1-.416,1.761,3.006,3.006,0,0,1-1.2,1.216,3.776,3.776,0,0,1-1.878.442,4.076,4.076,0,0,1-2.418-.683A2.518,2.518,0,0,1,14.9,1h1.469a1.6,1.6,0,0,0,.722.9,2.444,2.444,0,0,0,1.319.344A1.973,1.973,0,0,0,19.858,1.7,2.133,2.133,0,0,0,20.41.117v-1.2a3.022,3.022,0,0,1-1.021.851,3.05,3.05,0,0,1-1.462.345,3.206,3.206,0,0,1-1.709-.474A3.349,3.349,0,0,1,15-1.684a4.079,4.079,0,0,1-.448-1.93A3.964,3.964,0,0,1,15-5.525a3.287,3.287,0,0,1,1.222-1.293A3.274,3.274,0,0,1,17.927-7.28ZM20.41-3.588A2.594,2.594,0,0,0,20.1-4.875a2.145,2.145,0,0,0-.8-.832,2.092,2.092,0,0,0-1.066-.286,2.129,2.129,0,0,0-1.066.28,2.108,2.108,0,0,0-.8.819,2.557,2.557,0,0,0-.306,1.281,2.668,2.668,0,0,0,.306,1.3,2.155,2.155,0,0,0,.806.852,2.067,2.067,0,0,0,1.059.292,2.092,2.092,0,0,0,1.066-.286,2.134,2.134,0,0,0,.8-.838A2.631,2.631,0,0,0,20.41-3.588Zm4.2-4.524a.918.918,0,0,1-.676-.273.918.918,0,0,1-.273-.676.918.918,0,0,1,.273-.676.918.918,0,0,1,.676-.273.9.9,0,0,1,.663.273.918.918,0,0,1,.273.676.918.918,0,0,1-.273.676A.9.9,0,0,1,24.609-8.112Zm.728.949V0H23.855V-7.163ZM30.9-7.28a3.212,3.212,0,0,1,1.514.351,2.5,2.5,0,0,1,1.047,1.04,3.421,3.421,0,0,1,.377,1.664V0H32.37V-4a2.079,2.079,0,0,0-.481-1.475,1.712,1.712,0,0,0-1.313-.514,1.733,1.733,0,0,0-1.319.514A2.061,2.061,0,0,0,28.769-4V0H27.287V-7.163h1.482v.819a2.453,2.453,0,0,1,.929-.689A2.971,2.971,0,0,1,30.9-7.28Zm13.013-4.992L40.378,2.275H38.922l3.523-14.547ZM53.859,0l-2.08-3.614H50.648V0H49.166V-9.035h3.12a3.879,3.879,0,0,1,1.761.364,2.525,2.525,0,0,1,1.079.975,2.653,2.653,0,0,1,.357,1.365,2.705,2.705,0,0,1-.514,1.605,2.606,2.606,0,0,1-1.579.982L55.627,0ZM50.648-4.8h1.638a1.718,1.718,0,0,0,1.254-.416,1.5,1.5,0,0,0,.423-1.118,1.445,1.445,0,0,0-.416-1.1,1.768,1.768,0,0,0-1.261-.4H50.648Zm13.3,1.04a4.633,4.633,0,0,1-.052.728H58.422a1.988,1.988,0,0,0,.637,1.378,2.011,2.011,0,0,0,1.4.52,1.734,1.734,0,0,0,1.69-1h1.6A3.227,3.227,0,0,1,62.576-.514a3.452,3.452,0,0,1-2.112.631,3.658,3.658,0,0,1-1.84-.462,3.283,3.283,0,0,1-1.274-1.3,3.966,3.966,0,0,1-.462-1.943,4.059,4.059,0,0,1,.449-1.944A3.154,3.154,0,0,1,58.6-6.825a3.753,3.753,0,0,1,1.866-.455,3.648,3.648,0,0,1,1.807.442A3.123,3.123,0,0,1,63.505-5.6,3.739,3.739,0,0,1,63.947-3.757ZM62.4-4.225a1.687,1.687,0,0,0-.585-1.313A2.092,2.092,0,0,0,60.4-6.032a1.9,1.9,0,0,0-1.313.487,2.037,2.037,0,0,0-.65,1.319ZM68.289-7.28a3.176,3.176,0,0,1,1.476.332,2.834,2.834,0,0,1,1.007.826v-1.04h1.495V.117a3.66,3.66,0,0,1-.416,1.761,3.006,3.006,0,0,1-1.2,1.216,3.776,3.776,0,0,1-1.878.442,4.076,4.076,0,0,1-2.418-.683A2.518,2.518,0,0,1,65.26,1h1.469a1.6,1.6,0,0,0,.721.9,2.444,2.444,0,0,0,1.32.344A1.973,1.973,0,0,0,70.219,1.7,2.133,2.133,0,0,0,70.772.117v-1.2a3.022,3.022,0,0,1-1.021.851,3.05,3.05,0,0,1-1.463.345,3.206,3.206,0,0,1-1.71-.474,3.349,3.349,0,0,1-1.222-1.326,4.079,4.079,0,0,1-.448-1.93,3.964,3.964,0,0,1,.448-1.911,3.287,3.287,0,0,1,1.222-1.293A3.274,3.274,0,0,1,68.289-7.28Zm2.483,3.692a2.594,2.594,0,0,0-.306-1.287,2.144,2.144,0,0,0-.8-.832A2.092,2.092,0,0,0,68.6-5.993a2.129,2.129,0,0,0-1.066.28,2.108,2.108,0,0,0-.8.819,2.557,2.557,0,0,0-.306,1.281,2.668,2.668,0,0,0,.306,1.3,2.155,2.155,0,0,0,.806.852A2.067,2.067,0,0,0,68.6-1.17a2.092,2.092,0,0,0,1.066-.286,2.134,2.134,0,0,0,.8-.838A2.631,2.631,0,0,0,70.772-3.588Zm4.2-4.524a.918.918,0,0,1-.676-.273.918.918,0,0,1-.273-.676.918.918,0,0,1,.273-.676.918.918,0,0,1,.676-.273.9.9,0,0,1,.663.273.918.918,0,0,1,.273.676.918.918,0,0,1-.273.676A.9.9,0,0,1,74.971-8.112Zm.728.949V0H74.217V-7.163Zm4.55,7.28a3.609,3.609,0,0,1-1.514-.305,2.66,2.66,0,0,1-1.06-.832A2.074,2.074,0,0,1,77.259-2.2h1.534a1.046,1.046,0,0,0,.435.761,1.581,1.581,0,0,0,.995.306,1.675,1.675,0,0,0,.968-.241.726.726,0,0,0,.344-.617.634.634,0,0,0-.383-.6,7.189,7.189,0,0,0-1.215-.429,11.732,11.732,0,0,1-1.313-.429,2.3,2.3,0,0,1-.877-.637,1.669,1.669,0,0,1-.37-1.131,1.764,1.764,0,0,1,.338-1.047,2.251,2.251,0,0,1,.968-.747,3.619,3.619,0,0,1,1.45-.273,2.993,2.993,0,0,1,1.969.618,2.217,2.217,0,0,1,.8,1.684H81.419a1.056,1.056,0,0,0-.39-.767,1.458,1.458,0,0,0-.949-.286,1.54,1.54,0,0,0-.9.221.684.684,0,0,0-.312.585.633.633,0,0,0,.208.481,1.482,1.482,0,0,0,.507.305q.3.111.884.28a9.617,9.617,0,0,1,1.281.422,2.384,2.384,0,0,1,.865.631A1.668,1.668,0,0,1,82.992-2,1.853,1.853,0,0,1,82.654-.91a2.241,2.241,0,0,1-.956.754A3.56,3.56,0,0,1,80.249.117ZM86.32-5.954v3.965a.761.761,0,0,0,.188.579.937.937,0,0,0,.644.175h.91V0h-1.17a2.255,2.255,0,0,1-1.534-.468,1.929,1.929,0,0,1-.533-1.521V-5.954H83.98V-7.163h.845V-8.944h1.5v1.781h1.742v1.209Zm9.672,2.2a4.633,4.633,0,0,1-.052.728H90.467A1.988,1.988,0,0,0,91.1-1.651a2.011,2.011,0,0,0,1.4.52,1.734,1.734,0,0,0,1.69-1h1.6A3.227,3.227,0,0,1,94.621-.514a3.452,3.452,0,0,1-2.113.631,3.658,3.658,0,0,1-1.84-.462,3.284,3.284,0,0,1-1.274-1.3,3.966,3.966,0,0,1-.461-1.943,4.059,4.059,0,0,1,.448-1.944,3.154,3.154,0,0,1,1.261-1.293,3.753,3.753,0,0,1,1.866-.455,3.648,3.648,0,0,1,1.807.442A3.123,3.123,0,0,1,95.55-5.6,3.739,3.739,0,0,1,95.992-3.757Zm-1.547-.468a1.686,1.686,0,0,0-.585-1.313,2.092,2.092,0,0,0-1.417-.494,1.9,1.9,0,0,0-1.313.487,2.037,2.037,0,0,0-.65,1.319Zm4.485-1.9a2.327,2.327,0,0,1,.865-.852,2.557,2.557,0,0,1,1.28-.306v1.534H100.7a1.8,1.8,0,0,0-1.319.442A2.114,2.114,0,0,0,98.93-3.77V0H97.448V-7.163H98.93Z" transform="translate(1579.496 3271)" fill="#fff"/>
    <path id="Path_1168" data-name="Path 1168" d="M12.488,7.4A4.068,4.068,0,0,1,9.5,8.625a4.1,4.1,0,0,1-3-1.245,4.1,4.1,0,0,1-1.245-3,4.1,4.1,0,0,1,1.245-3A4.1,4.1,0,0,1,9.5.125a4.1,4.1,0,0,1,3,1.245,4.1,4.1,0,0,1,1.245,3A4.122,4.122,0,0,1,12.488,7.4Zm-.73-5.279A3.074,3.074,0,0,0,9.5,1.188a3.074,3.074,0,0,0-2.258.93,3.074,3.074,0,0,0-.93,2.258,3.074,3.074,0,0,0,.93,2.258,3.074,3.074,0,0,0,2.258.93,3.074,3.074,0,0,0,2.258-.93,3.074,3.074,0,0,0,.93-2.258A3.074,3.074,0,0,0,11.758,2.117Zm-.564,8.1a5.527,5.527,0,0,1,4.051,1.693,5.527,5.527,0,0,1,1.693,4.051,1.135,1.135,0,0,1-1.162,1.162H3.225a1.135,1.135,0,0,1-1.162-1.162,5.527,5.527,0,0,1,1.693-4.051,5.527,5.527,0,0,1,4.051-1.693Zm4.582,5.844a.088.088,0,0,0,.1-.1,4.557,4.557,0,0,0-.631-2.341,4.692,4.692,0,0,0-1.71-1.71,4.557,4.557,0,0,0-2.341-.631H7.807a4.506,4.506,0,0,0-3.3,1.378,4.506,4.506,0,0,0-1.378,3.3.088.088,0,0,0,.1.1Z" transform="translate(1546 3258)" fill="#fff"/>
  </g>
</svg>
