<svg xmlns="http://www.w3.org/2000/svg" width="232" height="36" viewBox="0 0 232 36">
  <g id="Group_3497" data-name="Group 3497" transform="translate(-1521 -3305)">
    <rect id="Rectangle_20361" data-name="Rectangle 20361" width="232" height="36" rx="18" transform="translate(1521 3305)" fill="#d9251b"/>
    <path id="Path_1187" data-name="Path 1187" d="M10.491-9.035V0H9.009V-6.188L6.253,0H5.226L2.457-6.188V0H.975V-9.035h1.6L5.746-1.95,8.9-9.035Zm2.7.923a.918.918,0,0,1-.676-.273.918.918,0,0,1-.273-.676.918.918,0,0,1,.273-.676.918.918,0,0,1,.676-.273.9.9,0,0,1,.663.273.918.918,0,0,1,.273.676.918.918,0,0,1-.273.676A.9.9,0,0,1,13.195-8.112Zm.728.949V0H12.441V-7.163Zm5.564-.117A3.212,3.212,0,0,1,21-6.929a2.5,2.5,0,0,1,1.047,1.04,3.421,3.421,0,0,1,.377,1.664V0H20.956V-4a2.079,2.079,0,0,0-.481-1.475,1.712,1.712,0,0,0-1.313-.514,1.733,1.733,0,0,0-1.319.514A2.061,2.061,0,0,0,17.355-4V0H15.873V-7.163h1.482v.819a2.453,2.453,0,0,1,.93-.689A2.971,2.971,0,0,1,19.487-7.28Zm6.552,1.326v3.965a.761.761,0,0,0,.188.579.937.937,0,0,0,.643.175h.91V0h-1.17a2.255,2.255,0,0,1-1.534-.468,1.929,1.929,0,0,1-.533-1.521V-5.954H23.7V-7.163h.845V-8.944h1.5v1.781h1.742v1.209ZM38.363-9.035v1.209h-2.4V0H34.476V-7.826H32.058V-9.035Zm4.6,9.152a3.668,3.668,0,0,1-1.833-.462,3.315,3.315,0,0,1-1.287-1.3,3.921,3.921,0,0,1-.468-1.943,3.846,3.846,0,0,1,.481-1.937,3.322,3.322,0,0,1,1.313-1.3A3.81,3.81,0,0,1,43.03-7.28a3.81,3.81,0,0,1,1.859.455,3.322,3.322,0,0,1,1.313,1.3,3.846,3.846,0,0,1,.481,1.937,3.766,3.766,0,0,1-.494,1.937A3.421,3.421,0,0,1,44.843-.345,3.878,3.878,0,0,1,42.965.117Zm0-1.287a2.205,2.205,0,0,0,1.072-.273,2.08,2.08,0,0,0,.813-.819,2.633,2.633,0,0,0,.312-1.326,2.688,2.688,0,0,0-.3-1.319,2.018,2.018,0,0,0-.793-.812A2.169,2.169,0,0,0,43-5.993a2.132,2.132,0,0,0-1.059.273,1.949,1.949,0,0,0-.774.813,2.788,2.788,0,0,0-.286,1.319A2.513,2.513,0,0,0,41.476-1.8,1.955,1.955,0,0,0,42.965-1.17Zm8.021-2.4L54.288,0h-2L49.634-3.081V0H48.152V-9.62h1.482v5.59l2.6-3.133h2.054Zm10.933-.182a4.633,4.633,0,0,1-.052.728H56.394a1.988,1.988,0,0,0,.637,1.378,2.011,2.011,0,0,0,1.4.52,1.734,1.734,0,0,0,1.69-1h1.6A3.227,3.227,0,0,1,60.548-.514a3.452,3.452,0,0,1-2.112.631A3.658,3.658,0,0,1,56.6-.345a3.283,3.283,0,0,1-1.274-1.3,3.966,3.966,0,0,1-.462-1.943,4.059,4.059,0,0,1,.449-1.944,3.154,3.154,0,0,1,1.261-1.293,3.753,3.753,0,0,1,1.866-.455,3.648,3.648,0,0,1,1.807.442A3.123,3.123,0,0,1,61.477-5.6,3.739,3.739,0,0,1,61.919-3.757Zm-1.547-.468a1.687,1.687,0,0,0-.585-1.313,2.092,2.092,0,0,0-1.417-.494,1.9,1.9,0,0,0-1.313.487,2.037,2.037,0,0,0-.65,1.319ZM66.989-7.28a3.212,3.212,0,0,1,1.515.351,2.5,2.5,0,0,1,1.047,1.04,3.421,3.421,0,0,1,.377,1.664V0H68.458V-4a2.079,2.079,0,0,0-.481-1.475,1.712,1.712,0,0,0-1.313-.514,1.733,1.733,0,0,0-1.32.514A2.061,2.061,0,0,0,64.857-4V0H63.375V-7.163h1.482v.819a2.453,2.453,0,0,1,.929-.689A2.971,2.971,0,0,1,66.989-7.28Z" transform="translate(1607 3328)" fill="#fff"/>
    <path id="Path_1188" data-name="Path 1188" d="M17.506-7.807l-7.449-7.449a1.938,1.938,0,0,0-1.193-.494H1.687A1.687,1.687,0,0,0,0-14.062v7.176A1.938,1.938,0,0,0,.494-5.693L7.943,1.756a1.688,1.688,0,0,0,2.386,0L17.506-5.42A1.688,1.688,0,0,0,17.506-7.807ZM9.137.562,1.687-6.886v-7.176H8.864l7.449,7.449ZM6.75-10.687a1.687,1.687,0,0,0-1.687-1.687,1.687,1.687,0,0,0-1.687,1.687A1.687,1.687,0,0,0,5.062-9,1.687,1.687,0,0,0,6.75-10.687Z" transform="translate(1540 3330)" fill="#fff"/>
  </g>
</svg>
