<?xml version="1.0" encoding="utf-8"?>
<!-- Generator: Adobe Illustrator 26.5.0, SVG Export Plug-In . SVG Version: 6.00 Build 0)  -->
<svg version="1.1" id="Layer_1" xmlns="http://www.w3.org/2000/svg" xmlns:xlink="http://www.w3.org/1999/xlink" x="0px" y="0px"
	 viewBox="0 0 78 78" style="enable-background:new 0 0 78 78;" xml:space="preserve">
<style type="text/css">
	.st0{fill-rule:evenodd;clip-rule:evenodd;fill:#CECFD1;}
	.st1{fill-rule:evenodd;clip-rule:evenodd;fill:#B3B4B6;}
	.st2{fill:#939496;}
	.st3{fill:#7A7B7D;}
	.st4{fill:#707173;}
	.st5{fill-rule:evenodd;clip-rule:evenodd;fill:#7A7B7D;}
	.st6{fill-rule:evenodd;clip-rule:evenodd;fill:#707173;}
</style>
<g>
	<rect x="0" class="st0" width="78" height="78"/>
	<path class="st1" d="M50.3,12.3c0-0.3-0.1-0.5-0.2-0.7c-0.2-0.5-0.9-0.4-0.9,0.1c0,0.9,0.1,1.8,0.1,2.8c0,0.5,0,0.9-0.1,1.4
		c0,0.1,0,0.3-0.1,0.3c-0.1,0.1-0.4,0.1-0.5,0.1c-1.9,0.2-3.8,0.3-5.8,0.3c-1.9,0-3.8-0.1-5.8-0.2c-0.1,0-0.3,0-0.4-0.1
		c-0.1-0.1-0.1-0.3-0.1-0.5c-0.1-0.4-0.1-0.9-0.1-1.4c0-0.9,0.1-1.9,0.2-2.8c0-0.3-0.4-0.4-0.5-0.1c-0.3,1-0.4,2-0.5,3
		c0,0.8-0.2,2.1,0.6,2.6c0.4,0.2,0.9,0.2,1.3,0.3c0.6,0.1,1.1,0.1,1.7,0.1c1.1,0.1,2.1,0.1,3.2,0.1c2.1,0,4.3-0.1,6.4-0.4
		c0.5-0.1,0.9-0.2,1.2-0.6s0.3-0.9,0.3-1.4C50.5,14.4,50.5,13.3,50.3,12.3z"/>
	<path class="st1" d="M18.1,15.4v-1.6c0-1.1,0-2.1-0.2-3.2c-0.1-0.4-0.8-0.4-0.9,0c-0.1,0.9-0.1,1.8-0.1,2.7c0,0.5,0,0.9,0,1.4
		c0,0.4,0.1,0.8,0,1.2c-0.1,0-0.1,0-0.2,0c-0.3,0-0.5,0-0.8,0.1c-0.5,0-0.9,0.1-1.4,0.1c-0.9,0.1-1.9,0.1-2.8,0.2
		c-1.8,0.1-3.7,0.4-5.5,0.3c-0.3,0-0.6-0.1-0.8-0.3c-0.3-0.3-0.3-0.8-0.3-1.2c-0.1-0.9,0-1.8,0.1-2.7c0-0.3-0.4-0.3-0.5-0.1
		c-0.3,1-0.4,2-0.4,3c0,0.5,0,0.9,0.2,1.3s0.6,0.6,1,0.7c0.4,0.2,0.8,0.2,1.3,0.2c0.5,0.1,1.1,0,1.6,0c1.1,0,2.1-0.1,3.2-0.2
		s2.1-0.1,3.2-0.2c0.5,0,1-0.1,1.5-0.1s1,0,1.4-0.4C18.1,16.3,18.1,15.8,18.1,15.4z"/>
	<path class="st1" d="M37.2,4.2c-0.1-0.4-0.2-0.7-0.3-1.1C36.7,2.7,36,2.7,36,3.2c0,0.9,0.2,1.8,0.2,2.7c0,0.5,0,0.9-0.1,1.4v0.1
		c0,0,0,0-0.1,0c-0.2,0-0.4,0-0.6,0c-2,0.1-3.9,0.1-5.9,0.1c-1,0-2,0-3,0c-0.8,0-1.7,0.1-2.4-0.2c-0.8-0.2-0.7-1.3-0.7-2
		c0-1,0.1-1.9,0.1-2.8c0-0.3-0.4-0.3-0.5-0.1c-0.4,1-0.5,2-0.5,3c0,0.9,0,1.9,0.7,2.5s1.6,0.6,2.4,0.6c1.1,0,2.1,0.1,3.2,0.1
		c2.1,0,4.3,0,6.4-0.1c0.4,0,0.9,0,1.3-0.2c0.5-0.2,0.6-0.7,0.7-1.2C37.4,6.3,37.4,5.2,37.2,4.2z"/>
	<path class="st1" d="M71.4,23.3c-0.1-0.5-0.2-1-0.4-1.5c-0.2-0.7-0.4-1.5-0.9-2c-0.3-0.3-0.8-0.1-0.8,0.3s0.2,0.8,0.3,1.3
		c0.2,0.4,0.3,0.9,0.4,1.4c0.1,0.4,0.2,0.9,0.3,1.3c0,0.4-0.1,0.4-0.4,0.4c-1,0.1-2,0-3,0.1c-1,0-2.1,0-3.1,0.1c-1,0-2,0-3,0.1
		c-0.5,0-1,0-1.5,0c-0.4,0-0.9,0.1-1.3,0c-0.3-0.1-0.4-0.3-0.4-0.6c0-0.4,0-0.9,0-1.4c0-1,0-2.1,0-3.1c0-0.3-0.5-0.4-0.5-0.1
		c-0.2,1.1-0.3,2.1-0.4,3.2c-0.1,0.8-0.3,1.9,0.3,2.6s1.8,0.5,2.7,0.5c1.1,0,2.1,0,3.2-0.1c2.1,0,4.3-0.1,6.4-0.1c0.9,0,2,0,2.3-1.1
		C71.6,24.2,71.5,23.7,71.4,23.3z"/>
	<path class="st1" d="M58.4,29.8c-0.1-0.4-0.3-0.8-0.5-1.1c-0.2-0.4-0.9-0.2-0.8,0.2c0.1,0.4,0.1,0.9,0.2,1.3
		c0.1,0.4,0.2,0.8,0.2,1.3c0,0.4,0.1,0.9,0.1,1.3c0,0.3,0,0.6-0.3,0.7c-0.4,0.1-0.9,0-1.3,0.1c-0.5,0-1,0-1.5,0.1c-1,0-2,0.1-3,0.1
		s-2,0.1-3,0.1c-0.9,0-1.9,0.1-2.8-0.1c-0.3-0.1-0.6-0.2-0.7-0.4c-0.2-0.4-0.1-0.9-0.2-1.3c0-0.5,0-0.9,0-1.4s0-1,0-1.5
		c0-0.3-0.4-0.3-0.5-0.1c-0.1,0.5-0.2,1-0.3,1.5c0,0.4,0,0.9-0.1,1.5c0,0.9,0,1.9,0.8,2.5c0.3,0.2,0.8,0.3,1.2,0.3
		C46.4,35,47,35,47.5,35c1.1,0,2.1-0.1,3.2-0.1c2.1-0.1,4.3-0.1,6.4-0.2c0.5,0,0.9-0.2,1.2-0.6c0.3-0.4,0.3-0.8,0.3-1.2
		C58.8,31.8,58.6,30.8,58.4,29.8z"/>
	<path class="st1" d="M26.2,32.1c0-1.1-0.1-2.1-0.4-3.1c-0.1-0.5-0.9-0.4-0.9,0.1c0,0.9,0.1,1.8,0.1,2.6c0,0.4,0.1,0.9,0,1.3
		c0,0.2-0.4,0.3-0.6,0.3c-0.9,0.1-1.7,0.1-2.6,0.1s-1.9,0-2.8,0s-1.8,0-2.7,0c-0.5,0-0.9,0-1.4,0c-0.4,0-0.8,0-1.3-0.1
		c-0.6-0.2-0.7-1-0.7-1.4c-0.1-0.9,0-1.8-0.1-2.7c0-0.3-0.4-0.4-0.5-0.1C12.1,30,12.1,31,12,32c0,0.8,0.2,1.6,0.8,2.1
		c0.4,0.3,0.8,0.4,1.3,0.4c0.5,0.1,1.1,0.1,1.6,0.1c1.1,0,2.2,0,3.2,0.1c1,0,2.1,0,3.1,0c0.5,0,1,0,1.6-0.1c0.5,0,0.9,0,1.4-0.1
		c0.4-0.1,0.7-0.4,0.9-0.7C26.3,33.2,26.2,32.6,26.2,32.1z"/>
	<path class="st1" d="M38.5,20.5c0-0.2-0.1-0.3-0.2-0.5c-0.2-0.5-0.9-0.4-0.9,0.1c-0.1,0.9,0.1,1.8,0.1,2.7c0,0.4,0,0.9,0,1.3
		c0,0.3-0.1,0.6-0.2,0.8c-0.2,0.3-0.6,0.3-0.9,0.3c-0.5,0-0.9,0-1.4,0.1c-1,0-2,0-2.9,0s-1.9,0-2.8-0.1c-0.9,0-1.8,0-2.6-0.2
		c-0.3,0-0.6-0.1-0.7-0.4c-0.2-0.4-0.1-0.8-0.1-1.2c0-1,0-1.9,0-2.9c0-0.3-0.4-0.3-0.5-0.1c-0.3,1-0.3,2.1-0.4,3.1
		c-0.1,0.9,0,1.9,0.9,2.3c0.4,0.2,0.8,0.2,1.2,0.3c0.6,0.1,1.1,0.1,1.7,0.1c1.1,0.1,2.1,0.1,3.2,0.1s2.1,0,3.2,0c0.5,0,1,0,1.5-0.1
		c0.5,0,1-0.1,1.4-0.4c0.7-0.6,0.8-1.5,0.9-2.4C38.7,22.6,38.6,21.5,38.5,20.5z"/>
	<path class="st1" d="M51.5,37.7c-0.2-0.5-0.9-0.4-0.9,0.1c-0.1,1,0,1.9-0.2,2.9c0,0.2-0.1,0.5-0.2,0.7c0,0.1-0.1,0.2-0.1,0.3
		c0,0-0.1,0.1,0,0.1c-0.1,0.1-0.4,0-0.5,0c-0.3,0-0.6,0-0.9,0c-2.1,0-4.2,0-6.3,0c-1,0-2.1,0-3.1,0s-2.1,0-3.1-0.1
		c-0.4-0.1-0.7-0.2-0.8-0.5c-0.2-0.4-0.1-0.9-0.2-1.4c0-1,0.1-2,0.2-3.1c0-0.3-0.4-0.3-0.4-0.1c-0.4,1-0.5,2-0.6,3
		c-0.1,0.9-0.1,1.9,0.5,2.6c0.3,0.3,0.8,0.5,1.2,0.5c0.5,0.1,1.1,0.1,1.6,0.2c1.1,0.1,2.1,0,3.2,0h6.4c0.5,0,1,0,1.5,0
		s1,0.1,1.5-0.1c0.5-0.1,0.7-0.5,0.9-0.9c0.2-0.5,0.3-1,0.3-1.5C51.7,39.6,51.8,38.6,51.5,37.7z"/>
	<path class="st1" d="M41,47c-0.1-0.5-0.2-1-0.3-1.5c-0.2-0.5-0.9-0.4-0.9,0.1c0,1,0.1,1.9,0.1,2.9c0,0.5,0,0.9,0,1.4
		c0,0.2,0,0.4,0,0.6c-0.1,0-0.2,0-0.3,0c-2,0.1-4,0.2-6.1,0.3c-1,0-2,0.1-3,0.1c-0.8,0-1.7,0.2-2.4,0c-0.8-0.2-0.8-1-0.8-1.7
		c0-1,0-2,0-3c0-0.3-0.5-0.4-0.5-0.1c-0.3,1-0.4,2.1-0.4,3.1c0,0.9,0,1.9,0.8,2.5c0.7,0.5,1.6,0.5,2.4,0.5c1.1,0,2.2-0.1,3.2-0.1
		c2.2-0.1,4.3-0.2,6.5-0.3c0.4,0,1.1,0,1.4-0.2c0.4-0.3,0.4-0.8,0.5-1.3C41.2,49.1,41.2,48,41,47z"/>
	<path class="st1" d="M17.9,40.9c-0.1-1.1-0.1-2.2-0.4-3.2c-0.1-0.4-0.8-0.5-0.9,0c-0.1,0.9,0,1.8,0.1,2.7c0,0.4,0.1,0.8,0.1,1.2
		c0,0.3-0.1,0.4-0.4,0.4c-1.8,0.2-3.6,0.3-5.5,0.3c-1.7,0.1-3.5,0.1-5.1-0.3c-0.4,0-0.7,0-0.9-0.3s-0.2-0.8-0.2-1.2
		c-0.1-0.9-0.1-1.8-0.1-2.7c0-0.3-0.4-0.3-0.5-0.1c-0.2,1-0.3,1.9-0.3,2.9c0,0.9,0.1,1.8,1,2.3c0.9,0.4,1.9,0.5,2.9,0.6s2.1,0,3.1,0
		s2-0.1,3.1-0.1c0.5,0,1-0.1,1.5-0.1s1,0,1.5-0.2C17.9,42.8,18,41.8,17.9,40.9z"/>
	<path class="st1" d="M69.7,47.4c0-0.4-0.1-0.8-0.3-1.2c-0.2-0.5-0.9-0.4-0.9,0.1c0,0.9,0.1,1.8,0.1,2.7c0,0.5,0,0.9-0.1,1.4
		c0,0.3,0,0.7-0.3,0.7c-0.2,0-0.3,0-0.5,0c-0.3,0-0.5,0-0.8,0c-0.5,0-1,0-1.5,0c-1,0-2,0-3,0s-2,0-3-0.1c-0.8,0-1.8,0-2.6-0.2
		c-0.7-0.2-0.8-1.1-0.8-1.7c0-0.9,0-1.9,0.2-2.8c0-0.3-0.4-0.5-0.5-0.1c-0.3,1-0.5,2-0.6,3c-0.1,0.8,0,1.8,0.7,2.4
		c0.7,0.6,1.7,0.6,2.6,0.7c1.1,0.1,2.1,0.1,3.2,0.1c2.1,0.1,4.3,0.1,6.4,0c0.4,0,0.9-0.1,1.2-0.5c0.3-0.4,0.4-0.9,0.4-1.3
		C69.8,49.5,69.8,48.4,69.7,47.4z"/>
	<path class="st1" d="M47.6,58.4c0-1-0.1-2.1-0.2-3.1c0-0.3-0.1-0.7-0.2-1c-0.1-0.5-0.8-0.4-0.9,0.1c-0.1,0.9,0,1.9,0.1,2.8
		c0,0.4,0.1,0.9,0.1,1.3c0,0.2,0,0.6-0.2,0.7c-0.1,0.1-0.3,0.1-0.5,0.1c-0.3,0-0.5,0-0.8,0h-1.4c-1,0-2,0-3,0
		c-1.9,0-3.8,0.1-5.7,0.1c-0.3,0-0.6,0-0.8-0.4C34,58.8,34,58.3,34,58c0-0.9,0.1-1.8,0.2-2.8c0-0.2-0.4-0.4-0.5-0.1
		C33.3,56,33.2,57,33.1,58c-0.1,0.9,0,1.8,0.8,2.4c0.4,0.2,0.8,0.3,1.3,0.3s1.1,0,1.6,0c1.1,0,2.1,0,3.2,0h3.2c1,0,2.1,0.1,3.2-0.1
		C47.3,60.2,47.6,59.2,47.6,58.4z"/>
	<path class="st1" d="M65.2,54.3c-0.2-0.5-0.9-0.4-0.9,0.1c0,1,0.1,2.1,0.1,3.1c0,0.5,0,1-0.1,1.5c0,0.3-0.1,0.6-0.4,0.6
		c-0.5,0-1,0-1.5,0c-0.6,0-1.1,0-1.7,0c-1.1,0-2.1,0-3.2,0c-2.1,0-4.3-0.1-6.4-0.2c-0.5,0-1,0-1.4-0.1c-0.3-0.1-0.3-0.6-0.4-0.8
		c-0.1-1.1-0.1-2.1-0.1-3.2c0-0.2,0-0.3,0-0.5c0-0.3-0.4-0.4-0.5-0.1c-0.3,1-0.3,2.1-0.3,3.2c0,0.8,0,1.7,0.7,2.3
		c0.4,0.3,0.9,0.2,1.4,0.3c0.6,0,1.1,0.1,1.7,0.1c1.1,0.1,2.1,0.1,3.2,0.1c2.1,0.1,4.3,0.1,6.4,0.1c0.5,0,1,0,1.5,0s1,0,1.4-0.2
		c0.8-0.5,0.8-1.7,0.8-2.5C65.6,56.8,65.6,55.5,65.2,54.3z"/>
	<path class="st1" d="M71,64.6c-0.1-0.5-0.1-1.1-0.4-1.6c-0.2-0.4-0.8-0.2-0.8,0.2c-0.1,0.5,0,1,0.1,1.5s0.1,1,0.1,1.5
		s-0.1,1-0.1,1.4c0,0.1,0,0.2-0.1,0.2l0,0c-0.3,0-0.6,0-0.9,0.1c-2.1,0.1-4.3,0.2-6.4,0.2c-2.1,0-4.3,0-6.4-0.1
		c-0.3,0-0.7-0.1-0.9-0.3C55,67.4,55,67,55,66.6c0-1,0.1-2.1,0.1-3.1c0-0.3-0.4-0.4-0.5-0.1c-0.3,1-0.4,2-0.5,3.1
		c-0.1,0.8,0,1.8,0.7,2.3c0.8,0.5,1.9,0.4,2.8,0.4c1.1,0,2.2,0,3.2,0c2.2,0,4.3,0,6.5-0.1c0.5,0,1-0.1,1.5-0.1c0.3,0,0.5,0,0.8,0
		s0.6,0,0.9-0.2c0.4-0.3,0.5-0.6,0.6-1.1s0.1-1.1,0.1-1.6C71.1,65.7,71,65.2,71,64.6z"/>
	<path class="st1" d="M23.9,67.8c0-0.3-0.1-0.6-0.1-0.9c-0.1-1.1-0.2-2.1-0.4-3.2c-0.1-0.7-0.2-1.4-0.4-2.1
		c-0.1-0.5-0.9-0.4-0.9,0.1c0,1,0.2,2,0.3,3c0.1,1,0.2,2,0.3,3c0,0.1,0,0.2,0,0.3c-0.2,0-0.5,0-0.7,0c-0.5,0-1,0-1.6,0
		c-1,0-2.1,0-3.1,0s-2.1,0-3.1,0s-2,0-3-0.1c-0.3,0-0.5-0.1-0.6-0.5c-0.1-0.5,0-1,0-1.4c0-0.5,0-1,0-1.5s0-1,0-1.5
		c0-0.3-0.4-0.2-0.5,0c-0.2,0.5-0.2,1-0.3,1.5c-0.1,0.6-0.1,1.1-0.2,1.7c-0.1,0.9-0.3,2.1,0.6,2.6c0.4,0.2,0.8,0.3,1.2,0.3
		c0.6,0,1.1,0.1,1.7,0.1c1.1,0,2.1,0,3.2,0c2.2,0,4.3,0,6.5-0.1c0.5,0,0.9-0.2,1.1-0.7C24,68.2,23.9,68,23.9,67.8z"/>
	<path class="st1" d="M29.1,73.7c0-0.4-0.1-0.8-0.1-1.1c-0.1-0.4-0.8-0.4-0.9,0c-0.2,1-0.2,1.9-0.2,2.9c0,0.2,0,0.4,0,0.6
		c0,0.1,0,0.2,0,0.4c-0.5,0-0.9,0-1.4,0c-2,0-3.9,0.1-5.9,0.1c-1,0-2,0-3,0c-0.9,0-1.9,0.1-2.8-0.1c-0.8-0.1-0.6-1.2-0.6-1.7
		c0-1-0.1-2-0.1-3c0-0.3-0.4-0.3-0.5,0c-0.1,1.1-0.3,2.1-0.3,3.2c-0.1,0.9-0.1,1.8,0.7,2.4c0.3,0.2,0.8,0.3,1.2,0.3c0.5,0,1,0,1.6,0
		c1.1,0,2.1,0,3.2,0c2.1,0,4.3,0,6.4-0.1c0.5,0,1,0,1.5,0s1-0.2,1.1-0.8c0.1-0.2,0-0.5,0-0.7c0-0.3,0-0.5,0-0.8
		C29.1,74.8,29.1,74.2,29.1,73.7z"/>
	<path class="st1" d="M60.7,76.1c-0.1-1-0.3-2.1-0.5-3.1c-0.1-0.3-0.1-0.5-0.2-0.7c-0.2-0.5-0.9-0.4-0.9,0.1c0,0.9,0.2,1.9,0.3,2.8
		c0,0.2,0.1,0.4,0.1,0.6c0,0.1,0,0.3,0.1,0.4v0.1c-0.1,0-0.2,0-0.3,0c-0.3,0-0.5,0-0.8,0c-1.9,0.1-3.9,0.2-5.8,0.2
		c-0.9,0-1.9,0-2.8,0c-0.5,0-0.9,0-1.4,0c-0.4,0-0.8,0-1.2-0.1c-0.3-0.1-0.4-0.3-0.4-0.6c0-0.5-0.1-0.9-0.1-1.4c0-1,0.1-1.9,0-2.9
		c0-0.3-0.4-0.4-0.5-0.1c-0.3,1-0.4,2.1-0.4,3.1c0,0.9-0.2,2.1,0.6,2.7c0.7,0.5,1.8,0.4,2.7,0.4c1.1,0,2.2,0,3.2,0
		c2.2,0,4.3-0.1,6.5-0.2c0.4,0,0.9,0,1.3-0.1C60.6,77.2,60.8,76.7,60.7,76.1z"/>
	<path class="st2" d="M74.9,6.7c-0.5,0-1.1-0.1-1.6-0.1c-0.6-0.1-1.3-0.1-1.9-0.2c-0.2,0-0.3-0.2-0.4-0.4c-0.1-0.3-0.2-0.6-0.3-0.9
		c-0.1-0.5-0.2-1.1-0.2-1.6s0-1,0-1.5c0-0.4,0-0.7,0-1.1c0,0,0,0,0.1,0c1.1-0.1,2.2-0.2,3.3-0.3c1.2,0,2.3,0,3.5,0
		c0.2,0,0.4,0,0.6,0V7c-0.4,0-0.7,0-1.1,0C76.2,6.9,75.5,6.8,74.9,6.7z"/>
	<path class="st3" d="M75.2,8.2c-1.4,0-2.9,0-4.3,0c-0.1,0-0.2,0-0.3,0c-0.4-0.1-0.5-0.4-0.6-0.7c-0.2-0.5-0.2-1-0.2-1.5
		c0-1.2,0-2.4,0-3.6c0-0.3,0-0.7,0.1-1s0.3-0.4,0.5-0.5c0,0.4,0,0.7,0,1.1c0,0.5,0,1,0,1.5s0.1,1.1,0.2,1.6c0.1,0.3,0.1,0.6,0.3,0.9
		c0.1,0.2,0.2,0.4,0.4,0.4c0.6,0.1,1.2,0.2,1.9,0.2c0.5,0.1,1.1,0.1,1.6,0.1c0.7,0.1,1.4,0.1,2.1,0.2c0.4,0,0.7,0,1.1,0v1.3l0,0
		C77.1,8.2,76.1,8.2,75.2,8.2z"/>
	<path class="st2" d="M42.4,75.9c-0.4,0-0.9,0.1-1.3,0.1c-0.2,0-0.3,0-0.5,0.1c-0.3,0-0.7,0-1,0c-0.4,0-0.7,0-1.1,0
		c-0.5,0-1.1,0-1.6,0c-0.7,0-1.4-0.1-2.1-0.2c-0.5,0-1.1-0.1-1.6-0.1c-0.6-0.1-1.3-0.1-1.9-0.2c-0.2,0-0.3-0.2-0.4-0.4
		c-0.1-0.3-0.2-0.6-0.3-0.9c-0.1-0.5-0.2-1.1-0.2-1.6s0-1,0-1.5c0-0.4,0-0.7,0-1.1c0,0,0,0,0.1,0c1.1-0.1,2.2-0.2,3.3-0.3
		c1.2,0,2.3,0,3.5,0c0.7,0,1.4,0,2.1,0c1.1,0,2.2,0.1,3.3,0.2c0.5,0,1,0,1.4,0.3c0.3,0.1,0.4,0.3,0.5,0.6c0.1,0.4,0.1,0.8,0.1,1.2
		c0,1.1,0,2.3-0.1,3.4c-0.3,0.1-0.6,0.2-0.8,0.2C43.4,75.7,42.9,75.8,42.4,75.9z"/>
	<path class="st3" d="M29.9,70.6c0.1-0.3,0.3-0.4,0.5-0.5c0,0.4,0,0.7,0,1.1c0,0.5,0,1,0,1.5s0.1,1.1,0.2,1.6
		c0.1,0.3,0.1,0.6,0.3,0.9c0.1,0.2,0.2,0.4,0.4,0.4c0.6,0.1,1.2,0.2,1.9,0.2c0.5,0.1,1.1,0.1,1.6,0.1c0.7,0.1,1.4,0.1,2.1,0.2
		c0.5,0,1.1,0,1.6,0c0.4,0,0.7,0,1.1,0c0.3,0,0.7,0,1,0c0.2,0,0.3,0,0.5-0.1c0.4-0.1,0.9-0.1,1.3-0.2c0.5-0.1,0.9-0.1,1.4-0.2
		c0.3-0.1,0.6-0.1,0.8-0.2c-0.1,0.4-0.1,0.8-0.3,1.2c-0.1,0.3-0.2,0.5-0.5,0.5c-0.5,0.1-1,0.2-1.5,0.2c-1.5,0-3,0.1-4.4,0.1
		c-0.9,0-1.8,0-2.7,0c-1.4,0-2.9,0-4.3,0c-0.1,0-0.2,0-0.3,0c-0.4-0.1-0.5-0.4-0.6-0.7c-0.2-0.5-0.2-1-0.2-1.5c0-1.2,0-2.4,0-3.6
		C29.8,71.2,29.8,70.9,29.9,70.6z"/>
	<path class="st2" d="M21.5,67.2c-0.4,0.1-0.8,0.1-1.2,0.2c-0.2,0-0.3,0-0.5,0.1c-0.3,0-0.6,0-0.9,0s-0.6,0-0.9,0
		c-0.5,0-0.9,0-1.4,0c-0.6,0-1.2-0.1-1.8-0.2c-0.5,0-1-0.1-1.5-0.1c-0.6-0.1-1.1-0.1-1.7-0.2c-0.1,0-0.3-0.2-0.4-0.4
		C11.1,66.3,11,66,11,65.7c-0.1-0.5-0.2-1.1-0.2-1.6s0-1,0-1.5c0-0.4,0-0.7,0-1.1l0,0c1-0.1,2-0.2,3-0.3c1,0,2.1,0,3.1,0
		c0.6,0,1.3,0,1.9,0c1,0,2,0.1,3,0.2c0.4,0,0.8,0,1.2,0.3c0.2,0.1,0.4,0.3,0.4,0.6c0,0.4,0.1,0.8,0.1,1.2c0,1.1,0,2.3,0,3.4
		c-0.3,0.1-0.5,0.2-0.8,0.2C22.3,67.1,21.9,67.1,21.5,67.2z"/>
	<path class="st3" d="M10.3,61.9c0.1-0.3,0.2-0.4,0.5-0.5c0,0.4,0,0.7,0,1.1c0,0.5,0,1,0,1.5s0.1,1.1,0.2,1.6
		c0.1,0.3,0.1,0.6,0.2,0.9c0.1,0.2,0.2,0.4,0.4,0.4c0.5,0.1,1.1,0.2,1.7,0.2c0.5,0.1,1,0.1,1.5,0.1c0.6,0.1,1.2,0.1,1.8,0.2
		c0.5,0,0.9,0,1.4,0c0.3,0,0.6,0,0.9,0s0.6,0,0.9,0c0.2,0,0.3,0,0.5-0.1c0.4-0.1,0.8-0.1,1.2-0.2c0.4-0.1,0.8-0.1,1.3-0.2
		c0.3-0.1,0.5-0.1,0.8-0.2c-0.1,0.4-0.1,0.8-0.2,1.2c-0.1,0.3-0.2,0.5-0.5,0.5c-0.5,0.1-0.9,0.2-1.4,0.2c-1.3,0-2.6,0.1-4,0.1
		c-0.8,0-1.6,0-2.4,0c-1.3,0-2.6,0-3.9,0c-0.1,0-0.2,0-0.2,0c-0.3-0.1-0.4-0.4-0.6-0.7c-0.2-0.5-0.2-1-0.2-1.5c0-1.2,0-2.4,0-3.6
		C10.2,62.6,10.2,62.2,10.3,61.9z"/>
	<path class="st2" d="M30.4,58.7c-0.4,0.1-0.9,0.1-1.3,0.2c-0.2,0-0.3,0-0.5,0.1c-0.3,0-0.7,0-1,0c-0.4,0-0.7,0-1.1,0
		c-0.5,0-1.1,0-1.6,0c-0.7,0-1.4-0.1-2.1-0.2c-0.5,0-1.1-0.1-1.6-0.1c-0.6-0.1-1.3-0.1-1.9-0.2c-0.2,0-0.3-0.2-0.4-0.4
		c-0.1-0.3-0.2-0.6-0.3-0.9c-0.1-0.5-0.2-1.1-0.2-1.6s0-1,0-1.5c0-0.4,0-0.7,0-1.1c0,0,0,0,0.1,0c1.1-0.1,2.2-0.2,3.3-0.3
		c1.2,0,2.3,0,3.5,0c0.7,0,1.4,0,2.1,0c1.1,0,2.2,0.1,3.3,0.2c0.5,0,1,0,1.4,0.3c0.3,0.1,0.4,0.3,0.5,0.6c0.1,0.4,0.1,0.8,0.1,1.2
		c0,1.1,0,2.3-0.1,3.4c-0.3,0.1-0.6,0.2-0.8,0.2C31.3,58.5,30.8,58.6,30.4,58.7z"/>
	<path class="st3" d="M18.8,60.2c-0.1,0-0.2,0-0.3,0c-0.4-0.1-0.5-0.4-0.6-0.7c-0.2-0.5-0.2-1-0.2-1.5c0-1.2,0-2.4,0-3.6
		c0-0.3,0-0.7,0.1-1s0.3-0.4,0.5-0.5c0,0.4,0,0.7,0,1.1c0,0.5,0,1,0,1.5s0.1,1.1,0.2,1.6c0.1,0.3,0.1,0.6,0.3,0.9
		c0.1,0.2,0.2,0.4,0.4,0.4c0.6,0.1,1.2,0.2,1.9,0.2c0.5,0.1,1.1,0.1,1.6,0.1c0.7,0.1,1.4,0.1,2.1,0.2c0.5,0,1.1,0,1.6,0
		c0.4,0,0.7,0,1.1,0c0.3,0,0.7,0,1,0c0.2,0,0.3,0,0.5-0.1c0.4-0.1,0.9-0.1,1.3-0.2c0.5-0.1,0.9-0.1,1.4-0.2c0.3-0.1,0.6-0.1,0.8-0.2
		c-0.1,0.4-0.1,0.8-0.3,1.2c-0.1,0.3-0.2,0.5-0.5,0.5c-0.5,0.1-1,0.2-1.5,0.2c-1.5,0-3,0.1-4.4,0.1c-0.9,0-1.8,0-2.7,0
		C21.7,60.2,20.3,60.2,18.8,60.2z"/>
	<path class="st2" d="M75.8,49.8c-0.5,0-1.1-0.1-1.6-0.1c-0.6-0.1-1.3-0.1-1.9-0.2c-0.2,0-0.3-0.2-0.4-0.4c-0.1-0.3-0.2-0.6-0.3-0.9
		c-0.1-0.5-0.2-1.1-0.2-1.6s0-1,0-1.5c0-0.4,0-0.7,0-1.1c0,0,0,0,0.1,0c1.1-0.1,2.2-0.2,3.3-0.3c1.1,0,2.1,0,3.2,0V50h-0.1
		C77.2,49.9,76.5,49.8,75.8,49.8z"/>
	<path class="st3" d="M71.9,51.3c-0.1,0-0.2,0-0.3,0c-0.4-0.1-0.5-0.4-0.6-0.7c-0.2-0.5-0.2-1-0.2-1.5c0-1.2,0-2.4,0-3.6
		c0-0.3,0-0.7,0.1-1s0.3-0.4,0.5-0.5c0,0.4,0,0.7,0,1.1c0,0.5,0,1,0,1.5s0.1,1.1,0.2,1.6c0.1,0.3,0.1,0.6,0.3,0.9
		c0.1,0.2,0.2,0.4,0.4,0.4c0.6,0.1,1.2,0.2,1.9,0.2c0.5,0.1,1.1,0.1,1.6,0.1c0.7,0.1,1.4,0.1,2.1,0.2H78v1.3c-0.6,0-1.2,0-1.8,0
		C74.8,51.2,73.3,51.3,71.9,51.3z"/>
	<path class="st2" d="M60.1,35c0.7,0,1.4,0,2,0c1.1,0,2.1,0.1,3.2,0.2c0.5,0,0.9,0,1.3,0.3c0.2,0.1,0.4,0.3,0.4,0.6
		c0,0.4,0.1,0.8,0.1,1.2c0,1.1,0,2.3-0.1,3.4c-0.3,0.1-0.5,0.2-0.8,0.2c-0.4,0.1-0.9,0.2-1.3,0.2c-0.4,0.1-0.9,0.1-1.3,0.2
		c-0.2,0-0.3,0-0.5,0.1c-0.3,0-0.7,0-1,0s-0.7,0-1,0c-0.5,0-1,0-1.5,0c-0.7,0-1.3-0.1-2-0.2c-0.5,0-1-0.1-1.5-0.1
		c-0.6-0.1-1.2-0.1-1.8-0.2c-0.2,0-0.3-0.2-0.4-0.4c-0.1-0.3-0.2-0.6-0.2-0.9c-0.1-0.5-0.2-1.1-0.2-1.6s0-1,0-1.5c0-0.4,0-0.7,0-1.1
		c0,0,0,0,0.1,0c1.1-0.1,2.1-0.2,3.2-0.3C57.9,35,59,35.1,60.1,35z"/>
	<path class="st3" d="M53.6,37.9c0,0.5,0.1,1.1,0.2,1.6c0.1,0.3,0.1,0.6,0.2,0.9c0.1,0.2,0.2,0.4,0.4,0.4c0.6,0.1,1.2,0.2,1.8,0.2
		c0.5,0.1,1,0.1,1.5,0.1c0.7,0.1,1.3,0.1,2,0.2c0.5,0,1,0,1.5,0c0.3,0,0.7,0,1,0s0.7,0,1,0c0.2,0,0.3,0,0.5-0.1
		c0.4-0.1,0.9-0.1,1.3-0.2c0.4-0.1,0.9-0.1,1.3-0.2c0.3-0.1,0.5-0.1,0.8-0.2c-0.1,0.5-0.1,1-0.2,1.4c-0.1,0.3-0.2,0.5-0.5,0.5
		c-0.5,0.1-1,0.2-1.5,0.2c-1.4,0-2.8,0.1-4.2,0.1c-0.9,0-1.7,0-2.6,0c-1.4,0-2.7,0-4.1,0c-0.1,0-0.2,0-0.2,0
		c-0.4-0.1-0.5-0.4-0.6-0.7C53,41.6,53,41,53,40.5c0-1.2,0-2.4,0-3.6c0-0.3,0-0.7,0.1-1s0.2-0.4,0.5-0.5c0,0.4,0,0.7,0,1.1
		C53.6,36.9,53.5,37.4,53.6,37.9z"/>
	<path class="st2" d="M22.1,24.1c-0.4,0.1-0.9,0.1-1.3,0.2c-0.2,0-0.3,0-0.5,0.1c-0.3,0-0.7,0-1,0c-0.4,0-0.7,0-1.1,0
		c-0.5,0-1.1,0-1.6,0c-0.7,0-1.4-0.1-2.1-0.2c-0.5,0-1.1-0.1-1.6-0.1C12.3,24,11.6,24,11,23.9c-0.2,0-0.3-0.2-0.4-0.4
		c-0.1-0.3-0.2-0.6-0.3-0.9c-0.1-0.5-0.2-1.1-0.2-1.6s0-1,0-1.5c0-0.4,0-0.7,0-1.1c0,0,0,0,0.1,0c1.1-0.1,2.2-0.2,3.3-0.3
		c1.2,0,2.3,0,3.5,0c0.7,0,1.4,0,2.1,0c1.1,0,2.2,0.1,3.3,0.2c0.5,0,1,0,1.4,0.3c0.3,0.1,0.4,0.3,0.5,0.6c0.1,0.4,0.1,0.8,0.1,1.2
		c0,1.1,0,2.3-0.1,3.4C24,23.9,23.7,24,23.5,24C23.1,23.9,22.6,24,22.1,24.1z"/>
	<path class="st3" d="M9.6,18.8c0.1-0.3,0.3-0.4,0.5-0.5c0,0.4,0,0.7,0,1.1c0,0.5,0,1,0,1.5s0.1,1.1,0.2,1.6
		c0.1,0.3,0.1,0.6,0.3,0.9c0.1,0.2,0.2,0.4,0.4,0.4c0.6,0.1,1.2,0.2,1.9,0.2c0.5,0.1,1.1,0.1,1.6,0.1c0.7,0.1,1.4,0.1,2.1,0.2
		c0.5,0,1.1,0,1.6,0c0.4,0,0.7,0,1.1,0c0.3,0,0.7,0,1,0c0.2,0,0.3,0,0.5-0.1c0.4-0.1,0.9-0.1,1.3-0.2c0.5-0.1,0.9-0.1,1.4-0.2
		c0.3-0.1,0.6-0.1,0.8-0.2c-0.1,0.4-0.1,0.8-0.3,1.2c-0.1,0.3-0.2,0.5-0.5,0.5c-0.5,0.1-1,0.2-1.5,0.2c-1.5,0-3,0.1-4.4,0.1
		c-0.9,0-1.8,0-2.7,0c-1.4,0-2.9,0-4.3,0c-0.1,0-0.2,0-0.3,0c-0.4-0.1-0.5-0.4-0.6-0.7c-0.2-0.5-0.2-1-0.2-1.5c0-1.2,0-2.4,0-3.6
		C9.5,19.5,9.5,19.1,9.6,18.8z"/>
	<path class="st2" d="M70.4,23.6c-0.4,0.1-0.9,0.2-1.3,0.2c-0.4,0.1-0.9,0.1-1.3,0.2c-0.2,0-0.3,0-0.5,0.1c-0.3,0-0.7,0-1,0
		s-0.7,0-1,0c-0.5,0-1,0-1.5,0c-0.7,0-1.3-0.1-2-0.2c-0.5,0-1-0.1-1.5-0.1c-0.6-0.1-1.2-0.1-1.8-0.2c-0.2,0-0.3-0.2-0.4-0.4
		c-0.1-0.3-0.2-0.6-0.2-0.9c-0.1-0.5-0.2-1.1-0.2-1.6s0-1,0-1.5c0-0.4,0-0.7,0-1.1c0,0,0,0,0.1,0c1.1-0.1,2.1-0.2,3.2-0.3
		c1.1,0,2.2,0,3.3,0c0.7,0,1.4,0,2,0c1.1,0,2.1,0.1,3.2,0.2c0.5,0,0.9,0,1.3,0.3c0.2,0.1,0.4,0.3,0.4,0.6c0,0.4,0.1,0.8,0.1,1.2
		c0,1.1,0,2.3-0.1,3.4C70.9,23.5,70.6,23.6,70.4,23.6z"/>
	<path class="st3" d="M57.6,20.6c0,0.5,0.1,1.1,0.2,1.6c0.1,0.3,0.1,0.6,0.2,0.9c0.1,0.2,0.2,0.4,0.4,0.4c0.6,0.1,1.2,0.2,1.8,0.2
		c0.5,0.1,1,0.1,1.5,0.1c0.7,0.1,1.3,0.1,2,0.2c0.5,0,1,0,1.5,0c0.3,0,0.7,0,1,0s0.7,0,1,0c0.2,0,0.3,0,0.5-0.1
		c0.4-0.1,0.9-0.1,1.3-0.2s0.9-0.1,1.3-0.2c0.3-0.1,0.5-0.1,0.8-0.2c-0.1,0.4-0.1,0.8-0.2,1.2c-0.1,0.3-0.2,0.5-0.5,0.5
		c-0.5,0.1-1,0.2-1.5,0.2c-1.4,0-2.8,0.1-4.2,0.1c-0.9,0-1.7,0-2.6,0c-1.4,0-2.7,0-4.1,0c-0.1,0-0.2,0-0.2,0
		c-0.4-0.1-0.5-0.4-0.6-0.7c-0.2-0.5-0.2-1-0.2-1.5c0-1.2,0-2.4,0-3.6c0-0.3,0-0.7,0.1-1s0.2-0.4,0.5-0.5c0,0.4,0,0.7,0,1.1
		C57.6,19.6,57.6,20.1,57.6,20.6z"/>
	<path class="st2" d="M52,6.8c-0.7,0.1-1.4,0.1-2.2,0.1c-1,0-2,0-3.1,0c-0.4,0-0.8,0-1.2,0c-1,0-2,0-2.9-0.1c-0.8,0-1.7-0.1-2.5-0.2
		c-0.5,0-0.8-0.4-0.9-0.9C39,5.4,39,5.1,39,4.7c-0.1-0.7-0.1-1.4-0.1-2.1c0-0.3,0-0.6-0.1-0.9V1.6C38.9,1,39.4,0.7,40,0.7
		c0.7,0,1.4,0,2,0c2.1,0,4.2,0,6.2,0c1.2,0,2.4-0.1,3.6-0.1c0.4,0,0.8,0.1,1.2,0.1c0.5,0.1,0.7,0.4,0.8,0.9c0,0.7,0,1.5,0.1,2.2
		c-0.2,0.6-0.4,1.1-0.5,1.7C53.2,6.3,52.7,6.8,52,6.8z"/>
	<path class="st4" d="M53.7,7.3C53.6,7.7,53.4,7.9,53,8c-0.6,0.1-1.2,0.1-1.8,0.2c-1.4,0-2.8,0-4.3,0c-1.2,0-2.4,0-3.7,0
		c-1,0-2.1,0-3.1,0c-0.8,0-1.2-0.5-1.3-1.2c0-0.3-0.1-0.6-0.1-0.8c0-1.2-0.1-2.3-0.1-3.5c0-0.3,0.1-0.6,0.1-0.9
		c0,0.3,0.1,0.6,0.1,0.9c0,0.7,0.1,1.4,0.1,2.1c0,0.4,0.1,0.7,0.1,1.1c0.1,0.5,0.4,0.8,0.9,0.9C40.7,6.9,41.6,7,42.4,7
		c1,0.1,2,0.1,2.9,0.1c0.4,0,0.8,0,1.2,0c1,0,2,0,3.1,0c0.7,0,1.5-0.1,2.2-0.1c0.7-0.1,1.3-0.5,1.5-1.3C53.6,5,53.8,4.4,54,3.8
		c0,0.8,0,1.6-0.1,2.4C53.9,6.6,53.8,7,53.7,7.3z"/>
	<path class="st2" d="M27,75.9C26.3,76,25.6,76,24.8,76c-1,0-2,0-3,0c-0.4,0-0.8,0-1.2,0c-1,0-2,0-2.9-0.1c-0.8,0-1.7-0.1-2.5-0.2
		c-0.5,0-0.8-0.4-0.9-0.9c-0.1-0.4-0.1-0.7-0.1-1.1c0-0.7-0.1-1.4-0.1-2.1c0-0.3,0-0.6-0.1-0.9v-0.1c0.2-0.6,0.6-0.9,1.2-0.9
		c0.7,0,1.4,0,2,0c2.1,0,4.1,0,6.2,0c1.2,0,2.4-0.1,3.6-0.1c0.4,0,0.8,0.1,1.2,0.1c0.4,0.1,0.7,0.4,0.8,0.9c0,0.7,0,1.5,0.1,2.2
		c-0.2,0.6-0.4,1.1-0.5,1.7C28.2,75.4,27.7,75.9,27,75.9z"/>
	<path class="st4" d="M13.9,71.7c0,0.7,0.1,1.4,0.1,2.1c0,0.4,0.1,0.7,0.1,1.1c0.1,0.5,0.4,0.8,0.9,0.9c0.8,0.1,1.7,0.2,2.5,0.2
		c1,0.1,2,0.1,2.9,0.1c0.4,0,0.8,0,1.2,0c1,0,2,0,3,0c0.7,0,1.4-0.1,2.2-0.1c0.7-0.1,1.3-0.5,1.5-1.3c0.1-0.6,0.3-1.1,0.5-1.7
		c0,0.8,0,1.6-0.1,2.4c0,0.4-0.1,0.7-0.2,1.1s-0.3,0.6-0.7,0.6c-0.6,0.1-1.2,0.1-1.8,0.2c-1.4,0-2.8,0-4.3,0c-1.2,0-2.4,0-3.6,0
		c-1,0-2.1,0-3.1,0c-0.8,0-1.2-0.5-1.3-1.2c0-0.3-0.1-0.6-0.1-0.8c0-1.2-0.1-2.3-0.1-3.5c0-0.3,0.1-0.6,0.1-0.9
		C13.9,71.1,13.9,71.4,13.9,71.7z"/>
	<path class="st2" d="M68.8,67.3c-0.8,0.1-1.6,0.1-2.3,0.1c-1.1,0-2.2,0-3.3,0c-0.4,0-0.9,0-1.3,0c-1.1,0-2.1,0-3.2-0.1
		c-0.9,0-1.8-0.1-2.7-0.2c-0.6,0-0.9-0.4-1-0.9c-0.1-0.4-0.1-0.7-0.2-1.1c-0.1-0.7-0.1-1.4-0.1-2.1c0-0.3-0.1-0.6-0.1-0.9V62
		c0.2-0.6,0.6-0.9,1.3-0.9s1.5,0,2.2,0c2.2,0,4.5,0,6.7,0c1.3,0,2.6-0.1,3.9-0.1c0.4,0,0.9,0.1,1.3,0.1c0.5,0.1,0.8,0.4,0.8,0.9
		c0,0.7,0,1.5,0.1,2.2c-0.2,0.6-0.4,1.1-0.6,1.7C70.2,66.8,69.6,67.2,68.8,67.3z"/>
	<path class="st4" d="M70.6,67.8c-0.1,0.4-0.3,0.6-0.7,0.6c-0.7,0.1-1.3,0.1-2,0.2c-1.5,0-3.1,0-4.6,0c-1.3,0-2.6,0-4,0
		c-1.1,0-2.3,0-3.4,0c-0.9,0-1.3-0.5-1.4-1.2c0-0.3-0.1-0.6-0.1-0.8c0-1.2-0.1-2.3-0.1-3.5c0-0.3,0.1-0.6,0.1-0.9
		c0,0.3,0.1,0.6,0.1,0.9c0,0.7,0.1,1.4,0.1,2.1c0,0.4,0.1,0.7,0.2,1.1c0.1,0.5,0.4,0.8,1,0.9c0.9,0.1,1.8,0.2,2.7,0.2
		c1.1,0.1,2.1,0.1,3.2,0.1c0.4,0,0.9,0,1.3,0c1.1,0,2.2,0,3.3,0c0.8,0,1.6-0.1,2.3-0.1c0.8-0.1,1.4-0.5,1.6-1.3
		c0.2-0.6,0.4-1.1,0.6-1.7c0,0.8,0,1.6-0.1,2.4C70.8,67.1,70.7,67.4,70.6,67.8z"/>
	<path class="st2" d="M59.2,52.8c1.3,0,2.6-0.1,3.9-0.1c0.4,0,0.9,0.1,1.3,0.1c0.5,0.1,0.8,0.4,0.8,0.9c0,0.7,0,1.5,0.1,2.2
		c-0.2,0.6-0.4,1.1-0.6,1.7c-0.2,0.8-0.8,1.2-1.6,1.3S61.5,59,60.8,59c-1.1,0-2.2,0-3.3,0c-0.4,0-0.9,0-1.3,0c-1.1,0-2.1,0-3.2-0.1
		c-0.9,0-1.8-0.1-2.7-0.2c-0.6,0-0.9-0.4-1-0.9c-0.1-0.4-0.1-0.7-0.2-1.1C49,56,49,55.3,49,54.6c0-0.3-0.1-0.6-0.1-0.9v-0.1
		c0.2-0.6,0.6-0.9,1.3-0.9s1.5,0,2.2,0C54.7,52.8,56.9,52.8,59.2,52.8z"/>
	<path class="st4" d="M49.1,56.7c0,0.4,0.1,0.7,0.2,1.1c0.1,0.5,0.4,0.8,1,0.9c0.9,0.1,1.8,0.2,2.7,0.2c1,0.1,2.1,0.1,3.2,0.1
		c0.4,0,0.9,0,1.3,0c1.1,0,2.2,0,3.3,0c0.8,0,1.6-0.1,2.3-0.1c0.8-0.1,1.4-0.5,1.6-1.3c0.2-0.6,0.4-1.1,0.6-1.7c0,0.8,0,1.6-0.1,2.4
		c0,0.4-0.1,0.7-0.2,1.1c-0.1,0.4-0.3,0.6-0.7,0.6c-0.7,0.1-1.3,0.1-2,0.2c-1.5,0-3.1,0-4.6,0c-1.3,0-2.6,0-4,0c-1.1,0-2.3,0-3.4,0
		c-0.9,0-1.3-0.5-1.4-1.2c0-0.3-0.1-0.6-0.1-0.8c0-1.2-0.1-2.3-0.1-3.5c0-0.3,0.1-0.6,0.1-0.9c0,0.3,0.1,0.6,0.1,0.9
		C49,55.3,49,56,49.1,56.7z"/>
	<path class="st2" d="M23.4,50.2c-0.8,0.1-1.6,0.1-2.3,0.1c-1.1,0-2.2,0-3.3,0c-0.4,0-0.9,0-1.3,0c-1.1,0-2.1,0-3.2-0.1
		c-0.9,0-1.8-0.1-2.7-0.2c-0.6,0-0.9-0.4-1-0.9c-0.1-0.4-0.1-0.7-0.2-1.1c-0.1-0.7-0.1-1.4-0.1-2.1c0-0.3-0.1-0.6-0.1-0.9v-0.1
		c0.2-0.6,0.6-0.9,1.3-0.9s1.5,0,2.2,0c2.2,0,4.5,0,6.7,0c1.3,0,2.6-0.1,3.9-0.1c0.4,0,0.9,0.1,1.3,0.1c0.5,0.1,0.8,0.4,0.8,0.9
		c0,0.7,0,1.5,0.1,2.2c-0.2,0.6-0.4,1.1-0.6,1.7C24.7,49.7,24.1,50.1,23.4,50.2z"/>
	<path class="st4" d="M25.2,50.7c-0.1,0.4-0.3,0.6-0.7,0.6c-0.7,0.1-1.3,0.1-2,0.2c-1.5,0-3.1,0-4.6,0c-1.3,0-2.6,0-4,0
		c-1.1,0-2.3,0-3.4,0c-0.9,0-1.3-0.5-1.4-1.2C9.1,50,9,49.7,9,49.4c0-1.1,0-2.3,0-3.5c0-0.3,0.1-0.6,0.1-0.9c0,0.3,0.1,0.6,0.1,0.9
		c0,0.7,0.1,1.4,0.1,2.1c0,0.4,0.1,0.7,0.2,1.1c0.1,0.5,0.4,0.8,1,0.9c0.9,0.1,1.8,0.2,2.7,0.2c1.1,0.1,2.1,0.1,3.2,0.1
		c0.4,0,0.9,0,1.3,0c1.1,0,2.2,0,3.3,0c0.8,0,1.6-0.1,2.3-0.1c0.8-0.1,1.4-0.5,1.6-1.3c0.2-0.6,0.4-1.1,0.6-1.7c0,0.8,0,1.6-0.1,2.4
		C25.4,50,25.3,50.3,25.2,50.7z"/>
	<path class="st2" d="M42.8,26.6c0.5,0.1,0.8,0.4,0.8,0.9c0,0.7,0,1.5,0.1,2.2c-0.2,0.6-0.4,1.1-0.6,1.7c-0.2,0.8-0.8,1.2-1.6,1.3
		s-1.6,0.1-2.3,0.1c-1.1,0-2.2,0-3.3,0c-0.4,0-0.9,0-1.3,0c-1.1,0-2.1,0-3.2-0.1c-0.9,0-1.8-0.1-2.7-0.2c-0.6,0-0.9-0.4-1-0.9
		c-0.1-0.4-0.1-0.7-0.2-1.1c-0.1-0.7-0.1-1.4-0.1-2.1c0-0.3-0.1-0.6-0.1-0.9v-0.1c0.2-0.6,0.6-0.9,1.3-0.9c0.7,0,1.5,0,2.2,0
		c2.2,0,4.5,0,6.7,0c1.3,0,2.6-0.1,3.9-0.1C42,26.5,42.4,26.6,42.8,26.6z"/>
	<path class="st4" d="M27.5,30.5c0,0.4,0.1,0.7,0.2,1.1c0.1,0.5,0.4,0.8,1,0.9c0.9,0.1,1.8,0.2,2.7,0.2c1.1,0.1,2.1,0.1,3.2,0.1
		c0.4,0,0.9,0,1.3,0c1.1,0,2.2,0,3.3,0c0.8,0,1.6-0.1,2.3-0.1c0.8-0.1,1.4-0.5,1.6-1.3c0.2-0.6,0.4-1.1,0.6-1.7c0,0.8,0,1.6-0.1,2.4
		c0,0.4-0.1,0.7-0.2,1.1c-0.1,0.4-0.3,0.6-0.7,0.6c-0.7,0.1-1.3,0.1-2,0.2c-1.5,0-3.1,0-4.6,0c-1.3,0-2.6,0-4,0c-1.1,0-2.3,0-3.4,0
		c-0.9,0-1.3-0.5-1.4-1.2c0-0.3-0.1-0.6-0.1-0.8c0-1.2-0.1-2.3-0.1-3.5c0-0.3,0.1-0.6,0.1-0.9c0,0.3,0.1,0.6,0.1,0.9
		C27.5,29.1,27.5,29.8,27.5,30.5z"/>
	<path class="st2" d="M75,75c-0.1-0.4-0.1-0.7-0.2-1.1c-0.1-0.7-0.1-1.4-0.1-2.1c0-0.3-0.1-0.6-0.1-0.9v-0.1
		c0.2-0.6,0.6-0.9,1.3-0.9c0.7,0,1.4,0,2.1,0V76c-0.7,0-1.4-0.1-2.1-0.2C75.4,75.9,75.1,75.5,75,75z"/>
	<path class="st4" d="M76,77.3c-0.9,0-1.3-0.5-1.4-1.2c0-0.3-0.1-0.6-0.1-0.8c0-1.2-0.1-2.3-0.1-3.5c0-0.3,0.1-0.6,0.1-0.9
		c0,0.3,0.1,0.6,0.1,0.9c0,0.7,0.1,1.4,0.1,2.1c0,0.4,0.1,0.7,0.2,1.1c0.1,0.5,0.4,0.8,1,0.9c0.7,0.1,1.4,0.1,2.1,0.2v1.3
		C77.3,77.4,76.6,77.4,76,77.3z"/>
	<path class="st2" d="M49.3,41.3c-0.8,0.1-1.6,0.1-2.3,0.1c-1.1,0-2.2,0-3.3,0c-0.4,0-0.9,0-1.3,0c-1.1,0-2.1,0-3.2-0.1
		c-0.9,0-1.8-0.1-2.7-0.2c-0.6,0-0.9-0.4-1-0.9c-0.1-0.4-0.1-0.7-0.2-1.1c-0.1-0.7-0.1-1.4-0.1-2.1c0-0.3-0.1-0.6-0.1-0.9V36
		c0.2-0.6,0.6-0.9,1.3-0.9s1.5,0,2.2,0c2.2,0,4.5,0,6.7,0c1.3,0,2.6-0.1,3.9-0.1c0.4,0,0.9,0.1,1.3,0.1c0.5,0.1,0.8,0.4,0.8,0.9
		c0,0.7,0,1.5,0.1,2.2c-0.2,0.6-0.4,1.1-0.6,1.7C50.6,40.8,50,41.2,49.3,41.3z"/>
	<path class="st4" d="M36.4,42.6c-0.9,0-1.3-0.5-1.4-1.2c0-0.3-0.1-0.6-0.1-0.8c0-1.2-0.1-2.3-0.1-3.5c0-0.3,0.1-0.6,0.1-0.9
		c0,0.3,0.1,0.6,0.1,0.9c0,0.7,0.1,1.4,0.1,2.1c0,0.4,0.1,0.7,0.2,1.1c0.1,0.5,0.4,0.8,1,0.9c0.9,0.1,1.8,0.2,2.7,0.2
		c1.1,0.1,2.1,0.1,3.2,0.1c0.4,0,0.9,0,1.3,0c1.1,0,2.2,0,3.3,0c0.8,0,1.6-0.1,2.3-0.1c0.8-0.1,1.4-0.5,1.6-1.3
		c0.2-0.6,0.4-1.1,0.6-1.7c0,0.8,0,1.6-0.1,2.4c0,0.4-0.1,0.7-0.2,1.1c-0.1,0.4-0.3,0.6-0.7,0.6c-0.7,0.1-1.3,0.1-2,0.2
		c-1.5,0-3.1,0-4.6,0c-1.3,0-2.6,0-4,0C38.7,42.6,37.6,42.6,36.4,42.6z"/>
	<path class="st2" d="M54.2,24.2c-0.8,0.1-1.6,0.1-2.3,0.1c-1.1,0-2.2,0-3.3,0c-0.4,0-0.9,0-1.3,0c-1.1,0-2.1,0-3.2-0.1
		c-0.9,0-1.8-0.1-2.7-0.2c-0.6,0-0.9-0.4-1-0.9c-0.1-0.4-0.1-0.7-0.2-1.1c-0.1-0.7-0.1-1.4-0.1-2.1c0-0.3-0.1-0.6-0.1-0.9v-0.1
		c0.2-0.6,0.6-0.9,1.3-0.9s1.5,0,2.2,0c2.2,0,4.5,0,6.7,0c1.3,0,2.6-0.1,3.9-0.1c0.4,0,0.9,0.1,1.3,0.1c0.5,0.1,0.8,0.4,0.8,0.9
		c0,0.7,0,1.5,0.1,2.2c-0.2,0.6-0.4,1.1-0.6,1.7C55.6,23.7,55,24.2,54.2,24.2z"/>
	<path class="st4" d="M56,24.7c-0.1,0.4-0.3,0.6-0.7,0.6c-0.7,0.1-1.3,0.1-2,0.2c-1.5,0-3.1,0-4.6,0c-1.3,0-2.6,0-4,0
		c-1.1,0-2.3,0-3.4,0c-0.9,0-1.3-0.5-1.4-1.2c0-0.3-0.1-0.6-0.1-0.8c0-1.2-0.1-2.3-0.1-3.5c0-0.3,0.1-0.6,0.1-0.9
		c0,0.3,0.1,0.6,0.1,0.9c0,0.7,0.1,1.4,0.1,2.1c0,0.4,0.1,0.7,0.2,1.1c0.1,0.5,0.4,0.8,1,0.9c0.9,0.1,1.8,0.2,2.7,0.2
		c1.1,0.1,2.1,0.1,3.2,0.1c0.4,0,0.9,0,1.3,0c1.1,0,2.2,0,3.3,0c0.8,0,1.6-0.1,2.3-0.1c0.8-0.1,1.4-0.5,1.6-1.3
		c0.2-0.6,0.4-1.1,0.6-1.7c0,0.8,0,1.6-0.1,2.4C56.2,24,56.1,24.4,56,24.7z"/>
	<path class="st2" d="M75.1,31.4C75,31,75,30.7,75,30.3c0-0.7-0.1-1.4-0.1-2.1c0-0.3,0-0.6-0.1-0.9v-0.1c0.2-0.6,0.6-0.9,1.2-0.9
		c0.7,0,1.3,0,2,0v6.1c-0.7-0.1-1.3-0.1-2-0.2C75.5,32.3,75.2,32,75.1,31.4z"/>
	<path class="st4" d="M76.2,33.8c-0.8,0-1.2-0.5-1.3-1.2c0-0.3-0.1-0.6-0.1-0.8c0-1.2-0.1-2.3-0.1-3.5c0-0.3,0.1-0.6,0.1-0.9
		c0,0.3,0.1,0.6,0.1,0.9c0,0.7,0.1,1.4,0.1,2.1c0,0.4,0.1,0.7,0.1,1.1c0.1,0.5,0.4,0.8,0.9,0.9c0.7,0.1,1.3,0.1,2,0.2v1.3
		C77.5,33.8,76.8,33.8,76.2,33.8z"/>
	<path class="st2" d="M29.2,9.6c1.3,0,2.6-0.1,3.8-0.1c0.4,0,0.9,0.1,1.3,0.1c0.5,0.1,0.8,0.4,0.8,0.9c0,0.7,0,1.5,0.1,2.2
		c-0.2,0.6-0.4,1.1-0.6,1.7c-0.2,0.8-0.8,1.2-1.5,1.3c-0.8,0.1-1.5,0.1-2.3,0.1c-1.1,0-2.2,0-3.2,0c-0.4,0-0.9,0-1.3,0
		c-1,0-2.1,0-3.1-0.1c-0.9,0-1.8-0.1-2.7-0.2c-0.6,0-0.9-0.4-1-0.9c-0.1-0.4-0.1-0.7-0.2-1.1c-0.1-0.7-0.1-1.4-0.1-2.1
		c0-0.3-0.1-0.6-0.1-0.9v-0.1c0.2-0.6,0.6-0.9,1.3-0.9c0.7,0,1.4,0,2.2,0C24.8,9.6,27,9.6,29.2,9.6z"/>
	<path class="st4" d="M19.3,13.6c0,0.4,0.1,0.7,0.2,1.1c0.1,0.5,0.4,0.8,1,0.9c0.9,0.1,1.8,0.2,2.7,0.2c1,0.1,2.1,0.1,3.1,0.1
		c0.4,0,0.9,0,1.3,0c1.1,0,2.2,0,3.2,0c0.8,0,1.5-0.1,2.3-0.1c0.8-0.1,1.3-0.5,1.5-1.3c0.2-0.6,0.4-1.1,0.6-1.7c0,0.8,0,1.6-0.1,2.4
		c0,0.4-0.1,0.7-0.2,1.1c-0.1,0.4-0.3,0.6-0.7,0.6c-0.6,0.1-1.3,0.1-1.9,0.2c-1.5,0-3,0-4.5,0c-1.3,0-2.6,0-3.9,0
		c-1.1,0-2.2,0-3.3,0c-0.9,0-1.3-0.5-1.4-1.2c0-0.3-0.1-0.6-0.1-0.8c0-1.2-0.1-2.3-0.1-3.5c0-0.3,0.1-0.6,0.1-0.9
		c0,0.3,0.1,0.6,0.1,0.9C19.2,12.1,19.3,12.9,19.3,13.6z"/>
	<path class="st2" d="M74.1,58.8c-0.4,0-0.8,0-1.2,0c-0.9,0-1.9,0-2.8-0.1c-0.8,0-1.6-0.1-2.4-0.2c-0.5,0-0.8-0.4-0.9-0.9
		c-0.1-0.4-0.1-0.7-0.1-1.1c0-0.7-0.1-1.4-0.1-2.1c0-0.3,0-0.6-0.1-0.9v-0.1c0.2-0.6,0.6-0.9,1.2-0.9c0.7,0,1.3,0,2,0c2,0,4,0,6,0
		c0.8,0,1.5,0,2.3,0v6.2c-0.3,0-0.6,0-0.9,0C76.1,58.8,75.1,58.8,74.1,58.8z"/>
	<path class="st4" d="M71,59.9c-1,0-2,0-3,0c-0.8,0-1.2-0.5-1.3-1.2c0-0.3-0.1-0.6-0.1-0.8c0-1.2-0.1-2.3-0.1-3.5
		c0-0.3,0.1-0.6,0.1-0.9c0,0.3,0.1,0.6,0.1,0.9c0,0.7,0.1,1.4,0.1,2.1c0,0.4,0.1,0.7,0.1,1.1c0.1,0.5,0.4,0.8,0.9,0.9
		c0.8,0.1,1.6,0.2,2.4,0.2c0.9,0.1,1.9,0.1,2.8,0.1c0.4,0,0.8,0,1.2,0c1,0,2,0,2.9,0c0.3,0,0.6,0,0.9,0V60c-1.2,0-2.4,0-3.6,0
		C73.4,59.9,72.2,59.9,71,59.9z"/>
	<path class="st2" d="M73.7,15.7c-0.4,0-0.9,0-1.3,0c-1.1,0-2.1,0-3.2-0.1c-0.9,0-1.8-0.1-2.7-0.2c-0.6,0-0.9-0.4-1-0.9
		c-0.1-0.4-0.1-0.7-0.2-1.1c-0.1-0.7-0.1-1.4-0.1-2.1c0-0.3-0.1-0.6-0.1-0.9v-0.1c0.2-0.6,0.6-0.9,1.3-0.9c0.7,0,1.5,0,2.2,0
		c2.2,0,4.5,0,6.7,0c0.9,0,1.8,0,2.7,0v6.2c-0.4,0-0.7,0-1.1,0.1C75.9,15.7,74.8,15.7,73.7,15.7z"/>
	<path class="st4" d="M69.9,16.8c-1.1,0-2.3,0-3.4,0c-0.9,0-1.3-0.5-1.4-1.2c0-0.3-0.1-0.6-0.1-0.8c0-1.2-0.1-2.3-0.1-3.5
		c0-0.3,0.1-0.6,0.1-0.9c0,0.3,0.1,0.6,0.1,0.9c0,0.7,0.1,1.4,0.1,2.1c0,0.4,0.1,0.7,0.2,1.1c0.1,0.5,0.4,0.8,1,0.9
		c0.9,0.1,1.8,0.2,2.7,0.2c1.1,0.1,2.1,0.1,3.2,0.1c0.4,0,0.9,0,1.3,0c1.1,0,2.2,0,3.3,0c0.4,0,0.7,0,1.1-0.1v1.2
		c-1.4,0-2.8,0-4.2,0C72.6,16.8,71.3,16.8,69.9,16.8z"/>
	<path class="st2" d="M36.5,6.1c-0.2,0.2-0.6,0.4-0.9,0.5c-0.4,0.1-0.7,0.2-1.1,0.3c-0.3,0-0.7,0.1-1.1,0.1c-1.1,0-2.2,0.1-3.3,0.1
		c-0.5,0-1-0.1-1.6-0.1c-0.3,0-0.7,0-1,0c-0.6,0-1.3-0.1-1.9-0.1c-0.1,0-0.3,0-0.4,0c-0.5,0-0.8-0.4-1-0.8c-0.4-0.7-0.6-1.4-0.8-2.2
		c-0.1-0.4-0.2-0.7-0.2-1.1s0.1-0.7,0.2-1.1c0.1-0.5,0.5-0.8,1.1-0.8c0.3,0,0.6,0,0.9,0c1.9-0.1,3.7-0.1,5.6-0.2
		c1.3,0,2.5,0.1,3.8,0.1c0.5,0,0.9,0,1.4,0.1c0.7,0.1,1.1,0.4,1.1,1c0,1.2,0,2.3,0,3.5C37,5.5,36.8,5.9,36.5,6.1z"/>
	<path class="st3" d="M37,7.4c-0.1,0.3-0.3,0.5-0.6,0.5S35.8,8,35.5,8c-1.3,0-2.6,0.1-3.9,0.1c-2,0-4.1,0-6.1-0.1
		c-0.3,0-0.7-0.1-1-0.1c-0.6,0-0.9-0.5-1-0.9c-0.1-0.6-0.1-1.2-0.2-1.8c0-0.8,0-1.7-0.1-2.5c0.1,0.4,0.2,0.7,0.2,1.1
		c0.2,0.7,0.4,1.5,0.8,2.2c0.2,0.4,0.5,0.8,1,0.8c0.1,0,0.3,0,0.4,0c0.6,0,1.3,0.1,1.9,0.1c0.3,0,0.7,0,1,0c0.5,0,1,0.1,1.6,0.1
		c1.1,0,2.2,0,3.3-0.1c0.4,0,0.8-0.1,1.1-0.1c0.4-0.1,0.8-0.1,1.1-0.3c0.3-0.1,0.6-0.3,0.9-0.5c0.3-0.2,0.5-0.6,0.7-0.9
		c0,0.3,0,0.6,0,1C37.1,6.6,37,7,37,7.4z"/>
	<path class="st2" d="M47.4,70c0.3,0,0.6,0,0.9,0c1.9-0.1,3.7-0.1,5.6-0.2c1.3,0,2.5,0.1,3.8,0.1c0.5,0,0.9,0,1.4,0.1
		c0.7,0.1,1.1,0.4,1.1,1c0,1.2,0,2.3,0,3.5c-0.2,0.3-0.4,0.6-0.7,0.9c-0.2,0.2-0.6,0.4-0.9,0.5c-0.4,0.1-0.7,0.2-1.1,0.3
		c-0.4,0.1-0.8,0.1-1.1,0.1c-1.1,0-2.2,0.1-3.3,0.1c-0.5,0-1-0.1-1.6-0.1c-0.3,0-0.7,0-1,0c-0.6,0-1.3-0.1-1.9-0.1
		c-0.1,0-0.3,0-0.4,0c-0.5,0-0.8-0.4-1-0.8c-0.4-0.7-0.6-1.4-0.8-2.2c-0.1-0.4-0.2-0.7-0.2-1.1s0.1-0.7,0.2-1.1
		C46.5,70.4,46.9,70.1,47.4,70z"/>
	<path class="st3" d="M47.2,75.2c0.2,0.4,0.5,0.8,1,0.8c0.1,0,0.3,0,0.4,0c0.6,0,1.3,0.1,1.9,0.1c0.3,0,0.7,0,1,0
		c0.5,0,1,0.1,1.6,0.1c1.1,0,2.2,0,3.3-0.1c0.4,0,0.8-0.1,1.1-0.1c0.4-0.1,0.8-0.1,1.1-0.3c0.3-0.1,0.6-0.3,0.9-0.5
		c0.3-0.2,0.5-0.6,0.7-0.9c0,0.3,0,0.6,0,1c-0.1,0.4-0.1,0.8-0.2,1.2c-0.1,0.3-0.3,0.5-0.6,0.5s-0.6,0.1-0.9,0.1
		c-1.3,0-2.6,0.1-3.9,0.1c-2,0-4.1,0-6.1-0.1c-0.3,0-0.7-0.1-1-0.1c-0.6,0-0.9-0.5-1-0.9c-0.1-0.6-0.1-1.2-0.2-1.8
		c0-0.8,0-1.7-0.1-2.5c0.1,0.4,0.2,0.7,0.2,1.1C46.7,73.8,46.9,74.5,47.2,75.2z"/>
	<path class="st2" d="M37.8,66.6c-0.2,0.2-0.6,0.4-0.9,0.5c-0.4,0.1-0.7,0.2-1.1,0.3c-0.4,0.1-0.8,0.1-1.1,0.1
		c-1.1,0-2.2,0.1-3.3,0.1c-0.5,0-1-0.1-1.6-0.1c-0.3,0-0.7,0-1,0c-0.6,0-1.3-0.1-1.9-0.1c-0.1,0-0.3,0-0.4,0c-0.5,0-0.8-0.4-1-0.8
		c-0.4-0.7-0.6-1.4-0.8-2.2c-0.1-0.4-0.2-0.7-0.2-1.1c0-0.4,0.1-0.7,0.2-1.1c0.1-0.5,0.5-0.8,1.1-0.8c0.3,0,0.6,0,0.9,0
		c1.9-0.1,3.7-0.1,5.6-0.2c1.3,0,2.5,0.1,3.8,0.1c0.5,0,0.9,0,1.4,0.1c0.7,0.1,1.1,0.4,1.1,1c0,1.2,0,2.3,0,3.5
		C38.2,66,38,66.3,37.8,66.6z"/>
	<path class="st3" d="M38.2,67.9c-0.1,0.3-0.3,0.5-0.6,0.5s-0.6,0.1-0.9,0.1c-1.3,0-2.6,0.1-3.9,0.1c-2,0-4.1,0-6.1-0.1
		c-0.3,0-0.7-0.1-1-0.1c-0.6,0-0.9-0.5-1-0.9c-0.1-0.6-0.1-1.2-0.2-1.8c0-0.8,0-1.7-0.1-2.5c0.1,0.4,0.2,0.7,0.2,1.1
		c0.2,0.7,0.4,1.5,0.8,2.2c0.2,0.4,0.5,0.8,1,0.8c0.1,0,0.3,0,0.4,0c0.6,0,1.3,0.1,1.9,0.1c0.3,0,0.7,0,1,0c0.5,0,1,0.1,1.6,0.1
		c1.1,0,2.2,0,3.3-0.1c0.4,0,0.8-0.1,1.1-0.1c0.4-0.1,0.8-0.1,1.1-0.3c0.3-0.1,0.6-0.3,0.9-0.5c0.3-0.2,0.5-0.6,0.7-0.9
		c0,0.3,0,0.6,0,1C38.4,67.1,38.3,67.5,38.2,67.9z"/>
	<path class="st2" d="M40.1,49.1c-0.2,0.2-0.6,0.4-0.9,0.5c-0.4,0.1-0.7,0.2-1.1,0.3C37.8,50,37.4,50,37,50c-1.1,0-2.2,0.1-3.3,0.1
		c-0.5,0-1-0.1-1.6-0.1c-0.3,0-0.7,0-1,0c-0.6,0-1.3-0.1-1.9-0.1c-0.1,0-0.3,0-0.4,0c-0.5,0-0.8-0.4-1-0.8c-0.4-0.7-0.6-1.4-0.8-2.2
		c-0.1-0.4-0.2-0.7-0.2-1.1c0-0.4,0.1-0.7,0.2-1.1c0.1-0.5,0.5-0.8,1.1-0.8c0.3,0,0.6,0,0.9,0c1.9-0.1,3.7-0.1,5.6-0.2
		c1.3,0,2.5,0.1,3.8,0.1c0.5,0,0.9,0,1.4,0.1c0.7,0.1,1.1,0.4,1.1,1c0,1.2,0,2.3,0,3.5C40.6,48.6,40.4,48.9,40.1,49.1z"/>
	<path class="st3" d="M40.5,50.4c-0.1,0.3-0.3,0.5-0.6,0.5S39.3,51,39,51c-1.3,0-2.6,0.1-3.9,0.1c-2,0-4.1,0-6.1-0.1
		c-0.3,0-0.7-0.1-1-0.1c-0.6,0-0.9-0.5-1-0.9c-0.1-0.6-0.1-1.2-0.2-1.8c0-0.8,0-1.7-0.1-2.5c0.1,0.4,0.2,0.7,0.2,1.1
		c0.2,0.7,0.4,1.5,0.8,2.2c0.2,0.4,0.5,0.8,1,0.8c0.1,0,0.3,0,0.4,0c0.6,0,1.3,0.1,1.9,0.1c0.3,0,0.7,0,1,0c0.5,0,1,0.1,1.6,0.1
		c1.1,0,2.2,0,3.3-0.1c0.4,0,0.8-0.1,1.1-0.1c0.4-0.1,0.8-0.1,1.1-0.3c0.3-0.1,0.6-0.3,0.9-0.5c0.3-0.2,0.5-0.6,0.7-0.9
		c0,0.3,0,0.6,0,1C40.7,49.6,40.6,50.1,40.5,50.4z"/>
	<path class="st2" d="M32.3,40.7c-0.2,0.2-0.6,0.4-0.9,0.5c-0.4,0.1-0.7,0.2-1.1,0.3s-0.8,0.1-1.1,0.1c-1.1,0-2.2,0.1-3.3,0.1
		c-0.5,0-1-0.1-1.6-0.1c-0.3,0-0.7,0-1,0c-0.6,0-1.3-0.1-1.9-0.1c-0.1,0-0.3,0-0.4,0c-0.5,0-0.8-0.4-1-0.8c-0.4-0.7-0.6-1.4-0.8-2.2
		c-0.1-0.4-0.2-0.7-0.2-1.1c0-0.4,0.1-0.7,0.2-1.1c0.1-0.5,0.5-0.8,1.1-0.8c0.3,0,0.6,0,0.9,0c1.9-0.1,3.7-0.1,5.6-0.2
		c1.3,0,2.5,0.1,3.8,0.1c0.5,0,0.9,0,1.4,0.1c0.7,0.1,1.1,0.4,1.1,1c0,1.2,0,2.3,0,3.5C32.8,40.1,32.6,40.5,32.3,40.7z"/>
	<path class="st3" d="M20.2,42.6c-0.6,0-0.9-0.5-1-0.9c-0.1-0.6-0.1-1.2-0.2-1.8c0-0.8,0-1.7-0.1-2.5c0.1,0.4,0.2,0.7,0.2,1.1
		c0.2,0.7,0.4,1.5,0.8,2.2c0.2,0.4,0.5,0.8,1,0.8c0.1,0,0.3,0,0.4,0c0.6,0,1.3,0.1,1.9,0.1c0.3,0,0.7,0,1,0c0.5,0,1,0.1,1.6,0.1
		c1.1,0,2.2,0,3.3-0.1c0.4,0,0.8-0.1,1.1-0.1c0.4-0.1,0.8-0.1,1.1-0.3c0.3-0.1,0.6-0.3,0.9-0.5c0.3-0.2,0.5-0.6,0.7-0.9
		c0,0.3,0,0.6,0,1c-0.1,0.4-0.1,0.8-0.2,1.2c-0.1,0.3-0.3,0.5-0.6,0.5c-0.3,0-0.6,0.1-0.9,0.1c-1.3,0-2.6,0.1-3.9,0.1
		c-2,0-4.1,0-6.1-0.1C20.9,42.7,20.6,42.6,20.2,42.6z"/>
	<path class="st2" d="M58.5,27.7c0,1.2,0,2.3,0,3.5c-0.2,0.3-0.4,0.6-0.7,0.9c-0.2,0.2-0.6,0.4-0.9,0.5c-0.4,0.1-0.7,0.2-1.1,0.3
		C55.4,33,55,33,54.7,33c-1.1,0-2.2,0.1-3.3,0.1c-0.5,0-1-0.1-1.6-0.1c-0.3,0-0.7,0-1,0c-0.6,0-1.3-0.1-1.9-0.1c-0.1,0-0.3,0-0.4,0
		c-0.5,0-0.8-0.4-1-0.8c-0.4-0.7-0.6-1.4-0.8-2.2c-0.1-0.4-0.2-0.7-0.2-1.1s0.1-0.7,0.2-1.1c0.1-0.5,0.5-0.8,1.1-0.8
		c0.3,0,0.6,0,0.9,0c1.9-0.1,3.7-0.1,5.6-0.2c1.3,0,2.5,0.1,3.8,0.1c0.5,0,0.9,0,1.4,0.1C58.1,26.8,58.5,27.2,58.5,27.7z"/>
	<path class="st3" d="M45.5,31.9c0.2,0.4,0.5,0.8,1,0.8c0.1,0,0.3,0,0.4,0c0.6,0,1.3,0.1,1.9,0.1c0.3,0,0.7,0,1,0
		c0.5,0,1,0.1,1.6,0.1c1.1,0,2.2,0,3.3-0.1c0.4,0,0.8-0.1,1.1-0.1c0.4-0.1,0.8-0.1,1.1-0.3c0.3-0.1,0.6-0.3,0.9-0.5
		c0.3-0.2,0.5-0.6,0.7-0.9c0,0.3,0,0.6,0,1c-0.1,0.4-0.1,0.8-0.2,1.2c-0.1,0.3-0.3,0.5-0.6,0.5s-0.6,0.1-0.9,0.1
		c-1.3,0-2.6,0.1-3.9,0.1c-2,0-4.1,0-6.1-0.1c-0.3,0-0.7-0.1-1-0.1c-0.6,0-0.9-0.5-1-0.9c-0.1-0.6-0.1-1.2-0.2-1.8
		c0-0.8,0-1.7-0.1-2.5c0.1,0.4,0.2,0.7,0.2,1.1C44.9,30.5,45.1,31.2,45.5,31.9z"/>
	<path class="st2" d="M74.4,41.4c-0.5,0-1-0.1-1.4-0.1c-0.3,0-0.6,0-0.9,0c-0.6,0-1.2-0.1-1.8-0.1c-0.1,0-0.3,0-0.4,0
		c-0.5,0-0.7-0.4-0.9-0.8c-0.3-0.7-0.5-1.4-0.7-2.2c-0.1-0.4-0.2-0.7-0.2-1.1c0-0.4,0.1-0.7,0.1-1.1c0.1-0.5,0.5-0.8,1-0.8
		c0.3,0,0.6,0,0.9,0c1.7-0.1,3.4-0.1,5.2-0.2c0.9,0,1.8,0,2.7,0.1v6.3c-0.1,0-0.2,0-0.4,0C76.4,41.4,75.4,41.4,74.4,41.4z"/>
	<path class="st3" d="M70.2,42.5c-0.3,0-0.6-0.1-0.9-0.1c-0.6,0-0.9-0.5-0.9-0.9c-0.1-0.6-0.1-1.2-0.2-1.8c0-0.8,0-1.7,0-2.5
		c0.1,0.4,0.1,0.7,0.2,1.1c0.2,0.7,0.4,1.5,0.7,2.2c0.2,0.4,0.4,0.8,0.9,0.8c0.1,0,0.3,0,0.4,0c0.6,0,1.2,0.1,1.8,0.1
		c0.3,0,0.6,0,0.9,0c0.5,0,1,0.1,1.4,0.1c1,0,2,0,3.1-0.1c0.1,0,0.2,0,0.4,0v1.2c-0.7,0-1.4,0-2.1,0C73.9,42.5,72,42.5,70.2,42.5z"
		/>
	<path class="st2" d="M69,49.4c-0.2,0.2-0.6,0.4-0.9,0.5c-0.4,0.1-0.7,0.2-1.1,0.3s-0.8,0.1-1.1,0.1c-1.1,0-2.2,0.1-3.3,0.1
		c-0.5,0-1-0.1-1.6-0.1c-0.3,0-0.7,0-1,0c-0.6,0-1.3-0.1-1.9-0.1c-0.1,0-0.3,0-0.4,0c-0.5,0-0.8-0.4-1-0.8c-0.4-0.7-0.6-1.4-0.8-2.2
		c-0.1-0.4-0.2-0.7-0.2-1.1c0-0.4,0.1-0.7,0.2-1.1c0.1-0.5,0.5-0.8,1.1-0.8c0.3,0,0.6,0,0.9,0c1.9-0.1,3.7-0.1,5.6-0.2
		c1.3,0,2.5,0.1,3.8,0.1c0.5,0,0.9,0,1.4,0.1c0.7,0.1,1.1,0.4,1.1,1c0,1.2,0,2.3,0,3.5C69.5,48.8,69.3,49.1,69,49.4z"/>
	<path class="st3" d="M57.9,51.3c-0.3,0-0.7-0.1-1-0.1c-0.6,0-0.9-0.5-1-0.9c-0.1-0.6-0.1-1.2-0.2-1.8c0-0.8,0-1.7-0.1-2.5
		c0.1,0.4,0.2,0.7,0.2,1.1c0.2,0.7,0.4,1.5,0.8,2.2c0.2,0.4,0.5,0.8,1,0.8c0.1,0,0.3,0,0.4,0c0.6,0,1.3,0.1,1.9,0.1c0.3,0,0.7,0,1,0
		c0.5,0,1,0.1,1.6,0.1c1.1,0,2.2,0,3.3-0.1c0.4,0,0.8-0.1,1.1-0.1c0.4-0.1,0.8-0.1,1.1-0.3c0.3-0.1,0.6-0.3,0.9-0.5s0.5-0.6,0.7-0.9
		c0,0.3,0,0.6,0,1c-0.1,0.4-0.1,0.8-0.2,1.2c-0.1,0.3-0.3,0.5-0.6,0.5c-0.3,0-0.6,0.1-0.9,0.1c-1.3,0-2.6,0.1-3.9,0.1
		C61.9,51.4,59.9,51.4,57.9,51.3z"/>
	<path class="st2" d="M72.9,31.8c-0.2,0.2-0.6,0.4-0.9,0.5c-0.4,0.1-0.7,0.2-1.1,0.3s-0.8,0.1-1.1,0.1c-1.1,0-2.2,0.1-3.3,0.1
		c-0.5,0-1-0.1-1.6-0.1c-0.3,0-0.7,0-1,0c-0.6,0-1.3-0.1-1.9-0.1c-0.1,0-0.3,0-0.4,0c-0.5,0-0.8-0.4-1-0.8c-0.4-0.7-0.6-1.4-0.8-2.2
		c-0.1-0.4-0.2-0.7-0.2-1.1s0.1-0.7,0.2-1.1c0.1-0.5,0.5-0.8,1.1-0.8c0.3,0,0.6,0,0.9,0c1.9-0.1,3.7-0.1,5.6-0.2
		c1.3,0,2.5,0.1,3.8,0.1c0.5,0,0.9,0,1.4,0.1c0.7,0.1,1.1,0.4,1.1,1c0,1.2,0,2.3,0,3.5C73.4,31.3,73.2,31.6,72.9,31.8z"/>
	<path class="st3" d="M61.8,33.8c-0.3,0-0.7-0.1-1-0.1c-0.6,0-0.9-0.5-1-0.9c-0.1-0.6-0.1-1.2-0.2-1.8c0-0.8,0-1.7-0.1-2.5
		c0.1,0.4,0.2,0.7,0.2,1.1c0.2,0.7,0.4,1.5,0.8,2.2c0.2,0.4,0.5,0.8,1,0.8c0.1,0,0.3,0,0.4,0c0.6,0,1.3,0.1,1.9,0.1c0.3,0,0.7,0,1,0
		c0.5,0,1,0.1,1.6,0.1c1.1,0,2.2,0,3.3-0.1c0.4,0,0.8-0.1,1.1-0.1c0.4-0.1,0.8-0.1,1.1-0.3c0.3-0.1,0.6-0.3,0.9-0.5s0.5-0.6,0.7-0.9
		c0,0.3,0,0.6,0,1c-0.1,0.4-0.1,0.8-0.2,1.2c-0.1,0.3-0.3,0.5-0.6,0.5c-0.3,0-0.6,0.1-0.9,0.1c-1.3,0-2.6,0.1-3.9,0.1
		C65.9,33.9,63.9,33.8,61.8,33.8z"/>
	<path class="st2" d="M15.6,9.5c0.4,0,0.9,0,1.3,0.1c0.6,0.1,1,0.4,1,1c0,1.2,0,2.3,0,3.5c-0.2,0.3-0.4,0.6-0.7,0.9
		c-0.2,0.2-0.5,0.4-0.8,0.5s-0.7,0.2-1,0.3s-0.7,0.1-1.1,0.1c-1,0-2.1,0.1-3.1,0.1c-0.5,0-1-0.1-1.5-0.1c-0.3,0-0.6,0-0.9,0
		c-0.6,0-1.2-0.1-1.8-0.1c-0.1,0-0.3,0-0.4,0c-0.5,0-0.7-0.4-0.9-0.8c-0.3-1-0.5-1.7-0.7-2.4c-0.1-0.4-0.2-0.7-0.2-1.1
		c0-0.4,0.1-0.7,0.1-1.1c0.1-0.5,0.5-0.8,1-0.8c0.3,0,0.6,0,0.9,0c1.7-0.1,3.5-0.1,5.2-0.2C13.2,9.3,14.4,9.4,15.6,9.5z"/>
	<path class="st3" d="M5.8,14.7c0.2,0.4,0.4,0.8,0.9,0.8c0.1,0,0.3,0,0.4,0c0.6,0,1.2,0.1,1.8,0.1c0.3,0,0.6,0,0.9,0
		c0.5,0,1,0.1,1.5,0.1c1,0,2.1,0,3.1-0.1c0.4,0,0.7-0.1,1.1-0.1c0.3-0.1,0.7-0.1,1-0.3c0.3-0.1,0.6-0.3,0.8-0.5
		c0.3-0.2,0.4-0.6,0.7-0.9c0,0.3,0,0.6,0,1c-0.1,0.4-0.1,0.8-0.2,1.2c-0.1,0.3-0.2,0.5-0.6,0.5c-0.3,0-0.6,0.1-0.8,0.1
		c-1.2,0-2.5,0.1-3.7,0.1c-1.9,0-3.8,0-5.7-0.1c-0.3,0-0.6-0.1-0.9-0.1c-0.6,0-0.9-0.5-0.9-0.9C5.1,15,5.1,14.4,5,13.8
		c0-0.8,0-1.7-0.1-2.5c0,0.5,0.1,0.9,0.1,1.3C5.2,13.3,5.4,14,5.8,14.7z"/>
	<path class="st2" d="M47.7,9.5c0.5,0,0.9,0,1.4,0.1c0.7,0.1,1.1,0.4,1.1,1c0,1.2,0,2.3,0,3.5c-0.2,0.3-0.4,0.6-0.7,0.9
		c-0.2,0.2-0.6,0.4-0.9,0.5c-0.4,0.1-0.7,0.2-1.1,0.3c-0.4,0.1-0.8,0.1-1.1,0.1c-1.1,0-2.2,0.1-3.3,0.1c-0.5,0-1-0.1-1.6-0.1
		c-0.3,0-0.7,0-1,0c-0.6,0-1.3-0.1-1.9-0.1c-0.1,0-0.3,0-0.4,0c-0.5,0-0.8-0.4-1-0.8c-0.4-0.7-0.6-1.4-0.8-2.2
		c-0.1-0.4-0.2-0.7-0.2-1.1c0-0.4,0.1-0.7,0.2-1.1c0.1-0.5,0.5-0.8,1.1-0.8c0.3,0,0.6,0,0.9,0c1.9-0.1,3.7-0.1,5.6-0.2
		C45.2,9.3,46.5,9.4,47.7,9.5z"/>
	<path class="st3" d="M37.2,14.7c0.2,0.4,0.5,0.8,1,0.8c0.1,0,0.3,0,0.4,0c0.6,0,1.3,0.1,1.9,0.1c0.3,0,0.7,0,1,0
		c0.5,0,1,0.1,1.6,0.1c1.1,0,2.2,0,3.3-0.1c0.4,0,0.8-0.1,1.1-0.1c0.4-0.1,0.8-0.1,1.1-0.3c0.3-0.1,0.6-0.3,0.9-0.5
		c0.3-0.2,0.5-0.6,0.7-0.9c0,0.3,0,0.6,0,1c-0.1,0.4-0.1,0.8-0.2,1.2c-0.1,0.3-0.3,0.5-0.6,0.5s-0.6,0.1-0.9,0.1
		c-1.3,0-2.6,0.1-3.9,0.1c-2,0-4.1,0-6.1-0.1c-0.3,0-0.7-0.1-1-0.1c-0.6,0-0.9-0.5-1-0.9c-0.1-0.6-0.1-1.2-0.2-1.8
		c0-0.8,0-1.7-0.1-2.5c0.1,0.4,0.2,0.7,0.2,1.1C36.6,13.3,36.8,14,37.2,14.7z"/>
	<path class="st2" d="M76.5,67.4c-0.7,0-1.4-0.1-2.1-0.1c-0.2,0-0.3,0-0.5,0c-0.6,0-0.9-0.4-1.1-0.8c-0.4-0.7-0.6-1.4-0.8-2.2
		c-0.1-0.4-0.2-0.7-0.3-1.1c0.1-0.4,0.1-0.7,0.2-1.1c0.2-0.5,0.6-0.8,1.2-0.8c0.3,0,0.7,0,1,0c1.3,0,2.6-0.1,3.9-0.1v6.4
		c-0.1,0-0.3,0-0.4,0C77.2,67.4,76.9,67.4,76.5,67.4z"/>
	<path class="st3" d="M73.1,68.5c-0.7,0-1-0.5-1.1-0.9c-0.1-0.6-0.2-1.2-0.2-1.8c0-0.8,0-1.7-0.1-2.5c0.1,0.4,0.2,0.7,0.3,1.1
		c0.2,0.7,0.4,1.5,0.8,2.2c0.2,0.4,0.5,0.8,1.1,0.8c0.2,0,0.3,0,0.5,0c0.7,0,1.4,0.1,2.1,0.1c0.4,0,0.7,0,1.1,0c0.1,0,0.3,0,0.4,0
		v1.1c-1.3,0-2.5,0-3.8-0.1C73.8,68.6,73.5,68.5,73.1,68.5z"/>
	<path class="st2" d="M26.2,18.3c0.3,0,0.6,0,0.9,0c1.8-0.1,3.5-0.1,5.3-0.2c1.2,0,2.4,0.1,3.6,0.1c0.4,0,0.9,0,1.3,0.1
		c0.6,0.1,1,0.4,1,1c0,1.2,0,2.3,0,3.5c-0.2,0.3-0.4,0.6-0.7,0.9c-0.2,0.2-0.5,0.4-0.8,0.5s-0.7,0.2-1,0.3c-0.4,0.1-0.7,0.1-1.1,0.1
		c-1,0-2.1,0.1-3.1,0.1c-0.5,0-1-0.1-1.5-0.1c-0.3,0-0.6,0-1,0c-0.6,0-1.2-0.1-1.8-0.1c-0.1,0-0.3,0-0.4,0c-0.5,0-0.8-0.4-0.9-0.8
		c-0.3-0.7-0.5-1.4-0.7-2.2c-0.1-0.4-0.2-0.7-0.2-1.1s0.1-0.7,0.1-1.1C25.4,18.7,25.7,18.4,26.2,18.3z"/>
	<path class="st3" d="M26.1,23.5c0.2,0.4,0.4,0.8,0.9,0.8c0.1,0,0.3,0,0.4,0c0.6,0,1.2,0.1,1.8,0.1c0.3,0,0.6,0,1,0
		c0.5,0,1,0.1,1.5,0.1c1,0,2.1,0,3.1-0.1c0.4,0,0.7-0.1,1.1-0.1c0.4-0.1,0.7-0.1,1-0.3c0.3-0.1,0.6-0.3,0.8-0.5
		c0.3-0.2,0.4-0.6,0.7-0.9c0,0.3,0,0.6,0,1c-0.1,0.4-0.1,0.8-0.2,1.2c-0.1,0.3-0.2,0.5-0.6,0.5c-0.3,0-0.6,0.1-0.8,0.1
		c-1.2,0-2.5,0.1-3.7,0.1c-1.9,0-3.9,0-5.8-0.1c-0.3,0-0.6-0.1-1-0.1c-0.6,0-0.9-0.5-0.9-0.9c-0.1-0.6-0.1-1.2-0.2-1.8
		c0-0.8,0-1.7-0.1-2.5c0.1,0.4,0.1,0.7,0.2,1.1C25.5,22.1,25.7,22.8,26.1,23.5z"/>
	<path class="st2" d="M68.1,4.9c-0.1,0.4-0.3,0.9-0.5,1.3c-0.2,0.5-0.6,0.7-1,0.8c-0.8,0.2-1.7,0.3-2.6,0.3c-0.4,0-0.8,0-1.2,0
		c-0.6,0-1.2-0.1-1.8-0.1c-0.3,0-0.7-0.1-1-0.1c-0.8,0-1.5-0.1-2.2-0.1c-0.3,0-0.5,0-0.8,0c-0.4,0-0.7,0-1.1-0.1
		c-0.2,0-0.4-0.2-0.5-0.4c-0.1-0.2-0.2-0.4-0.3-0.5l0,0c0,0,0,0,0-0.1c0-0.2-0.1-0.4,0-0.7c0-0.9,0.1-1.9,0.2-2.8
		c0-0.4,0.2-0.8,0.5-1.1c0-0.3,0.2-0.4,0.4-0.4c0.5,0,1.1-0.1,1.6-0.1c1.6-0.1,3.1-0.1,4.7-0.1c0.9,0,1.7,0,2.6,0.1
		c0.8,0,1.5,0.1,2.3,0.1c0.4,0,0.7,0.1,1,0.4c0,0.5,0,1,0,1.5C68.5,3.5,68.3,4.2,68.1,4.9z"/>
	<path class="st4" d="M57.7,8.2c-0.5,0-1-0.1-1.5-0.1c-0.6-0.1-0.9-0.4-1-1c-0.1-0.4-0.1-0.8-0.1-1.1c0.1,0.2,0.2,0.4,0.3,0.5
		c0.1,0.2,0.3,0.4,0.5,0.4C56.3,6.9,56.6,7,57,7c0.3,0,0.5,0,0.8,0c0.7,0,1.4,0.1,2.2,0.1c0.3,0,0.7,0.1,1,0.1
		c0.6,0,1.2,0.1,1.8,0.1c0.4,0,0.8,0,1.2,0c0.9,0,1.7-0.1,2.6-0.3c0.5-0.1,0.9-0.4,1-0.8c0.2-0.4,0.3-0.9,0.5-1.3
		c0.2-0.7,0.4-1.4,0.4-2.2c0-0.5,0-1,0-1.5c0.1,0.2,0.2,0.3,0.3,0.5c0.1,0.2,0.1,0.4,0.1,0.6c0,1.3,0,2.7,0,4c0,0.4-0.1,0.8-0.2,1.2
		C68.6,7.8,68.4,8,68.1,8c-0.3,0-0.6,0.1-0.9,0.1c-1,0-2.1,0.1-3.1,0.1C61.8,8.3,59.7,8.2,57.7,8.2z"/>
	<path class="st2" d="M20.9,4.9c-0.1,0.4-0.3,0.9-0.5,1.3c-0.2,0.5-0.6,0.7-1,0.8c-0.8,0.2-1.7,0.3-2.6,0.3c-0.4,0-0.8,0-1.2,0
		c-0.6,0-1.2-0.1-1.8-0.1c-0.3,0-0.7-0.1-1-0.1c-0.7,0-1.5-0.1-2.2-0.1c-0.3,0-0.5,0-0.8,0C9.4,7,9.1,7,8.7,6.9
		c-0.2,0-0.4-0.2-0.5-0.4C8.1,6.3,8,6.1,7.9,5.9l0,0c0,0,0,0,0-0.1c0-0.2-0.1-0.4,0-0.7c0-0.9,0.1-1.9,0.2-2.8C8,2,8.2,1.6,8.5,1.2
		C8.6,1,8.8,0.9,9.1,0.9c0.5,0,1.1-0.1,1.6-0.1c1.6-0.1,3.1-0.1,4.7-0.1c0.9,0,1.7,0,2.6,0.1c0.8,0,1.5,0.1,2.3,0.1
		c0.4,0,0.7,0.1,1,0.4c0,0.5,0,1,0,1.5C21.3,3.5,21.2,4.2,20.9,4.9z"/>
	<path class="st4" d="M21.3,7.5C21.2,7.8,21,8,20.7,8.1c-0.3,0-0.6,0.1-0.9,0.1c-1,0-2.1,0.1-3.1,0.1c-2,0-4.1,0-6.1-0.1
		c-0.5,0-1-0.1-1.5-0.1C8.5,8,8.1,7.6,8,7.1c0-0.4,0-0.8-0.1-1.2C8,6.1,8.1,6.3,8.3,6.5c0.1,0.2,0.3,0.4,0.5,0.4
		C9.2,6.9,9.5,7,9.9,7c0.3,0,0.5,0,0.8,0c0.7,0,1.4,0.1,2.2,0.1c0.3,0,0.7,0.1,1,0.1c0.6,0,1.2,0.1,1.8,0.1c0.4,0,0.8,0,1.2,0
		c0.9,0,1.7-0.1,2.6-0.3c0.5-0.1,0.9-0.4,1-0.8c0.2-0.4,0.3-0.9,0.5-1.3c0.2-0.7,0.4-1.4,0.4-2.2c0-0.5,0-1,0-1.5
		c0.1,0.2,0.2,0.3,0.3,0.5c0.1,0.2,0.1,0.4,0.1,0.6c0,1.3,0,2.7,0,4C21.5,6.7,21.4,7.1,21.3,7.5z"/>
	<path class="st2" d="M61.4,71.6c0-0.4,0.2-0.8,0.4-1.1c0.1-0.2,0.3-0.3,0.5-0.3c0.5,0,1-0.1,1.4-0.1c1.4-0.1,2.8-0.1,4.2-0.1
		c0.8,0,1.5,0,2.3,0.1c0.7,0,1.3,0.1,2,0.1c0.3,0,0.7,0.1,0.9,0.4c0,0.5,0,1,0,1.5c0,0.7-0.1,1.5-0.3,2.2c-0.1,0.4-0.3,0.9-0.4,1.3
		c-0.2,0.5-0.5,0.7-0.9,0.8c-0.8,0.2-1.5,0.3-2.3,0.3c-0.4,0-0.7,0-1.1,0c-0.5,0-1.1-0.1-1.6-0.1c-0.3,0-0.6-0.1-0.9-0.1
		c-0.6-0.1-1.3-0.1-1.9-0.1c-0.2,0-0.5,0-0.7,0c-0.3,0-0.6,0-1-0.1c-0.2,0-0.3-0.2-0.5-0.4c-0.1-0.2-0.2-0.4-0.3-0.5l0,0
		c0,0,0,0,0-0.1c0-0.2-0.1-0.4,0-0.7C61.3,73.5,61.4,72.5,61.4,71.6z"/>
	<path class="st4" d="M62.1,76.1c0.3,0,0.6,0.1,1,0.1c0.2,0,0.5,0,0.7,0c0.6,0,1.3,0.1,1.9,0.1c0.3,0,0.6,0.1,0.9,0.1
		c0.5,0,1.1,0.1,1.6,0.1c0.4,0,0.7,0,1.1,0c0.8,0,1.5-0.1,2.3-0.3c0.4-0.1,0.8-0.4,0.9-0.8c0.2-0.4,0.3-0.9,0.4-1.3
		c0.2-0.7,0.4-1.4,0.3-2.2c0-0.5,0-1,0-1.5c0.1,0.2,0.2,0.3,0.2,0.5c0.1,0.2,0.1,0.4,0.1,0.6c0,1.3,0,2.7,0,4c0,0.4-0.1,0.8-0.2,1.2
		c-0.1,0.3-0.2,0.5-0.5,0.5s-0.6,0.1-0.8,0.1c-0.9,0-1.9,0.1-2.8,0.1c-1.8,0-3.6,0-5.5-0.1c-0.4,0-0.9-0.1-1.3-0.1
		c-0.5-0.1-0.8-0.4-0.9-1c-0.1-0.4-0.1-0.8-0.1-1.1c0.1,0.2,0.2,0.4,0.3,0.5C61.8,75.9,61.9,76.1,62.1,76.1z"/>
	<path class="st2" d="M39.5,65.7c0-0.9,0.1-1.9,0.2-2.8c0-0.4,0.2-0.8,0.5-1.1c0.2-0.2,0.4-0.3,0.6-0.3c0.5,0,1.1-0.1,1.6-0.1
		c1.6-0.1,3.1-0.1,4.7-0.1c0.9,0,1.7,0,2.6,0.1c0.8,0,1.5,0.1,2.3,0.1c0.4,0,0.7,0.1,1,0.4c0,0.5,0,1,0,1.5c0,0.7-0.1,1.5-0.4,2.2
		c-0.1,0.4-0.3,0.9-0.5,1.3c-0.2,0.5-0.6,0.7-1,0.8c-0.8,0.2-1.7,0.3-2.6,0.3c-0.4,0-0.8,0-1.2,0c-0.6,0-1.2-0.1-1.8-0.1
		c-0.3,0-0.7-0.1-1-0.1c-0.7-0.1-1.4-0.1-2.2-0.1c-0.3,0-0.5,0-0.8,0c-0.4,0-0.7,0-1.1-0.1c-0.2,0-0.4-0.2-0.5-0.4
		c-0.1-0.2-0.2-0.4-0.3-0.5l0,0c0,0,0,0,0-0.1C39.5,66.2,39.5,66,39.5,65.7z"/>
	<path class="st4" d="M40.4,67.4c0.4,0,0.7,0.1,1.1,0.1c0.3,0,0.5,0,0.8,0c0.7,0,1.4,0.1,2.2,0.1c0.3,0,0.7,0.1,1,0.1
		c0.6,0,1.2,0.1,1.8,0.1c0.4,0,0.8,0,1.2,0c0.9,0,1.7-0.1,2.6-0.3c0.5-0.1,0.9-0.4,1-0.8c0.2-0.4,0.3-0.9,0.5-1.3
		c0.2-0.7,0.4-1.4,0.4-2.2c0-0.5,0-1,0-1.5c0.1,0.2,0.2,0.3,0.3,0.5s0.1,0.4,0.1,0.6c0,1.3,0,2.7,0,4c0,0.4-0.1,0.8-0.2,1.2
		c-0.1,0.3-0.3,0.5-0.6,0.5s-0.6,0.1-0.9,0.1c-1,0-2.1,0.1-3.1,0.1c-2,0-4.1,0-6.1-0.1c-0.5,0-1-0.1-1.5-0.1c-0.6-0.1-0.9-0.4-1-1
		c-0.1-0.4-0.1-0.8-0.1-1.1c0.1,0.2,0.2,0.4,0.3,0.5C40,67.2,40.2,67.4,40.4,67.4z"/>
	<path class="st2" d="M13.3,52.6c0.7,0,1.4,0.1,2,0.1c0.3,0,0.7,0.1,0.9,0.4c0,0.5,0,1,0,1.5c0,0.7-0.1,1.5-0.3,2.2
		c-0.1,0.4-0.3,0.9-0.4,1.3c-0.2,0.5-0.5,0.7-0.9,0.8c-0.8,0.2-1.5,0.3-2.3,0.3c-0.4,0-0.7,0-1.1,0c-0.5,0-1.1-0.1-1.6-0.1
		C9.3,59.1,9,59,8.7,59c-0.6-0.1-1.3-0.1-1.9-0.1c-0.2,0-0.5,0-0.7,0c-0.3,0-0.7,0-1-0.1c-0.2,0-0.4-0.2-0.5-0.4S4.4,58,4.3,57.9
		l0,0c0,0,0,0,0-0.1c0-0.2-0.1-0.4,0-0.7c0-0.9,0.1-1.9,0.1-2.8c0-0.4,0.2-0.8,0.4-1.1c0.1-0.2,0.3-0.3,0.6-0.3c0.5,0,1-0.1,1.5-0.1
		c1.4-0.1,2.8-0.1,4.2-0.1C11.7,52.5,12.5,52.5,13.3,52.6z"/>
	<path class="st4" d="M5,58.7c0.3,0,0.7,0.1,1,0.1c0.2,0,0.5,0,0.7,0c0.6,0,1.3,0.1,1.9,0.1c0.3,0,0.6,0.1,0.9,0.1
		c0.5,0,1.1,0.1,1.6,0.1c0.4,0,0.7,0,1.1,0c0.8,0,1.6-0.1,2.3-0.3c0.4-0.1,0.8-0.4,0.9-0.8c0.2-0.4,0.3-0.9,0.4-1.3
		c0.2-0.7,0.4-1.4,0.3-2.2c0-0.5,0-1,0-1.5c0.1,0.2,0.2,0.3,0.2,0.5c0.1,0.2,0.1,0.4,0.1,0.6c0,1.3,0,2.7,0,4c0,0.4-0.1,0.8-0.2,1.2
		c-0.1,0.3-0.2,0.5-0.5,0.5s-0.6,0.1-0.9,0.1c-0.9,0-1.9,0.1-2.8,0.1c-1.8,0-3.7,0-5.5-0.1c-0.4,0-0.9-0.1-1.3-0.1
		c-0.5-0.1-0.8-0.4-0.9-1c-0.1-0.4-0.1-0.8-0.1-1.1c0.1,0.2,0.2,0.4,0.3,0.5C4.6,58.4,4.8,58.6,5,58.7z"/>
	<path class="st2" d="M46.7,56.8c-0.1,0.4-0.3,0.9-0.5,1.3c-0.2,0.5-0.6,0.7-1,0.8c-0.8,0.2-1.7,0.3-2.6,0.3c-0.4,0-0.8,0-1.2,0
		c-0.6,0-1.2-0.1-1.8-0.1c-0.3,0-0.7-0.1-1-0.1c-0.7-0.1-1.4-0.1-2.2-0.1c-0.3,0-0.5,0-0.8,0c-0.4,0-0.7,0-1.1-0.1
		c-0.2,0-0.4-0.2-0.5-0.4s-0.2-0.4-0.3-0.5l0,0c0,0,0,0,0-0.1c0-0.2-0.1-0.4,0-0.7c0-0.9,0.1-1.9,0.2-2.8c0-0.4,0.2-0.8,0.5-1.1
		c0.2-0.2,0.4-0.3,0.6-0.3c0.5,0,1.1-0.1,1.6-0.1c1.6-0.1,3.1-0.1,4.7-0.1c0.9,0,1.7,0,2.6,0.1c0.8,0,1.5,0.1,2.3,0.1
		c0.4,0,0.7,0.1,1,0.4c0,0.5,0,1,0,1.5C47.1,55.4,46.9,56.1,46.7,56.8z"/>
	<path class="st4" d="M34.8,60c-0.6-0.1-0.9-0.4-1-1c-0.1-0.4-0.1-0.8-0.1-1.1c0.1,0.2,0.2,0.4,0.3,0.5c0.1,0.2,0.3,0.4,0.5,0.4
		c0.4,0,0.7,0.1,1.1,0.1c0.3,0,0.5,0,0.8,0c0.7,0,1.4,0.1,2.2,0.1c0.3,0,0.7,0.1,1,0.1c0.6,0,1.2,0.1,1.8,0.1c0.4,0,0.8,0,1.2,0
		c0.9,0,1.7-0.1,2.6-0.3c0.5-0.1,0.9-0.4,1-0.8c0.2-0.4,0.3-0.9,0.5-1.3c0.2-0.7,0.4-1.4,0.4-2.2c0-0.5,0-1,0-1.5
		c0.1,0.2,0.2,0.3,0.3,0.5s0.1,0.4,0.1,0.6c0,1.3,0,2.7,0,4c0,0.4-0.1,0.8-0.2,1.2C47,59.8,46.8,60,46.4,60c-0.3,0-0.6,0.1-0.9,0.1
		c-1,0-2.1,0.1-3.1,0.1c-2,0-4.1,0-6.1-0.1C35.8,60.1,35.3,60,34.8,60z"/>
	<path class="st2" d="M54.1,48.1c-0.1,0.4-0.3,0.9-0.4,1.3c-0.2,0.5-0.5,0.7-0.9,0.8c-0.8,0.2-1.6,0.3-2.3,0.3c-0.4,0-0.7,0-1.1,0
		c-0.5,0-1.1-0.1-1.6-0.1c-0.3,0-0.6-0.1-1-0.1c-0.7-0.1-1.3-0.1-2-0.1c-0.2,0-0.5,0-0.7,0c-0.3,0-0.7,0-1-0.1
		c-0.2,0-0.4-0.2-0.5-0.4s-0.2-0.4-0.3-0.5l0,0c0,0,0,0,0-0.1c0-0.2-0.1-0.4,0-0.7c0-0.9,0.1-1.9,0.1-2.8c0-0.4,0.2-0.8,0.4-1.1
		c0.1-0.2,0.3-0.3,0.6-0.3c0.5,0,1-0.1,1.5-0.1c1.4-0.1,2.8-0.1,4.3-0.1c0.8,0,1.6,0,2.3,0.1c0.7,0,1.4,0.1,2.1,0.1
		c0.3,0,0.7,0.1,0.9,0.4c0,0.5,0,1,0,1.5C54.5,46.7,54.3,47.4,54.1,48.1z"/>
	<path class="st4" d="M54.5,50.7c-0.1,0.3-0.2,0.5-0.5,0.5s-0.6,0.1-0.9,0.1c-0.9,0-1.9,0.1-2.8,0.1c-1.9,0-3.7,0-5.6-0.1
		c-0.4,0-0.9-0.1-1.3-0.1c-0.5-0.1-0.8-0.4-0.9-1c-0.1-0.4-0.1-0.8-0.1-1.1c0.1,0.2,0.2,0.4,0.3,0.5c0.1,0.2,0.3,0.4,0.5,0.4
		c0.3,0,0.7,0.1,1,0.1c0.2,0,0.5,0,0.7,0c0.7,0,1.3,0.1,2,0.1c0.3,0,0.6,0.1,1,0.1c0.5,0,1.1,0.1,1.6,0.1c0.4,0,0.7,0,1.1,0
		c0.8,0,1.6-0.1,2.3-0.3c0.4-0.1,0.8-0.4,0.9-0.8c0.2-0.4,0.3-0.9,0.4-1.3c0.2-0.7,0.4-1.4,0.3-2.2c0-0.5,0-1,0-1.5
		c0.1,0.2,0.2,0.3,0.2,0.5c0.1,0.2,0.1,0.4,0.1,0.6c0,1.3,0,2.7,0,4C54.7,49.9,54.6,50.3,54.5,50.7z"/>
	<path class="st2" d="M14.3,35.2c0.8,0,1.5,0.1,2.3,0.1c0.4,0,0.7,0.1,1,0.4c0,0.5,0,1,0,1.5c0,0.7-0.1,1.5-0.4,2.2
		c-0.1,0.4-0.3,0.9-0.5,1.3c-0.2,0.5-0.6,0.7-1,0.8c-0.8,0.2-1.7,0.3-2.6,0.3c-0.4,0-0.8,0-1.2,0c-0.6,0-1.2-0.1-1.8-0.1
		c-0.3,0-0.7-0.1-1-0.1c-0.7-0.1-1.4-0.1-2.2-0.1c-0.3,0-0.5,0-0.8,0c-0.4,0-0.7,0-1.1-0.1c-0.2,0-0.4-0.2-0.5-0.4s-0.2-0.4-0.3-0.5
		l0,0c0,0,0,0,0-0.1c0-0.2-0.1-0.4,0-0.7c0-0.9,0.1-1.9,0.2-2.8c0-0.4,0.2-0.8,0.5-1.1c0.2-0.2,0.4-0.3,0.6-0.3
		c0.5,0,1.1-0.1,1.6-0.1c1.6-0.1,3.1-0.1,4.7-0.1C12.5,35.2,13.4,35.2,14.3,35.2z"/>
	<path class="st4" d="M5.1,41.3c0.4,0,0.7,0.1,1.1,0.1c0.3,0,0.5,0,0.8,0c0.7,0,1.4,0.1,2.2,0.1c0.3,0,0.7,0.1,1,0.1
		c0.6,0,1.2,0.1,1.8,0.1c0.4,0,0.8,0,1.2,0c0.9,0,1.7-0.1,2.6-0.3c0.5-0.1,0.9-0.4,1-0.8c0.2-0.4,0.3-0.9,0.5-1.3
		c0.2-0.7,0.4-1.4,0.4-2.2c0-0.5,0-1,0-1.5c0.1,0.2,0.2,0.3,0.3,0.5c0.1,0.2,0.1,0.4,0.1,0.6c0,1.3,0,2.7,0,4c0,0.4-0.1,0.8-0.2,1.2
		c-0.1,0.3-0.3,0.5-0.6,0.5c-0.3,0-0.6,0.1-0.9,0.1c-1,0-2.1,0.1-3.1,0.1c-2,0-4.1,0-6.1-0.1c-0.5,0-1-0.1-1.5-0.1
		c-0.6-0.1-0.9-0.4-1-1c-0.1-0.4-0.1-0.8-0.1-1.1c0.1,0.2,0.2,0.4,0.3,0.5C4.7,41.1,4.8,41.3,5.1,41.3z"/>
	<path class="st2" d="M12.4,30.9c0-0.9,0.1-1.9,0.2-2.8c0-0.4,0.2-0.8,0.5-1.1c0.2-0.2,0.4-0.3,0.6-0.3c0.5,0,1.1-0.1,1.6-0.1
		c1.6-0.1,3.1-0.1,4.7-0.1c0.9,0,1.7,0,2.6,0.1c0.8,0,1.5,0.1,2.3,0.1c0.4,0,0.7,0.1,1,0.4c0,0.5,0,1,0,1.5c0,0.7-0.1,1.5-0.4,2.2
		c-0.1,0.4-0.3,0.9-0.5,1.3c-0.2,0.5-0.6,0.7-1,0.8c-0.8,0.2-1.7,0.3-2.6,0.3c-0.4,0-0.8,0-1.2,0c-0.6,0-1.2-0.1-1.8-0.1
		c-0.3,0-0.7-0.1-1-0.1c-0.7-0.1-1.4-0.1-2.2-0.1c-0.3,0-0.5,0-0.8,0c-0.4,0-0.7,0-1.1-0.1c-0.2,0-0.4-0.2-0.5-0.4s-0.2-0.4-0.3-0.5
		l0,0c0,0,0,0,0-0.1C12.4,31.3,12.4,31.1,12.4,30.9z"/>
	<path class="st4" d="M13.3,32.6c0.4,0,0.7,0.1,1.1,0.1c0.3,0,0.5,0,0.8,0c0.7,0,1.4,0.1,2.2,0.1c0.3,0,0.7,0.1,1,0.1
		c0.6,0,1.2,0.1,1.8,0.1c0.4,0,0.8,0,1.2,0c0.9,0,1.7-0.1,2.6-0.3c0.5-0.1,0.9-0.4,1-0.8c0.2-0.4,0.3-0.9,0.5-1.3
		c0.2-0.7,0.4-1.4,0.4-2.2c0-0.5,0-1,0-1.5c0.1,0.2,0.2,0.3,0.3,0.5c0.1,0.2,0.1,0.4,0.1,0.6c0,1.3,0,2.7,0,4c0,0.4-0.1,0.8-0.2,1.2
		c-0.1,0.3-0.3,0.5-0.6,0.5c-0.3,0-0.6,0.1-0.9,0.1c-1,0-2.1,0.1-3.1,0.1c-2,0-4.1,0-6.1-0.1c-0.5,0-1-0.1-1.5-0.1
		c-0.6-0.1-0.9-0.4-1-1c-0.1-0.4-0.1-0.8-0.1-1.1c0.1,0.2,0.2,0.4,0.3,0.5C12.9,32.4,13.1,32.5,13.3,32.6z"/>
	<path class="st2" d="M74.9,24.1c-0.3,0-0.5,0-0.8,0c-0.4,0-0.7,0-1.1-0.1c-0.2,0-0.4-0.2-0.5-0.4c-0.1-0.2-0.2-0.4-0.3-0.5l0,0
		c0,0,0,0,0-0.1c0-0.2-0.1-0.4,0-0.7c0-0.9,0.1-1.9,0.2-2.8c0-0.4,0.2-0.8,0.5-1.1c0.2-0.2,0.4-0.3,0.6-0.3c0.5,0,1.1-0.1,1.6-0.1
		c1,0,1.9-0.1,2.9-0.1v6.5c-0.3,0-0.5,0-0.8-0.1C76.4,24.2,75.7,24.1,74.9,24.1z"/>
	<path class="st4" d="M73.4,25.2c-0.6-0.1-0.9-0.4-1-1c-0.1-0.4-0.1-0.8-0.1-1.1c0.1,0.2,0.2,0.4,0.3,0.5c0.1,0.2,0.3,0.4,0.5,0.4
		c0.4,0,0.7,0.1,1.1,0.1c0.3,0,0.5,0,0.8,0c0.7,0,1.4,0.1,2.2,0.1c0.3,0,0.5,0,0.8,0.1v1.1c-1,0-2,0-3.1,0
		C74.3,25.3,73.9,25.2,73.4,25.2z"/>
	<path class="st2" d="M1.5,0.5c1.1,0,2.2,0.1,3.3,0.2c0.5,0,1,0,1.4,0.3c0.3,0.1,0.4,0.3,0.5,0.6c0,0.4,0.1,0.8,0.1,1.2
		c0,1.1,0,2.3-0.1,3.4C6.4,6.3,6.2,6.4,5.9,6.4c-0.5,0.1-1,0.2-1.4,0.2C4,6.7,3.6,6.8,3.1,6.8c-0.2,0-0.3,0-0.5,0.1
		c-0.3,0-0.7,0-1,0c-0.4,0-0.7,0-1.1,0c-0.2,0-0.3,0-0.5,0V0.5C0.5,0.5,1,0.5,1.5,0.5z"/>
	<path class="st3" d="M1.6,6.9c0.3,0,0.7,0,1,0c0.2,0,0.3,0,0.5-0.1c0.5,0,0.9-0.1,1.4-0.2s0.9-0.1,1.4-0.2c0.3-0.1,0.6-0.1,0.8-0.2
		C6.6,6.6,6.6,7,6.5,7.4C6.4,7.7,6.2,7.9,5.9,8c-0.5,0.1-1,0.2-1.5,0.2c-1.5,0-2.9,0-4.4,0V6.9c0.2,0,0.3,0,0.5,0
		C0.9,6.9,1.2,6.9,1.6,6.9z"/>
	<path class="st2" d="M2.4,43.6c1.1,0,2.2,0.1,3.3,0.2c0.5,0,1,0,1.4,0.3c0.3,0.1,0.4,0.3,0.5,0.6c0.1,0.4,0.1,0.8,0.1,1.2
		c0,1.1,0,2.3-0.1,3.4c-0.3,0.1-0.6,0.2-0.8,0.2c-0.5,0.1-0.9,0.2-1.4,0.2c-0.4,0.1-0.9,0.1-1.3,0.2c-0.2,0-0.3,0-0.5,0.1
		c-0.3,0-0.7,0-1,0c-0.4,0-0.7,0-1.1,0c-0.5,0-1,0-1.5,0v-6.4c0.1,0,0.2,0,0.4,0C1,43.6,1.7,43.6,2.4,43.6z"/>
	<path class="st3" d="M2.6,50c0.3,0,0.7,0,1,0c0.2,0,0.3,0,0.5-0.1c0.4-0.1,0.9-0.1,1.3-0.2c0.5-0.1,0.9-0.1,1.4-0.2
		c0.3-0.1,0.6-0.1,0.8-0.2c-0.1,0.4-0.1,0.8-0.3,1.2C7.4,50.8,7.2,51,6.9,51c-0.5,0.1-1,0.2-1.5,0.2c-1.5,0-3,0.1-4.4,0.1
		c-0.3,0-0.6,0-1,0V50c0.5,0,1,0,1.5,0C1.8,50,2.2,50,2.6,50z"/>
	<path class="st2" d="M6.8,70c1.3,0,2.6-0.1,3.9-0.1c0.4,0,0.9,0.1,1.3,0.1c0.5,0.1,0.8,0.4,0.8,0.9c0,0.7,0,1.5,0.1,2.2
		c-0.2,0.6-0.4,1.1-0.6,1.7c-0.2,0.8-0.8,1.2-1.6,1.3c-0.8,0.1-1.6,0.1-2.3,0.1c-1.1,0-2.2,0-3.3,0c-0.4,0-0.9,0-1.3,0
		c-1.1,0-2.1,0-3.2-0.1c-0.2,0-0.4,0-0.6,0V70h0.1C2.3,70,4.6,70,6.8,70z"/>
	<path class="st4" d="M3.9,76.2c0.4,0,0.9,0,1.3,0c1.1,0,2.2,0,3.3,0c0.8,0,1.6-0.1,2.3-0.1c0.8-0.1,1.4-0.5,1.6-1.3
		c0.2-0.6,0.4-1.1,0.6-1.7c0,0.8,0,1.6-0.1,2.4c0,0.4-0.1,0.7-0.2,1.1c-0.1,0.4-0.3,0.6-0.7,0.6c-0.7,0.1-1.3,0.1-2,0.2
		c-1.5,0-3.1,0-4.6,0c-1.3,0-2.6,0-4,0c-0.5,0-0.9,0-1.4,0v-1.3c0.2,0,0.4,0,0.6,0C1.8,76.2,2.9,76.2,3.9,76.2z"/>
	<path class="st2" d="M5.9,26.4c1.2,0,2.4-0.1,3.6-0.1c0.4,0,0.8,0.1,1.2,0.1c0.4,0.1,0.7,0.4,0.8,0.9c0,0.7,0,1.5,0.1,2.2
		c-0.2,0.6-0.4,1.1-0.5,1.7c-0.2,0.8-0.7,1.2-1.4,1.3s-1.4,0.1-2.1,0.1c-1,0-2,0-3,0c-0.4,0-0.8,0-1.2,0c-1,0-1.9,0-2.9-0.1
		c-0.2,0-0.3,0-0.5,0v-6.1l0,0C1.9,26.4,3.9,26.4,5.9,26.4z"/>
	<path class="st4" d="M3.6,32.6c0.4,0,0.8,0,1.2,0c1,0,2,0,3,0c0.7,0,1.4-0.1,2.1-0.1c0.7-0.1,1.2-0.5,1.4-1.3
		c0.1-0.6,0.3-1.1,0.5-1.7c0,0.8,0,1.6-0.1,2.4c0,0.4-0.1,0.7-0.2,1.1c-0.1,0.4-0.3,0.6-0.7,0.6c-0.6,0.1-1.2,0.1-1.8,0.2
		c-1.4,0-2.8,0-4.2,0c-1.2,0-2.4,0-3.6,0c-0.4,0-0.8,0-1.2,0v-1.3c0.2,0,0.3,0,0.5,0C1.7,32.6,2.7,32.6,3.6,32.6z"/>
	<path class="st2" d="M2.2,52.6c0.5,0,0.7,0.4,0.8,0.8c0,0.7,0,1.5,0.1,2.2c-0.2,0.6-0.4,1.1-0.5,1.7c-0.2,0.8-0.7,1.2-1.4,1.3
		c-0.4,0-0.8,0.1-1.2,0.1v-6.2c0.4,0,0.8,0,1.2,0C1.5,52.5,1.9,52.5,2.2,52.6z"/>
	<path class="st4" d="M2.7,57.3c0.1-0.6,0.3-1.1,0.5-1.7c0,0.8,0,1.6-0.1,2.4c0,0.4-0.1,0.7-0.2,1.1c-0.1,0.4-0.3,0.6-0.7,0.6
		c-0.6,0.1-1.2,0.1-1.7,0.2c-0.2,0-0.3,0-0.5,0v-1.2c0.4,0,0.8-0.1,1.2-0.1C2,58.5,2.6,58.1,2.7,57.3z"/>
	<path class="st2" d="M2.6,9.5c0.5,0,0.8,0.4,0.8,0.8c0,0.7,0,1.5,0.1,2.2c-0.2,0.6-0.4,1.1-0.6,1.7c-0.2,0.8-0.8,1.2-1.6,1.3
		c-0.4,0-0.9,0.1-1.3,0.1V9.4c0.4,0,0.8,0,1.2,0C1.7,9.3,2.2,9.4,2.6,9.5z"/>
	<path class="st4" d="M2.8,14.2c0.2-0.6,0.4-1.1,0.6-1.7c0,0.8,0,1.6-0.1,2.4c0,0.4-0.1,0.7-0.2,1.1c-0.1,0.4-0.3,0.6-0.7,0.6
		c-0.7,0.1-1.3,0.1-2,0.2c-0.1,0-0.3,0-0.4,0v-1.2c0.4,0,0.9-0.1,1.3-0.1C2,15.4,2.6,15,2.8,14.2z"/>
	<path class="st2" d="M2.1,35.2c0.6,0.1,1,0.4,1,1c0,1.2,0,2.3,0,3.5c-0.2,0.3-0.4,0.6-0.6,0.9C2.3,40.7,2,40.8,1.7,41
		c-0.3,0.1-0.7,0.2-1,0.3c-0.2,0-0.4,0.1-0.7,0.1V35c0.3,0,0.6,0,0.8,0C1.3,35.1,1.7,35.1,2.1,35.2z"/>
	<path class="st3" d="M1.6,41c0.3-0.1,0.6-0.3,0.8-0.5c0.3-0.2,0.4-0.6,0.6-0.9c0,0.3,0,0.6,0,1c-0.1,0.4-0.1,0.8-0.2,1.2
		c-0.1,0.3-0.2,0.5-0.5,0.5s-0.5,0.1-0.8,0.1c-0.5,0-1,0-1.5,0v-1.2c0.2,0,0.4-0.1,0.7-0.1C0.9,41.2,1.3,41.1,1.6,41z"/>
	<path class="st2" d="M6.2,61.2c0.5,0,1,0,1.5,0.1c0.7,0.1,1.2,0.4,1.2,1c0,1.2,0,2.3,0.1,3.5c-0.3,0.3-0.5,0.6-0.8,0.9
		c-0.3,0.1-0.6,0.3-0.9,0.4c-0.4,0.1-0.8,0.2-1.2,0.3c-0.4,0.1-0.8,0.1-1.2,0.1c-1.2,0-2.4,0.1-3.6,0.1c-0.4,0-0.9,0-1.3-0.1v-6.4
		c0.7,0,1.5,0,2.2,0C3.5,61,4.9,61.1,6.2,61.2z"/>
	<path class="st3" d="M4.9,67.5c0.4,0,0.8-0.1,1.2-0.1c0.4-0.1,0.8-0.1,1.2-0.3c0.4-0.1,0.7-0.3,1-0.5c0.3-0.2,0.5-0.6,0.8-0.9
		c0,0.3,0,0.6,0,1c-0.1,0.4-0.2,0.8-0.3,1.2c-0.1,0.3-0.3,0.5-0.6,0.5c-0.3,0-0.6,0.1-1,0.1c-1.4,0-2.9,0.1-4.3,0.1
		c-1,0-1.9,0-2.9,0v-1.1c0.4,0,0.9,0.1,1.3,0.1C2.5,67.6,3.7,67.5,4.9,67.5z"/>
	<path class="st2" d="M4.4,17.9c0.8,0,1.5,0.1,2.3,0.1c0.4,0,0.7,0.1,1,0.4c0,0.5,0,1,0,1.5c0,0.7-0.1,1.5-0.4,2.2
		C7.2,22.5,7,23,6.8,23.4c-0.2,0.5-0.6,0.7-1,0.8c-0.8,0.2-1.7,0.3-2.6,0.3c-0.4,0-0.8,0-1.2,0c-0.6,0-1.2-0.1-1.8-0.1
		c-0.1,0-0.2,0-0.2,0v-6.5c0.6,0,1.2,0,1.8,0C2.7,17.8,3.5,17.8,4.4,17.9z"/>
	<path class="st4" d="M1.9,24.4c0.4,0,0.8,0,1.2,0c0.9,0,1.7-0.1,2.6-0.3c0.5-0.1,0.9-0.4,1-0.8C6.9,22.9,7,22.4,7.2,22
		c0.2-0.7,0.4-1.4,0.4-2.2c0-0.5,0-1,0-1.5c0.1,0.2,0.2,0.3,0.3,0.5c0,0.2,0,0.4,0,0.6c0,1.3,0,2.7,0,4c0,0.4-0.1,0.8-0.2,1.2
		c-0.1,0.3-0.3,0.5-0.6,0.5c-0.3,0-0.6,0.1-0.9,0.1c-1,0-2.1,0.1-3.1,0.1s-2,0-3.1,0v-1.1c0.1,0,0.2,0,0.2,0
		C0.7,24.4,1.3,24.4,1.9,24.4z"/>
	<path class="st2" d="M51.2,13.4c0-0.9,0.1-1.9,0.1-2.8c0-0.4,0.2-0.8,0.4-1.1c0.2-0.2,0.3-0.3,0.6-0.3c0.5,0,1-0.1,1.5-0.1
		c1.5-0.1,3,0,4.4-0.1c0.8,0,1.6,0,2.4,0.1c0.7,0,1.4,0,2.1,0c0.4,0,0.7,0.1,1,0.4c0,0.5,0,1,0,1.5c0,0.7-0.1,1.5-0.3,2.2
		c-0.1,0.4-0.3,0.9-0.4,1.3c-0.2,0.5-0.5,0.7-1,0.8c-0.8,0.2-1.6,0.3-2.4,0.3c-0.4,0-0.8,0-1.2,0c-0.6,0-1.1-0.1-1.7-0.1
		c-0.3,0-0.7-0.1-1-0.1c-0.7-0.1-1.4-0.1-2-0.1c-0.2,0-0.5,0-0.7,0c-0.3,0-0.7,0-1-0.1c-0.2,0-0.4-0.2-0.5-0.4s-0.2-0.4-0.3-0.5l0,0
		c0,0,0,0,0-0.1C51.2,13.9,51.2,13.7,51.2,13.4z"/>
	<path class="st4" d="M52.1,15.1c0.3,0,0.7,0.1,1,0.1c0.2,0,0.5,0,0.7,0c0.7,0,1.4,0.1,2,0.1c0.3,0,0.7,0.1,1,0.1
		c0.6,0,1.1,0.1,1.7,0.1c0.4,0,0.8,0,1.2,0c0.8,0,1.6-0.1,2.4-0.3c0.5-0.1,0.8-0.4,1-0.8c0.2-0.4,0.3-0.9,0.4-1.3
		c0.2-0.7,0.4-1.4,0.3-2.2c0-0.5,0-1,0-1.5c0.1,0.2,0.2,0.3,0.3,0.5c0.1,0.2,0.1,0.4,0.1,0.6c0,1.3,0,2.7,0,4c0,0.4-0.1,0.8-0.2,1.2
		c-0.1,0.3-0.2,0.5-0.6,0.5c-0.3,0-0.6,0.1-0.9,0.1c-1,0-2,0.1-2.9,0.1c-1.9,0-3.9,0-5.8-0.1c-0.5,0-0.9-0.1-1.4-0.1
		c-0.5-0.1-0.9-0.4-0.9-1c-0.1-0.4-0.1-0.8-0.1-1.1c0.1,0.2,0.2,0.4,0.3,0.5C51.7,14.9,51.9,15.1,52.1,15.1z"/>
	<g>
		<path class="st5" d="M36.9,19c0,0.1-0.2,0.2-0.3,0.2c-0.2,0-0.5,0-0.7-0.1c-0.1,0-0.2-0.1-0.2-0.2s0.1-0.2,0.2-0.2
			c0.2-0.1,0.5-0.1,0.8,0C36.9,18.7,37,18.8,36.9,19z"/>
		<path class="st5" d="M36.8,19.7c-0.1,0-0.1-0.1-0.2-0.1c0,0,0,0,0-0.1c0,0,0-0.1,0.1-0.1c0.2-0.1,0.4-0.1,0.6,0
			c0.1,0,0.2,0.1,0.1,0.2l-0.1,0.1C37.2,19.8,37,19.8,36.8,19.7z"/>
		<path class="st5" d="M30.1,21.9c0.1,0,0.3,0,0.4,0s0.2-0.1,0.3-0.3v-0.1c0-0.2-0.2-0.3-0.3-0.3c-0.2,0-0.3,0-0.5,0.1
			c-0.2,0-0.3,0.1-0.4,0.3c0,0.1,0.1,0.2,0.2,0.3C29.8,21.9,29.9,21.9,30.1,21.9z"/>
		<path class="st5" d="M22.6,18.9c-0.1-0.1-0.2-0.2-0.3-0.2c-0.4-0.1-0.8,0-1.1,0.2c0,0.2,0.1,0.3,0.2,0.4s0.3,0.1,0.5,0.1
			s0.4,0,0.5-0.1C22.5,19.2,22.7,19,22.6,18.9z"/>
		<path class="st5" d="M22.5,20.1c-0.1,0.1,0,0.3,0.1,0.4s0.3,0.1,0.4,0.1s0.3,0,0.4-0.1s0.2-0.2,0.1-0.3c0-0.1-0.1-0.1-0.2-0.1
			c-0.2-0.1-0.5-0.1-0.7,0C22.6,20,22.5,20.1,22.5,20.1z"/>
		<path class="st5" d="M16.8,10.6c0-0.1-0.1-0.3-0.2-0.3c-0.1-0.1-0.3,0-0.4,0c-0.2,0-0.5,0.1-0.6,0.3c0,0.2,0.3,0.3,0.6,0.4
			c0.1,0,0.3,0,0.4,0C16.7,10.9,16.8,10.7,16.8,10.6z"/>
		<path class="st5" d="M15,11c-0.1,0-0.3,0-0.4,0.1c-0.1,0-0.2,0.2-0.2,0.2c0,0.1,0.1,0.1,0.1,0.1c0.2,0.1,0.4,0,0.5,0
			c0,0,0.1,0,0.1-0.1C15.3,11.1,15.2,11,15,11z"/>
		<path class="st5" d="M17.2,13.4c0-0.2-0.3-0.2-0.5-0.2s-0.4,0.1-0.5,0.3c0,0.1,0.1,0.2,0.2,0.3c0.1,0,0.3,0,0.4,0
			C17,13.7,17.2,13.6,17.2,13.4z"/>
		<path class="st5" d="M7.2,14.2c-0.1,0-0.1,0.1-0.2,0.1c-0.1,0.1,0,0.3,0.2,0.4c0.1,0.1,0.3,0.1,0.4,0.1s0.1,0,0.2-0.1
			c0.2-0.1,0.2-0.4,0-0.5C7.7,14.1,7.4,14.1,7.2,14.2z"/>
		<path class="st5" d="M9.8,1.4c-0.2,0-0.5,0-0.7,0.2C9.1,1.7,9,1.7,9,1.8C9,2,9.2,2.1,9.4,2.2c0.4,0.1,0.9,0.1,1.4-0.1
			c0-0.2-0.1-0.4-0.3-0.5C10.3,1.5,10,1.4,9.8,1.4z"/>
		<path class="st5" d="M12.3,1.4c0-0.1-0.1-0.2-0.3-0.3s-0.3,0-0.4,0c-0.1,0-0.2,0.1-0.3,0.2s-0.1,0.3,0,0.3
			c0.1,0.1,0.2,0.1,0.2,0.1c0.2,0,0.3,0,0.5,0C12.2,1.7,12.3,1.5,12.3,1.4z"/>
		<path class="st5" d="M11.3,2.7c-0.2-0.1-0.4,0-0.6,0.1c-0.1,0.1-0.2,0.2-0.2,0.3c0,0.2,0.3,0.3,0.4,0.3c0.2,0,0.3,0,0.4-0.1
			c0.1-0.1,0.2-0.3,0.1-0.4C11.4,2.7,11.4,2.7,11.3,2.7z"/>
		<path class="st5" d="M17.2,6.4c0.1,0,0.2,0,0.3-0.1c0.1,0,0.1-0.1,0.1-0.1c0.1-0.2,0-0.5-0.2-0.6s-0.5,0-0.7,0
			c-0.1,0-0.2,0.1-0.2,0.2c-0.1,0.2,0,0.4,0.2,0.5C16.8,6.4,17,6.4,17.2,6.4z"/>
		<path class="st5" d="M36.1,1.9c0.1-0.2-0.2-0.4-0.4-0.4c-0.4-0.1-0.8,0-1,0.3c0,0.1,0,0.1,0,0.2c0.3,0.2,0.7,0.3,1.1,0.2
			C35.9,2.1,36.1,2,36.1,1.9z"/>
		<path class="st5" d="M36.1,3.2c0.1,0,0.2-0.1,0.4-0.1c0,0,0.1,0,0.1-0.1c0.1-0.1,0-0.2-0.1-0.3c-0.2-0.2-0.5-0.2-0.7,0
			c-0.1,0.1-0.2,0.2-0.2,0.3s0.1,0.2,0.2,0.3C35.8,3.3,35.9,3.3,36.1,3.2z"/>
		<path class="st5" d="M29.8,5.1c-0.2,0-0.3,0.1-0.3,0.3c0,0.1,0.2,0.2,0.3,0.3c0.2,0.1,0.4,0.1,0.6,0c0.1,0,0.2-0.1,0.3-0.1
			c0.1-0.1,0.1-0.2,0-0.3c0-0.1-0.1-0.1-0.2-0.1C30.3,5.1,30.1,5,29.8,5.1z"/>
		<path class="st5" d="M72.4,1.9c0.1,0,0.2-0.1,0.3-0.2c0.1-0.1,0.1-0.2,0.1-0.3s-0.1-0.1-0.1-0.1C72.4,1,72,1,71.6,1.1
			c-0.2,0-0.3,0.1-0.4,0.2S71,1.6,71.1,1.7c0.1,0.1,0.2,0.2,0.4,0.2C71.8,2,72.1,2,72.4,1.9z"/>
		<path class="st5" d="M72.4,2.2c-0.1,0.1,0,0.2,0.1,0.3s0.2,0.1,0.3,0.1c0.2,0,0.4,0,0.5,0c0.2-0.1,0.3-0.3,0.2-0.4
			C73.5,2,73.2,2,73,2c-0.1,0-0.3,0.1-0.4,0.1S72.4,2.2,72.4,2.2z"/>
		<path class="st5" d="M47.8,10.5c0,0.2,0.2,0.3,0.4,0.4c0.2,0.1,0.4,0.1,0.7,0c0.1,0,0.3-0.1,0.4-0.2c0.1-0.1,0.2-0.2,0.1-0.4
			c-0.1-0.2-0.3-0.3-0.6-0.3c-0.2,0-0.4-0.1-0.6,0C47.9,10.1,47.8,10.3,47.8,10.5z"/>
		<path class="st5" d="M47.4,10.8c-0.2-0.1-0.5,0-0.7,0c-0.1,0-0.1,0.1-0.2,0.1c0,0.1,0.1,0.3,0.3,0.3c0.1,0,0.2,0.1,0.4,0.1
			c0.1,0,0.2,0,0.3-0.1s0.1-0.2,0.1-0.3C47.5,10.9,47.4,10.9,47.4,10.8z"/>
		<path class="st5" d="M43.8,13.1c0.1,0,0.3,0,0.4,0.1c0.1,0.1,0.2,0.3,0.1,0.4l-0.1,0.1c-0.3,0.2-0.7,0.1-1,0
			c-0.1,0-0.3-0.1-0.3-0.3c0-0.1,0.1-0.2,0.2-0.2C43.3,13.2,43.6,13.1,43.8,13.1z"/>
		<path class="st5" d="M38.8,14.2c0.1,0,0.3,0.1,0.3,0.2c0,0.1-0.1,0.3-0.2,0.4c-0.1,0.1-0.3,0.1-0.4,0c-0.1,0-0.2,0-0.3-0.1
			c-0.2,0-0.2-0.1-0.2-0.2s0.1-0.1,0.2-0.2C38.4,14.2,38.6,14.2,38.8,14.2z"/>
		<path class="st5" d="M59.9,18.9c0.1-0.2,0.1-0.4-0.1-0.5c-0.1,0-0.1,0-0.2-0.1c-0.2,0-0.4-0.1-0.6,0c-0.2,0-0.4,0.1-0.5,0.3
			c0,0.2,0.2,0.4,0.4,0.4c0.2,0.1,0.4,0.1,0.6,0C59.7,19,59.9,19,59.9,18.9z"/>
		<path class="st5" d="M59.8,19.7c0.2,0.1,0.6,0.1,0.8-0.1c0.1-0.1,0.2-0.2,0.1-0.3c0-0.2-0.2-0.2-0.4-0.2c-0.1,0-0.3,0-0.4,0
			c-0.1,0-0.2,0.1-0.3,0.2C59.6,19.5,59.7,19.7,59.8,19.7z"/>
		<path class="st5" d="M68.8,22.3c-0.1,0-0.3,0.1-0.3,0.3c0,0.1,0,0.2,0.1,0.3s0.2,0.1,0.3,0.1c0.2,0,0.4,0,0.6-0.1
			c0.1,0,0.3-0.1,0.3-0.2s-0.1-0.2-0.2-0.2C69.4,22.3,69.1,22.2,68.8,22.3z"/>
		<path class="st5" d="M66.8,23.2c0-0.2-0.2-0.3-0.4-0.3c-0.1,0-0.2,0-0.3,0c-0.2,0-0.3,0.1-0.4,0.3c0,0.1,0.1,0.2,0.2,0.3
			c0.1,0.1,0.2,0.1,0.3,0.1c0.1,0,0.3,0,0.4,0C66.7,23.4,66.8,23.3,66.8,23.2z"/>
		<path class="st5" d="M70.6,18.6c0-0.1-0.1-0.2-0.2-0.3c-0.1,0-0.2,0-0.3,0c-0.2,0-0.3,0-0.5,0.1c-0.1,0.1,0,0.3,0.1,0.3
			s0.3,0.1,0.4,0.1s0.2,0,0.3,0C70.5,18.8,70.5,18.7,70.6,18.6z"/>
		<path class="st5" d="M72.9,27.5c0-0.2-0.3-0.4-0.5-0.4s-0.4,0-0.5,0.1c-0.1,0-0.2,0.1-0.2,0.2s0.1,0.2,0.2,0.3
			c0.1,0.1,0.2,0.1,0.4,0.1c0.2,0,0.3,0,0.5,0C72.7,27.8,72.9,27.6,72.9,27.5z"/>
		<path class="st5" d="M69.3,28.4c-0.1,0.2,0,0.4,0.2,0.4c0.2,0.1,0.3,0.1,0.5,0.1c0.1,0,0.3,0,0.4-0.1s0-0.3-0.1-0.4
			c-0.2-0.2-0.6-0.2-0.8-0.1C69.4,28.2,69.4,28.3,69.3,28.4z"/>
		<path class="st5" d="M64.9,29.8c-0.1,0-0.3,0.1-0.3,0.2c-0.1,0.1-0.1,0.2-0.1,0.3c0,0.1,0.1,0.1,0.2,0.1c0.3,0.1,0.6,0.1,0.8,0
			c0,0,0.1,0,0.1-0.1c0.1-0.1,0-0.3,0-0.4C65.4,29.8,65.2,29.8,64.9,29.8z"/>
		<path class="st5" d="M66.9,30.8c0-0.2-0.2-0.3-0.3-0.3c-0.2,0-0.4,0-0.6,0c-0.1,0-0.3,0.1-0.3,0.3c0,0.1,0,0.2,0.1,0.3
			c0.1,0.1,0.2,0.1,0.3,0.1c0.1,0,0.3,0,0.4,0C66.7,31.1,66.9,31,66.9,30.8z"/>
		<path class="st5" d="M47.2,27.7c0,0.1-0.1,0.2-0.2,0.2c-0.4,0.1-0.8,0.2-1.2,0.1c-0.1,0-0.2-0.1-0.3-0.1c-0.1-0.1-0.1-0.2-0.1-0.3
			c0-0.1,0.2-0.2,0.3-0.2c0.2-0.1,0.4-0.1,0.6-0.1c0.3,0,0.6,0,0.8,0.2C47.1,27.6,47.2,27.7,47.2,27.7z"/>
		<path class="st5" d="M47,28.4c0.3-0.2,0.6-0.3,0.9-0.1c0.1,0,0.2,0.1,0.3,0.2c0,0.2-0.2,0.3-0.3,0.3c-0.3,0.1-0.6,0-0.8-0.2
			C47,28.6,46.9,28.5,47,28.4C46.9,28.4,47,28.4,47,28.4z"/>
		<path class="st5" d="M56,30.6c0.2,0,0.4,0,0.6,0.1c0.1,0.1,0.2,0.4,0.1,0.5c-0.1,0.1-0.2,0.1-0.3,0.1c-0.3,0-0.5,0-0.7-0.1
			c-0.1,0-0.2-0.1-0.2-0.2s0-0.1,0.1-0.2C55.6,30.7,55.8,30.6,56,30.6z"/>
		<path class="st5" d="M54.2,31.7c0-0.1,0.1-0.3,0.3-0.3s0.3,0,0.4,0c0.1,0,0.3,0.1,0.4,0.2c0,0.2-0.1,0.3-0.3,0.3
			c-0.1,0-0.2,0-0.4,0C54.4,32,54.2,31.9,54.2,31.7z"/>
		<path class="st5" d="M49.2,30.6c-0.1,0-0.1,0.1-0.1,0.2s0,0.2,0.1,0.3c0.2,0.1,0.4,0.1,0.6,0.1c0.1,0,0.3-0.1,0.3-0.2s0-0.1,0-0.2
			c-0.1-0.2-0.2-0.3-0.4-0.3C49.5,30.4,49.3,30.5,49.2,30.6z"/>
		<path class="st5" d="M2.5,36c0.1,0.1,0,0.3-0.1,0.4c-0.1,0.1-0.2,0.1-0.4,0.2c-0.4,0.1-0.8,0-1.1-0.1c-0.1,0-0.2-0.1-0.2-0.2
			c0,0,0-0.1,0.1-0.1c0.4-0.4,0.9-0.4,1.4-0.3C2.3,35.9,2.5,35.9,2.5,36z"/>
		<path class="st5" d="M31.1,36c-0.2,0.1-0.3,0.2-0.3,0.3s0.1,0.2,0.2,0.3s0.2,0.1,0.3,0.1c0.2,0,0.3,0,0.5,0s0.5-0.1,0.5-0.3
			c0-0.1,0-0.3-0.2-0.4c-0.1-0.1-0.2-0.1-0.4-0.1C31.6,35.9,31.3,35.9,31.1,36z"/>
		<path class="st5" d="M29.7,36.9c-0.1,0.1-0.3,0.2-0.3,0.3s0.1,0.2,0.2,0.2c0.3,0.1,0.6,0.1,0.8,0c0.1-0.1,0.2-0.1,0.2-0.2
			c0-0.1-0.1-0.2-0.2-0.3s-0.2-0.1-0.3-0.1C30,36.8,29.9,36.8,29.7,36.9z"/>
		<path class="st5" d="M21,36.4c0.2,0,0.3,0,0.4-0.1s0.2-0.3,0.1-0.4c-0.1-0.2-0.4-0.1-0.5-0.1c-0.2,0-0.4,0-0.5,0.1
			c-0.2,0.1-0.3,0.3-0.2,0.4c0.1,0.1,0.2,0.1,0.3,0.1C20.7,36.4,20.8,36.4,21,36.4z"/>
		<path class="st5" d="M21.5,37.2c0.2,0,0.4,0,0.6,0c0.1,0,0.2-0.1,0.2-0.2c0-0.1,0-0.2-0.1-0.3s-0.2-0.1-0.3-0.1
			c-0.1,0-0.3,0-0.4,0s-0.1,0-0.2,0.1s-0.1,0.2,0,0.3C21.3,37.1,21.4,37.2,21.5,37.2z"/>
		<path class="st5" d="M26.3,38.7c-0.2-0.1-0.5-0.1-0.8,0l-0.1,0.1c0,0.1,0,0.2,0.1,0.2s0.2,0.1,0.2,0.1c0.1,0,0.3,0,0.4,0
			s0.1,0,0.2-0.1c0.1,0,0.1-0.1,0.1-0.2C26.5,38.8,26.4,38.8,26.3,38.7z"/>
		<path class="st5" d="M31.4,40.1c0.1,0,0.2,0,0.3-0.1c0,0,0,0,0.1-0.1c0.1-0.2-0.1-0.3-0.2-0.4c-0.2,0-0.3,0-0.5,0.1
			c0,0-0.1,0-0.1,0.1c-0.1,0.1,0,0.2,0.1,0.3C31.2,40.1,31.3,40.1,31.4,40.1z"/>
		<path class="st5" d="M54.2,36.3c0,0.1,0.1,0.1,0.2,0.1c0.3,0.1,0.7,0.1,1-0.1c0.1,0,0.1,0,0.1-0.1c0.1-0.1,0-0.2,0-0.3
			s-0.2-0.1-0.3-0.1c-0.2,0-0.4,0-0.6,0c-0.1,0-0.3,0-0.4,0.1C54.2,36,54.2,36.2,54.2,36.3z"/>
		<path class="st5" d="M55.9,36.7c-0.2,0-0.3,0.1-0.5,0.1c-0.1,0-0.1,0-0.2,0.1c-0.1,0.1,0,0.2,0.1,0.3s0.2,0.1,0.3,0.1s0.2,0,0.4,0
			c0.1,0,0.2-0.1,0.3-0.2c0.1-0.2,0-0.4-0.2-0.4C55.9,36.7,56.1,36.7,55.9,36.7z"/>
		<path class="st5" d="M66.1,36.1c-0.3-0.1-0.7-0.1-1,0c-0.1,0-0.2,0.1-0.2,0.2c0,0.1,0.1,0.3,0.3,0.3c0.3,0.1,0.6,0.1,0.9,0
			c0.1,0,0.2-0.1,0.2-0.1c0.1-0.1,0.1-0.2,0.1-0.2C66.3,36.1,66.2,36.1,66.1,36.1z"/>
		<path class="st5" d="M63.7,36.8c-0.1,0-0.1,0.1-0.2,0.2c0,0.1,0.1,0.2,0.2,0.3c0.3,0.2,0.7,0.1,1-0.2C64.5,36.8,64,36.6,63.7,36.8
			z"/>
		<path class="st5" d="M64.5,39.6c-0.2,0-0.4,0.1-0.6,0.2c-0.1,0-0.1,0.1-0.1,0.1c0,0.1,0,0.2,0.1,0.2c0.1,0.1,0.1,0.1,0.2,0.1
			c0.2,0,0.4,0,0.6,0c0.2-0.1,0.3-0.2,0.3-0.4C64.9,39.7,64.7,39.6,64.5,39.6z"/>
		<path class="st5" d="M69.8,36.5c0.4,0.1,0.8,0.1,1.1,0c0.1,0,0.2-0.1,0.2-0.1c0-0.1,0-0.1,0-0.2c-0.1-0.2-0.3-0.3-0.5-0.3
			c-0.3,0-0.6,0-0.9,0.1c-0.1,0-0.3,0.1-0.3,0.3C69.5,36.4,69.6,36.5,69.8,36.5z"/>
		<path class="st5" d="M71.6,37.3c-0.2-0.1-0.5-0.1-0.7,0c-0.1,0-0.2,0.1-0.2,0.2c0,0.1,0.1,0.2,0.2,0.3c0.2,0.1,0.4,0.1,0.7,0
			c0.1,0,0.2-0.1,0.2-0.2C71.7,37.4,71.7,37.3,71.6,37.3z"/>
		<path class="st5" d="M67.4,45.3c0.3,0.2,0.8,0.2,1.2-0.1c0,0,0.1-0.1,0.1-0.2c0-0.2-0.1-0.3-0.3-0.3c-0.3-0.1-0.6,0-0.9,0
			c-0.1,0-0.1,0-0.2,0.1C67.1,45,67.3,45.2,67.4,45.3z"/>
		<path class="st5" d="M66.5,45.6l-0.1-0.1c-0.3-0.2-0.6-0.1-0.9,0.1c0,0.1,0.1,0.3,0.2,0.3c0.1,0.1,0.3,0,0.4,0s0.2,0,0.3-0.1
			C66.5,45.8,66.5,45.7,66.5,45.6z"/>
		<path class="st5" d="M59.4,48.3c-0.4-0.1-0.9,0.1-1.2,0.4c0,0.2,0.2,0.3,0.4,0.4c0.2,0.1,0.4,0.1,0.6,0.1c0.2,0,0.3,0,0.4-0.1
			c0.1-0.1,0.2-0.2,0.2-0.4C59.8,48.5,59.6,48.4,59.4,48.3z"/>
		<path class="st5" d="M72.6,46.3c0.2,0.3,0.5,0.3,0.9,0.3c0.3,0,0.6-0.1,0.8-0.3c0,0,0-0.1,0-0.2c0-0.2-0.2-0.3-0.4-0.3
			c-0.4-0.1-0.9-0.1-1.3,0.2c0,0,0,0-0.1,0.1C72.5,46.2,72.6,46.2,72.6,46.3z"/>
		<path class="st5" d="M75.5,47.7c0,0.1,0.1,0.3,0.2,0.3c0.1,0.1,0.2,0.1,0.4,0.1c0.2,0,0.3,0,0.4-0.1s0.1-0.1,0.1-0.2
			c0-0.1-0.1-0.2-0.2-0.2c-0.2-0.1-0.3-0.1-0.5-0.1C75.7,47.5,75.5,47.6,75.5,47.7z"/>
		<path class="st5" d="M39.2,45c0.1,0,0.2,0,0.3-0.1l0.1-0.1c0.1-0.1,0-0.3-0.1-0.4s-0.3-0.1-0.4-0.1c-0.2,0-0.5,0-0.7,0.1
			S38,44.6,38,44.8s0.2,0.2,0.4,0.3C38.6,45.1,38.9,45.1,39.2,45z"/>
		<path class="st5" d="M39.3,45.9c0.1,0,0.3,0,0.4,0c0.1,0,0.2,0,0.3-0.1s0.1-0.2,0.1-0.3s-0.1-0.1-0.2-0.1
			c-0.2-0.1-0.3-0.1-0.5-0.1c-0.1,0-0.3,0-0.4,0.1c-0.1,0.1-0.2,0.3-0.1,0.4C39.1,45.9,39.2,45.9,39.3,45.9z"/>
		<path class="st5" d="M30.9,48.7c0.2,0,0.4-0.1,0.4-0.3s-0.1-0.3-0.2-0.4s-0.3-0.1-0.5-0.1c-0.3,0-0.5,0.2-0.6,0.4
			c0.1,0.2,0.2,0.3,0.4,0.3C30.5,48.7,30.7,48.7,30.9,48.7z"/>
		<path class="st5" d="M20.1,54.2c0.2,0,0.4,0,0.5,0c0.2,0,0.4-0.1,0.4-0.3c0.1-0.2-0.1-0.4-0.3-0.5c-0.2-0.1-0.5,0-0.7,0.1
			s-0.4,0.2-0.4,0.4C19.7,54.1,19.9,54.2,20.1,54.2z"/>
		<path class="st5" d="M21.4,54.3c-0.1,0-0.2,0-0.3,0.1c-0.1,0.1-0.2,0.2-0.2,0.3c0,0.2,0.2,0.2,0.4,0.2c0.1,0,0.3,0,0.4-0.1
			s0.2-0.2,0.1-0.3C21.7,54.4,21.6,54.4,21.4,54.3c-0.1,0-0.2,0-0.4,0.1L21.4,54.3z"/>
		<path class="st5" d="M30.2,56.7c-0.2,0-0.5,0-0.7,0.1c-0.1,0-0.2,0.1-0.2,0.2c0,0.1,0.1,0.3,0.2,0.3c0.2,0.1,0.5,0.1,0.7,0.1
			c0.1,0,0.2-0.1,0.3-0.1c0.1-0.2,0-0.4-0.1-0.5C30.2,56.7,30.4,56.8,30.2,56.7z"/>
		<path class="st5" d="M6.4,45.2c0-0.1,0-0.2,0-0.3c-0.1-0.1-0.2-0.1-0.4-0.1c-0.3,0-0.5,0-0.8,0.1C5.1,44.8,5,44.9,5,45
			s0,0.2,0.1,0.3s0.2,0.1,0.3,0.2c0.2,0.1,0.4,0.1,0.6,0.1C6.2,45.5,6.4,45.4,6.4,45.2z"/>
		<path class="st5" d="M6.6,46.1c-0.2-0.1-0.5,0-0.8,0.1c-0.1,0.1-0.2,0.2-0.2,0.3c0,0.2,0.2,0.2,0.4,0.2c0.2,0,0.4,0,0.6-0.1
			s0.3-0.3,0.1-0.5C6.7,46.1,6.7,46.1,6.6,46.1z"/>
		<path class="st5" d="M7.8,62.2c-0.3,0-0.6,0-0.8,0.1c-0.1,0-0.2,0.1-0.3,0.2c-0.1,0.1-0.1,0.2-0.1,0.3s0.1,0.1,0.1,0.1
			C6.8,63,7.1,63,7.3,63c0.3,0,0.6-0.1,0.8-0.4c0,0,0.1-0.1,0.1-0.2C8.2,62.3,8,62.2,7.8,62.2z"/>
		<path class="st5" d="M4.8,63.2c-0.3-0.2-0.7-0.1-1.1,0c-0.1,0-0.1,0.1-0.2,0.1c-0.1,0.1,0.1,0.3,0.2,0.3c0.3,0.1,0.6,0,0.9-0.1
			c0.1,0,0.2-0.1,0.2-0.2C4.9,63.3,4.9,63.2,4.8,63.2z"/>
		<path class="st5" d="M6.4,66c0-0.1-0.2-0.1-0.2,0c-0.2,0-0.3,0.1-0.3,0.3c0,0.1,0.1,0.2,0.2,0.3c0.1,0,0.2,0,0.3,0
			c0.1,0,0.3,0,0.4-0.2C6.9,66.2,6.7,66,6.4,66C6.3,65.9,6.6,65.9,6.4,66z"/>
		<path class="st5" d="M22.1,66c0.1-0.1,0.3-0.2,0.2-0.3c0-0.1-0.1-0.1-0.2-0.2c-0.3-0.1-0.6-0.1-0.9,0c-0.2,0.1-0.4,0.2-0.4,0.4
			C21.2,66.2,21.7,66.3,22.1,66z"/>
		<path class="st5" d="M21.9,63.7c0,0.1,0,0.1,0,0.2c0.1,0.2,0.4,0.3,0.6,0.2c0.1,0,0.2-0.1,0.3-0.1c0.1-0.1,0.1-0.2,0.1-0.3
			s-0.1-0.1-0.2-0.1C22.4,63.6,22.2,63.6,21.9,63.7L21.9,63.7z"/>
		<path class="st5" d="M12.4,65c-0.1,0-0.3,0.1-0.4,0.2c-0.1,0.1-0.1,0.3-0.1,0.4s0.1,0.1,0.2,0.1c0.2,0.1,0.4,0.1,0.6,0.1
			c0.2,0,0.4-0.1,0.5-0.2c0-0.1,0-0.3-0.1-0.3C13,65.1,12.6,65,12.4,65z"/>
		<path class="st5" d="M36.8,66.5c0.1,0,0.2-0.1,0.3-0.2s0.1-0.2,0.1-0.3c0-0.1-0.1-0.1-0.2-0.2c-0.4-0.1-0.9-0.1-1.2,0.2
			c-0.1,0-0.1,0.1-0.1,0.2s0.1,0.3,0.3,0.3C36.2,66.5,36.5,66.6,36.8,66.5z"/>
		<path class="st5" d="M36.5,62.3c0.3,0.2,0.7,0.2,0.9,0c0.1,0,0.2-0.1,0.2-0.2c0-0.1,0-0.2-0.1-0.2c-0.1-0.1-0.2-0.1-0.2-0.1
			c-0.2,0-0.5,0-0.7,0c-0.1,0-0.2,0.1-0.3,0.2C36.3,62.2,36.4,62.3,36.5,62.3z"/>
		<path class="st5" d="M37.7,62.8h-0.1c-0.2,0-0.4,0-0.6,0.1c0,0-0.1,0-0.1,0.1c-0.1,0.1,0,0.2,0.1,0.2s0.2,0.1,0.4,0.1
			c0.1,0,0.2,0,0.3-0.1C37.8,63.1,37.8,62.9,37.7,62.8z"/>
		<path class="st5" d="M32.4,63.3c-0.1,0-0.3,0.1-0.4,0.2c-0.1,0.2,0,0.4,0.2,0.4s0.3,0.1,0.5,0.1c0.1,0,0.3,0,0.4,0
			c0.1,0,0.3-0.1,0.4-0.2c0.1-0.1,0-0.3-0.1-0.4c-0.1-0.1-0.3-0.1-0.4-0.1C32.7,63.2,32.6,63.2,32.4,63.3z"/>
		<path class="st5" d="M73.9,61.8c-0.4,0-0.7,0-1,0.2l-0.1,0.1c-0.1,0.1,0,0.3,0.2,0.4c0.3,0.2,0.6,0.2,0.9,0.2c0.1,0,0.2,0,0.4-0.1
			c0.1,0,0.2-0.1,0.2-0.3c0-0.1,0-0.3-0.2-0.4C74.2,61.9,74.1,61.8,73.9,61.8z"/>
		<path class="st5" d="M74.2,63c-0.1,0-0.2,0.1-0.3,0.1c-0.1,0-0.1,0.1-0.1,0.2c0,0,0,0,0.1,0.1c0.2,0.1,0.4,0.2,0.5,0.2
			s0.3,0,0.3-0.2c0.1-0.1,0-0.3-0.2-0.3C74.4,62.9,74.3,62.9,74.2,63z"/>
		<path class="st5" d="M58.1,70.5c-0.1,0.1-0.3,0.1-0.3,0.3c0,0.2,0.2,0.3,0.4,0.4c0.3,0.1,0.7,0,1-0.1c0.2-0.1,0.3-0.2,0.3-0.3
			c0-0.2-0.2-0.3-0.4-0.3C58.8,70.4,58.5,70.4,58.1,70.5z"/>
		<path class="st5" d="M59.7,72v-0.1v-0.1l-0.1-0.1c-0.2,0-0.4,0-0.6,0c-0.1,0-0.3,0.1-0.3,0.3c0,0.1,0.1,0.2,0.3,0.2
			c0.1,0,0.3,0.1,0.4,0C59.5,72.2,59.7,72.1,59.7,72z"/>
		<path class="st5" d="M52.5,74.1l-0.1,0.1c0,0.1,0.1,0.1,0.1,0.2c0.2,0.1,0.4,0.1,0.5,0.1c0.2,0,0.4-0.1,0.4-0.2
			c0-0.2-0.2-0.3-0.4-0.3C52.9,73.9,52.7,74,52.5,74.1z"/>
		<path class="st5" d="M53.4,74.6c-0.1,0.1,0,0.2,0.1,0.3c0.3,0.2,0.7,0.1,0.9-0.2c0-0.2-0.2-0.3-0.4-0.3s-0.4,0-0.5,0.1
			C53.5,74.6,53.4,74.6,53.4,74.6z"/>
		<path class="st5" d="M54.2,72.1c0,0.1,0.1,0.1,0.2,0.2c0.1,0,0.3,0.1,0.4,0.1c0.2,0,0.5-0.1,0.5-0.3c0-0.1-0.1-0.3-0.2-0.3
			s-0.3-0.1-0.4-0.1c-0.2,0-0.3,0-0.4,0.1C54.2,71.8,54.1,72,54.2,72.1z"/>
		<path class="st5" d="M31.4,71.1c0.3,0.2,0.7,0.2,1,0.1c0.1-0.1,0.3-0.2,0.3-0.3c0-0.1-0.1-0.2-0.2-0.3s-0.2-0.1-0.3-0.1
			c-0.2,0-0.5,0-0.7,0c-0.1,0-0.2,0.1-0.3,0.1c-0.1,0.1-0.1,0.2,0,0.3C31.4,71.1,31.4,71.1,31.4,71.1z"/>
		<path class="st5" d="M32.7,71.4c-0.1,0-0.3,0.1-0.3,0.2c0,0.2,0.2,0.3,0.3,0.3c0.2,0,0.5,0,0.7-0.2c0-0.2-0.1-0.3-0.3-0.3
			C33,71.4,32.8,71.4,32.7,71.4z"/>
		<path class="st5" d="M38,70.5c0-0.1-0.1-0.1-0.2-0.2c-0.3-0.1-0.7,0-1,0.1c0,0.1,0,0.2,0.1,0.3c0.1,0.1,0.2,0.1,0.3,0.1
			s0.3,0,0.4,0c0.1,0,0.2,0,0.3-0.1C38,70.8,38,70.6,38,70.5z"/>
		<path class="st5" d="M43.4,74.6c-0.3-0.1-0.6,0-0.9,0.1c-0.1,0-0.1,0.1-0.1,0.1c-0.1,0.1,0,0.2,0.1,0.3c0.1,0.1,0.2,0.1,0.3,0.1
			c0.2,0,0.4,0,0.6,0c0.2,0,0.4-0.2,0.3-0.3C43.7,74.7,43.6,74.6,43.4,74.6C43.3,74.4,43.7,74.4,43.4,74.6z"/>
		<path class="st6" d="M52.2,44.7c-0.1,0-0.2,0-0.3,0.1l-0.1,0.1c0,0.1,0,0.2,0,0.2c0.2,0.3,0.6,0.3,0.9,0.3c0.1,0,0.3,0,0.4-0.1
			c0.1-0.1,0.2-0.3,0.1-0.4c0-0.1-0.1-0.1-0.2-0.1C52.7,44.7,52.5,44.6,52.2,44.7z"/>
		<path class="st6" d="M51.1,45.8c-0.1,0-0.3,0.1-0.3,0.2c0,0.1,0.2,0.2,0.3,0.3c0.1,0,0.2,0,0.4,0s0.3-0.1,0.3-0.3
			c0-0.1-0.1-0.1-0.2-0.2C51.4,45.9,51.3,45.8,51.1,45.8z"/>
		<path class="st6" d="M49.7,36.4c0.2,0,0.5-0.1,0.5-0.3s-0.2-0.3-0.4-0.4c-0.4-0.1-0.8,0-1.1,0.3C48.8,36.4,49.3,36.4,49.7,36.4z"
			/>
		<path class="st6" d="M45.1,38.5c-0.2-0.1-0.5-0.1-0.7,0s-0.3,0.2-0.3,0.3s0.2,0.2,0.3,0.2c0.2,0,0.4,0,0.6,0
			c0.1,0,0.2-0.1,0.3-0.2C45.4,38.8,45.3,38.6,45.1,38.5z"/>
		<path class="st6" d="M46.2,39.5c-0.2-0.1-0.4-0.1-0.5,0s-0.2,0.3-0.1,0.5c0.1,0.1,0.1,0.1,0.2,0.1c0.2,0,0.4,0,0.6-0.1
			C46.6,39.8,46.4,39.6,46.2,39.5z"/>
		<path class="st6" d="M16.3,35.9c-0.3-0.1-0.6,0-0.8,0c-0.1,0-0.2,0.1-0.2,0.2c-0.1,0.2,0.2,0.3,0.3,0.3c0.3,0,0.5,0,0.8,0
			c0.1,0,0.2-0.1,0.3-0.2C16.7,36.1,16.5,35.9,16.3,35.9z"/>
		<path class="st6" d="M13.1,37.5c0.2,0.1,0.5,0.1,0.7,0c0.1,0,0.2-0.1,0.2-0.2c0.1-0.2,0-0.4-0.2-0.5s-0.4-0.1-0.6,0
			c-0.2,0-0.4,0.2-0.4,0.4C12.9,37.4,13,37.4,13.1,37.5z"/>
		<path class="st6" d="M14.6,37.7c-0.2,0-0.4,0.1-0.5,0.2c0,0.1,0.2,0.2,0.3,0.3c0.1,0,0.3,0,0.4,0c0.1,0,0.2,0,0.2-0.1
			c0.1-0.1,0-0.2-0.1-0.3C14.9,37.7,14.7,37.7,14.6,37.7z"/>
		<path class="st6" d="M6.8,40.5c0.1,0,0.2,0,0.2-0.1C7.1,40.3,7,40,6.8,40c-0.3-0.1-0.7,0-0.9,0.3c0,0.2,0.2,0.3,0.4,0.3
			C6.5,40.6,6.6,40.6,6.8,40.5z"/>
		<path class="st6" d="M9.8,27c-0.3,0-0.6,0-0.8,0.1c-0.1,0-0.2,0.1-0.2,0.1c-0.1,0.2,0.1,0.4,0.2,0.5c0.3,0.2,0.7,0.2,1.1,0.1
			c0.2,0,0.3-0.1,0.4-0.3c0.1-0.2,0-0.4-0.2-0.5C10.2,27,10,27,9.8,27z"/>
		<path class="st6" d="M7.3,28.4c0,0.2,0.2,0.2,0.4,0.3c0.2,0,0.4,0,0.5-0.2c0.1-0.1,0.1-0.4,0-0.5c-0.1,0-0.1,0-0.2,0
			c-0.2,0-0.3,0-0.4,0.1S7.2,28.2,7.3,28.4z"/>
		<path class="st6" d="M6.1,18.6c-0.3,0-0.6,0-0.8,0.2c-0.1,0.1-0.1,0.1-0.2,0.2c-0.1,0.2,0.1,0.4,0.3,0.5c0.2,0.1,0.4,0,0.6,0
			c0.2-0.1,0.3-0.1,0.4-0.3c0.1-0.2,0.1-0.4,0-0.5C6.4,18.6,6.2,18.6,6.1,18.6z"/>
		<path class="st6" d="M3.9,19.5c-0.1,0-0.3,0.1-0.3,0.1c-0.1,0.1-0.1,0.2,0,0.4c0.1,0.1,0.1,0.1,0.2,0.1c0.3,0.1,0.5,0,0.8-0.1
			c0.1-0.2,0-0.3-0.1-0.4C4.2,19.5,4,19.5,3.9,19.5z"/>
		<path class="st6" d="M2.7,23.1c-0.4-0.1-0.8,0-1,0.4c0.3,0.2,0.6,0.3,1,0.2c0.1,0,0.3-0.1,0.3-0.2S2.9,23.2,2.7,23.1z"/>
		<path class="st6" d="M33.1,10.8c0.1,0,0.2,0,0.3,0s0.3,0,0.4-0.1c0.1-0.1,0.1-0.3,0.1-0.4c-0.1-0.1-0.2-0.1-0.3-0.1
			c-0.2,0-0.5,0-0.7,0.1c-0.1,0-0.1,0.1-0.1,0.1c-0.1,0.1,0,0.3,0.1,0.3C32.9,10.8,33,10.8,33.1,10.8z"/>
		<path class="st6" d="M31.7,10c-0.2,0-0.3,0-0.5,0.1c-0.1,0-0.1,0.1-0.1,0.1s0,0.1,0.1,0.1c0.2,0.1,0.4,0.1,0.6,0l0.1-0.1
			C31.9,10.2,31.8,10.1,31.7,10z"/>
		<path class="st6" d="M32,11.2c0.1,0,0.2,0,0.2,0c0.1,0,0.1-0.1,0.1-0.2c0-0.1-0.1-0.1-0.1-0.1c-0.2-0.1-0.4-0.1-0.5,0
			c0,0-0.1,0-0.1,0.1c0,0,0,0.1,0.1,0.1C31.8,11.2,31.9,11.2,32,11.2z"/>
		<path class="st6" d="M20.8,14.8c0.3,0.2,0.6,0.2,0.9,0l0.1-0.1c0.1-0.1,0.1-0.3,0-0.4c-0.1-0.1-0.2-0.2-0.4-0.2
			c-0.1,0-0.3,0-0.4,0.1c-0.1,0-0.2,0.1-0.2,0.1c-0.1,0.1-0.1,0.2-0.1,0.2C20.6,14.7,20.7,14.8,20.8,14.8z"/>
		<path class="st6" d="M54.8,19.6c0.2,0,0.5-0.1,0.5-0.4c0-0.1,0-0.2-0.1-0.2c-0.2-0.2-0.4-0.3-0.6-0.3c-0.2,0-0.5,0.1-0.7,0.2
			s-0.3,0.2-0.3,0.3c0,0.1,0.1,0.2,0.2,0.3C54.1,19.7,54.5,19.7,54.8,19.6z"/>
		<path class="st6" d="M52.7,19.8c-0.1,0-0.1,0-0.2,0c-0.1,0-0.2,0-0.3,0.1C52,20,52,20.1,52,20.2s0.1,0.1,0.2,0.1
			c0.3,0.1,0.6,0,0.8-0.1C53,20,52.8,19.9,52.7,19.8c-0.2,0-0.3,0-0.5,0H52.7z"/>
		<path class="st6" d="M67.6,13.7c-0.4-0.1-0.8-0.1-1.2,0c-0.1,0-0.2,0.1-0.3,0.2c-0.1,0.1,0,0.3,0.1,0.4c0.2,0.3,0.7,0.4,1.1,0.3
			c0.2,0,0.4-0.1,0.5-0.2c0.1-0.1,0.2-0.4,0.1-0.5C67.8,13.7,67.7,13.7,67.6,13.7z"/>
		<path class="st6" d="M69,12.4c-0.2,0-0.4-0.1-0.5,0c-0.2,0.1-0.3,0.2-0.2,0.4c0.1,0.2,0.4,0.2,0.6,0.2c0.1,0,0.2,0,0.4-0.1
			c0.1-0.1,0.2-0.2,0.2-0.3C69.3,12.5,69.1,12.4,69,12.4C68.8,12.3,69.1,12.4,69,12.4z"/>
		<path class="st6" d="M75.9,14.7c-0.3-0.3-0.8-0.3-1.1-0.1c-0.1,0.1-0.2,0.2-0.1,0.3c0,0.1,0.1,0.1,0.2,0.1
			c0.2,0.1,0.5,0.1,0.7,0.1S76,15,76,14.8L75.9,14.7z"/>
		<path class="st6" d="M66.2,2c0,0.1,0.1,0.1,0.2,0.1c0.1,0.1,0.3,0.1,0.5,0.1s0.4,0,0.5-0.1c0.2-0.1,0.3-0.2,0.3-0.4
			c-0.3-0.3-0.7-0.4-1.1-0.3c-0.1,0-0.2,0.1-0.3,0.2C66.2,1.8,66.1,1.9,66.2,2z"/>
		<path class="st6" d="M66.9,2.8c0,0.1,0.1,0.3,0.3,0.3c0.1,0,0.3,0,0.4-0.1c0.1,0,0.2-0.1,0.2-0.1c0.1-0.1,0-0.2-0.1-0.3
			s-0.2-0.1-0.3-0.1c-0.1,0-0.2,0-0.3,0.1C67,2.6,66.9,2.7,66.9,2.8z"/>
		<path class="st6" d="M58.7,5.3c0.3,0.2,0.7,0.1,1,0.1c0.1,0,0.2-0.1,0.3-0.2C60,5.1,60,5,60,5c-0.1-0.2-0.3-0.3-0.5-0.3
			s-0.4,0-0.6,0.1c-0.2,0.1-0.4,0.2-0.3,0.4C58.6,5.2,58.6,5.3,58.7,5.3z"/>
		<path class="st6" d="M51,53.6c-0.4-0.1-0.8,0-1.1,0.3c0,0-0.1,0.1-0.1,0.2c0,0.1,0.1,0.3,0.3,0.3c0.3,0.1,0.6,0.1,0.9,0.1
			c0.1,0,0.3-0.1,0.4-0.1c0.1-0.1,0.2-0.2,0.1-0.3C51.4,53.7,51.2,53.6,51,53.6z"/>
		<path class="st6" d="M51.7,54.5c-0.3-0.1-0.7,0-1,0.1l-0.1,0.1c-0.1,0.1,0.1,0.3,0.2,0.4c0.2,0.1,0.4,0.1,0.5,0.1
			c0.2,0,0.3,0,0.4-0.1c0.1-0.1,0.2-0.3,0.1-0.4C51.9,54.6,51.8,54.6,51.7,54.5z"/>
		<path class="st6" d="M52.4,58.2c0.2,0.1,0.3,0.1,0.5,0.1s0.4-0.1,0.5-0.2c0,0,0.1-0.1,0.1-0.2c0-0.2-0.2-0.3-0.3-0.4
			c-0.3-0.1-0.6,0-0.8,0.2c-0.1,0.1-0.1,0.1-0.1,0.2C52.2,58.1,52.3,58.1,52.4,58.2z"/>
		<path class="st6" d="M63.5,56.9c-0.1,0-0.1,0.1-0.2,0.1c0,0-0.1,0-0.1,0.1s0,0.1,0.1,0.2c0.3,0.1,0.6,0.1,0.9,0
			c0.1,0,0.1-0.1,0.1-0.2c0,0,0-0.1-0.1-0.1C64,56.8,63.8,56.8,63.5,56.9z"/>
		<path class="st6" d="M64.6,56c0.1-0.1,0.1-0.1,0.1-0.2c0-0.1-0.1-0.1-0.2-0.1c-0.2,0-0.5,0-0.7,0.1C63.9,56.1,64.3,56.2,64.6,56z"
			/>
		<path class="st6" d="M42.1,62.7c0.1,0,0.2-0.1,0.3-0.2c0.1-0.1,0.1-0.3-0.1-0.5c-0.1-0.1-0.3-0.2-0.5-0.2c-0.3,0-0.6,0-0.8,0.1
			s-0.3,0.2-0.3,0.3c0,0.2,0.2,0.3,0.4,0.4C41.4,62.8,41.7,62.8,42.1,62.7z"/>
		<path class="st6" d="M41.7,63.3c0.2,0.2,0.4,0.2,0.6,0.1c0.1,0,0.2,0,0.3-0.1s0.1-0.2,0.1-0.3c-0.3-0.2-0.8-0.2-1,0.1
			C41.7,63.2,41.7,63.2,41.7,63.3L41.7,63.3z"/>
		<path class="st6" d="M49.8,66.5c0.2,0.1,0.5,0.2,0.8,0.1c0.1,0,0.2,0,0.3-0.1s0.1-0.2,0.1-0.3c0-0.1-0.1-0.1-0.2-0.1
			C50.6,66,50.3,66,50,66c-0.2,0-0.4,0.2-0.3,0.3C49.7,66.4,49.8,66.5,49.8,66.5z"/>
		<path class="st6" d="M11.8,71.1c0.1,0,0.1-0.1,0.2-0.2c0-0.2-0.1-0.3-0.3-0.3c-0.4-0.1-0.8,0-1.1,0.2c-0.1,0-0.1,0.1-0.1,0.2
			s0.1,0.2,0.2,0.3C11,71.4,11.5,71.3,11.8,71.1z"/>
		<path class="st6" d="M11.4,72.8c0.1,0,0.3-0.1,0.4-0.1c0.1,0,0.2-0.1,0.2-0.2c0.1-0.2-0.1-0.3-0.3-0.4s-0.4-0.1-0.6,0
			c-0.2,0.1-0.3,0.3-0.2,0.5C11,72.8,11.2,72.8,11.4,72.8z"/>
		<path class="st6" d="M9.1,72.1c0,0,0.1,0,0.1-0.1c0.1-0.1,0.1-0.3,0-0.4s-0.3-0.1-0.5-0.1c-0.3,0-0.6,0.1-0.7,0.3
			c0.1,0.2,0.3,0.3,0.5,0.3C8.7,72.2,8.9,72.2,9.1,72.1z"/>
		<path class="st6" d="M2.3,75.1c0.1,0.2-0.1,0.3-0.2,0.4c-0.2,0.1-0.3,0-0.5,0.1c-0.1,0-0.3,0-0.4-0.1c-0.1-0.1-0.1-0.2,0-0.3
			c0-0.2,0.1-0.2,0.2-0.3c0.2-0.1,0.4-0.1,0.6-0.1C2.1,74.9,2.3,74.9,2.3,75.1z"/>
		<path class="st6" d="M76.4,72.3c0.1,0,0.2-0.1,0.3-0.2c0.1-0.1,0-0.3-0.1-0.4s-0.3-0.1-0.4-0.1c-0.2,0-0.5,0-0.7,0.1
			c-0.1,0-0.2,0.1-0.2,0.1c-0.1,0.1,0,0.2,0.1,0.3c0.1,0.1,0.2,0.1,0.3,0.1C76,72.4,76.2,72.4,76.4,72.3z"/>
	</g>
</g>
</svg>
