<svg xmlns="http://www.w3.org/2000/svg" width="14.875" height="11.688" viewBox="0 0 14.875 11.688">
  <path id="Path_1158" data-name="Path 1158" d="M.531-11.156a.517.517,0,0,1-.382-.149A.517.517,0,0,1,0-11.687a.517.517,0,0,1,.149-.382.517.517,0,0,1,.382-.149H14.344a.517.517,0,0,1,.382.149.517.517,0,0,1,.149.382.517.517,0,0,1-.149.382.517.517,0,0,1-.382.149Zm13.813,4.25a.517.517,0,0,1,.382.149.517.517,0,0,1,.149.382.517.517,0,0,1-.149.382.517.517,0,0,1-.382.149H.531a.517.517,0,0,1-.382-.149A.517.517,0,0,1,0-6.375a.517.517,0,0,1,.149-.382.517.517,0,0,1,.382-.149Zm0,5.313a.517.517,0,0,1,.382.149.517.517,0,0,1,.149.382.517.517,0,0,1-.149.382.517.517,0,0,1-.382.149H.531A.517.517,0,0,1,.149-.681.517.517,0,0,1,0-1.062a.517.517,0,0,1,.149-.382.517.517,0,0,1,.382-.149Z" transform="translate(0 12.219)" fill="#fff"/>
</svg>
