<svg xmlns="http://www.w3.org/2000/svg" width="12.99" height="12.26" viewBox="0 0 12.99 12.26">
  <path id="Path_1181" data-name="Path 1181" d="M5.031-6.672a1.38,1.38,0,0,1,1.148.52,1.421,1.421,0,0,1,.287,1.189,1.35,1.35,0,0,1-.779,1,2.6,2.6,0,0,1,.082.684A3.555,3.555,0,0,1,4.088-.342,6.786,6.786,0,0,1,0,.875,7.334,7.334,0,0,1-2.885.314a5.271,5.271,0,0,1-2.092-1.5,3.24,3.24,0,0,1-.766-2.092,2.488,2.488,0,0,1,.082-.656,1.414,1.414,0,0,1-.807-1.012A1.437,1.437,0,0,1-6.18-6.139a1.366,1.366,0,0,1,1.148-.533,1.419,1.419,0,0,1,1.039.438A6.773,6.773,0,0,1-.273-7.41l.848-3.773a.223.223,0,0,1,.3-.191l2.652.6a1.037,1.037,0,0,1,.957-.6,1.058,1.058,0,0,1,.779.314,1.042,1.042,0,0,1,.314.766,1.042,1.042,0,0,1-.314.766,1.058,1.058,0,0,1-.779.314,1.026,1.026,0,0,1-.752-.314,1.026,1.026,0,0,1-.314-.752l-2.406-.547L.246-7.41A6.951,6.951,0,0,1,3.992-6.262,1.468,1.468,0,0,1,5.031-6.672ZM-3.473-3.8a1,1,0,0,0,.328.752,1.072,1.072,0,0,0,.766.314,1.131,1.131,0,0,0,.424-.082.911.911,0,0,0,.342-.232,1.216,1.216,0,0,0,.219-.342,1.03,1.03,0,0,0,.082-.41,1.058,1.058,0,0,0-.314-.779,1.026,1.026,0,0,0-.752-.314,1.028,1.028,0,0,0-.547.15,1.178,1.178,0,0,0-.4.4A1.028,1.028,0,0,0-3.473-3.8ZM2.406-1.258q.191-.164,0-.355a.239.239,0,0,0-.383,0,2.849,2.849,0,0,1-2.037.574,2.849,2.849,0,0,1-2.037-.574q-.164-.191-.355,0t0,.355A3.208,3.208,0,0,0-.014-.492,3.308,3.308,0,0,0,2.406-1.258ZM2.379-2.734a1.107,1.107,0,0,0,.547-.137,1.064,1.064,0,0,0,.4-.383,1.028,1.028,0,0,0,.15-.547,1.036,1.036,0,0,0-.328-.779,1.072,1.072,0,0,0-.766-.314,1,1,0,0,0-.752.328,1.072,1.072,0,0,0-.314.766,1.026,1.026,0,0,0,.314.752A1.026,1.026,0,0,0,2.379-2.734Z" transform="translate(6.495 11.385)" fill="#ddd"/>
</svg>
