<svg xmlns="http://www.w3.org/2000/svg" width="12.188" height="12.188" viewBox="0 0 12.188 12.188">
  <path id="Path_1196" data-name="Path 1196" d="M11.07-3.986a.574.574,0,0,1,.47-.051.634.634,0,0,1,.368.292.567.567,0,0,1,.051.47A5.572,5.572,0,0,1,9.9-.33,5.533,5.533,0,0,1,6.5.813,5.481,5.481,0,0,1,3.694.051,5.737,5.737,0,0,1,1.625-1.98V.609a.588.588,0,0,1-.178.432.588.588,0,0,1-.432.178.588.588,0,0,1-.432-.178A.588.588,0,0,1,.406.609V-3.453a.588.588,0,0,1,.178-.432.588.588,0,0,1,.432-.178H5.078a.588.588,0,0,1,.432.178.588.588,0,0,1,.178.432.588.588,0,0,1-.178.432.588.588,0,0,1-.432.178H2.539A4.33,4.33,0,0,0,4.164-1.066,4.353,4.353,0,0,0,6.5-.406a4.369,4.369,0,0,0,2.679-.9,4.311,4.311,0,0,0,1.612-2.323A.649.649,0,0,1,11.07-3.986Zm.482-6.8a.588.588,0,0,1,.432-.178.588.588,0,0,1,.432.178.588.588,0,0,1,.178.432V-6.3a.588.588,0,0,1-.178.432.588.588,0,0,1-.432.178H7.922a.588.588,0,0,1-.432-.178A.588.588,0,0,1,7.313-6.3a.588.588,0,0,1,.178-.432.588.588,0,0,1,.432-.178h2.564a4.509,4.509,0,0,0-1.65-1.777A4.353,4.353,0,0,0,6.5-9.344a4.369,4.369,0,0,0-2.679.9A4.311,4.311,0,0,0,2.209-6.119a.635.635,0,0,1-.292.355.542.542,0,0,1-.457.051A.634.634,0,0,1,1.092-6a.567.567,0,0,1-.051-.47A5.572,5.572,0,0,1,3.1-9.42a5.533,5.533,0,0,1,3.4-1.143A5.481,5.481,0,0,1,9.306-9.8,5.737,5.737,0,0,1,11.375-7.77v-2.59A.588.588,0,0,1,11.553-10.791Z" transform="translate(-0.406 10.969)" fill="#fff"/>
</svg>
