<svg xmlns="http://www.w3.org/2000/svg" width="13" height="13" viewBox="0 0 13 13">
  <path id="Path_1197" data-name="Path 1197" d="M12.822.584A.588.588,0,0,1,13,1.016a.588.588,0,0,1-.178.432.613.613,0,0,1-.863,0l-3.4-3.4A5.147,5.147,0,0,1,5.281-.812,5.087,5.087,0,0,1,1.549-2.361,5.087,5.087,0,0,1,0-6.094,5.087,5.087,0,0,1,1.549-9.826a5.087,5.087,0,0,1,3.732-1.549A5.087,5.087,0,0,1,9.014-9.826a5.087,5.087,0,0,1,1.549,3.732A5.147,5.147,0,0,1,9.42-2.818ZM2.412-8.963A3.912,3.912,0,0,0,1.219-6.094,3.912,3.912,0,0,0,2.412-3.225,3.912,3.912,0,0,0,5.281-2.031,3.912,3.912,0,0,0,8.15-3.225,3.912,3.912,0,0,0,9.344-6.094,3.912,3.912,0,0,0,8.15-8.963a3.912,3.912,0,0,0-2.869-1.193A3.912,3.912,0,0,0,2.412-8.963Z" transform="translate(0 11.375)" fill="#fff"/>
</svg>
