<svg xmlns="http://www.w3.org/2000/svg" width="18" height="18" viewBox="0 0 18 18">
  <path id="Path_1185" data-name="Path 1185" d="M17.506-7.807l-7.449-7.449a1.938,1.938,0,0,0-1.193-.494H1.687A1.687,1.687,0,0,0,0-14.062v7.176A1.938,1.938,0,0,0,.494-5.693L7.943,1.756a1.688,1.688,0,0,0,2.386,0L17.506-5.42A1.688,1.688,0,0,0,17.506-7.807ZM9.137.562,1.687-6.886v-7.176H8.864l7.449,7.449ZM6.75-10.687a1.687,1.687,0,0,0-1.687-1.687,1.687,1.687,0,0,0-1.687,1.687A1.687,1.687,0,0,0,5.062-9,1.687,1.687,0,0,0,6.75-10.687Z" transform="translate(0 15.75)" fill="#707579"/>
</svg>
