<svg xmlns="http://www.w3.org/2000/svg" width="13.125" height="13.125" viewBox="0 0 13.125 13.125">
  <path id="Path_66" data-name="Path 66" d="M2.757-5.944a.352.352,0,0,0,0,.5l.574.574a.351.351,0,0,0,.5-.006L5.8-6.937v4.711a.353.353,0,0,0,.352.352h.82a.353.353,0,0,0,.352-.352V-6.937L9.29-4.878a.351.351,0,0,0,.5.006l.574-.574a.352.352,0,0,0,0-.5L6.812-9.5a.352.352,0,0,0-.5,0Zm10.368-4.837a1.407,1.407,0,0,0-1.406-1.406H1.406A1.407,1.407,0,0,0,0-10.781V-.469A1.407,1.407,0,0,0,1.406.937H11.719A1.407,1.407,0,0,0,13.125-.469ZM11.719-.645a.176.176,0,0,1-.176.176H1.582a.176.176,0,0,1-.176-.176v-9.961a.176.176,0,0,1,.176-.176h9.961a.176.176,0,0,1,.176.176Z" transform="translate(0 12.188)" fill="#2081e2"/>
</svg>
