<svg xmlns="http://www.w3.org/2000/svg" width="14" height="11.371" viewBox="0 0 14 11.371">
  <path id="Path_70" data-name="Path 70" d="M5.561-8.1A6.168,6.168,0,0,0,7-9.585a5.752,5.752,0,0,1-1.652.444,2.862,2.862,0,0,0,1.261-1.581,5.649,5.649,0,0,1-1.821.693,2.862,2.862,0,0,0-2.1-.906A2.868,2.868,0,0,0-.178-8.066a3.239,3.239,0,0,0,.071.657,8.156,8.156,0,0,1-5.916-3,2.848,2.848,0,0,0-.391,1.448,2.867,2.867,0,0,0,1.279,2.39,2.889,2.889,0,0,1-1.3-.364V-6.9a2.87,2.87,0,0,0,2.3,2.816,3.034,3.034,0,0,1-.755.1,3.616,3.616,0,0,1-.542-.044,2.874,2.874,0,0,0,2.683,1.99A5.746,5.746,0,0,1-6.307-.817,5.938,5.938,0,0,1-7-.853,8.108,8.108,0,0,0-2.594.435,8.108,8.108,0,0,0,5.57-7.728C5.57-7.853,5.57-7.977,5.561-8.1Z" transform="translate(7 10.935)" fill="#5f6367"/>
</svg>
