<svg xmlns="http://www.w3.org/2000/svg" width="20.25" height="17.999" viewBox="0 0 20.25 17.999">
  <path id="Path_1192" data-name="Path 1192" d="M18.562-5.625H13.5V-6.75h2.25a1.687,1.687,0,0,0,1.192-2.879l-5.625-5.625a1.688,1.688,0,0,0-2.387,0L3.3-9.629A1.689,1.689,0,0,0,4.5-6.75H6.75v1.125H1.687A1.688,1.688,0,0,0,0-3.937v4.5A1.688,1.688,0,0,0,1.687,2.25H18.562A1.688,1.688,0,0,0,20.25.562v-4.5A1.688,1.688,0,0,0,18.562-5.625ZM4.5-8.437l5.625-5.625L15.75-8.437H11.812v5.625H8.437V-8.437Zm14.062,9H1.687v-4.5H6.75v1.125A1.688,1.688,0,0,0,8.437-1.125h3.375A1.688,1.688,0,0,0,13.5-2.812V-3.937h5.062Zm-1.406-2.25a.842.842,0,0,0-.844-.844.842.842,0,0,0-.844.844.842.842,0,0,0,.844.844A.842.842,0,0,0,17.156-1.687Z" transform="translate(0 15.749)" fill="#fff"/>
</svg>
