<svg xmlns="http://www.w3.org/2000/svg" xmlns:xlink="http://www.w3.org/1999/xlink" width="103.782" height="23.191" viewBox="0 0 103.782 23.191">
  <defs>
    <clipPath id="clip-path">
      <rect id="Rectangle_20359" data-name="Rectangle 20359" width="103.782" height="23.191" fill="none"/>
    </clipPath>
  </defs>
  <g id="Group_48" data-name="Group 48" transform="translate(0 0)">
    <g id="Group_47" data-name="Group 47" transform="translate(0 0)" clip-path="url(#clip-path)">
      <path id="Path_51" data-name="Path 51" d="M40.332,10.486q0-1.164-.8-1.164a1.29,1.29,0,0,0-.33.031,2.378,2.378,0,0,1-.425.048.461.461,0,0,1-.347-.149.517.517,0,0,1-.141-.37q0-.551.659-.551l.235.016q2.353.157,2.2.157h.156l3.779-.11q.11,0,.816-.047c.167-.011.318-.016.455-.016q.816,0,.815.724,0,.126-.045.8-.033.5-.033.929a7.342,7.342,0,0,0,.026.771,6.521,6.521,0,0,1,.052.677q0,.6-.566.6t-.567-.838v-.822q0-1.327-.549-1.565a7.275,7.275,0,0,0-2.1-.174A9.515,9.515,0,0,0,42.3,9.48a.875.875,0,0,0-.675.959v1.574q0,.629.279.724a1.533,1.533,0,0,0,.373.031h.636q.979,0,.978-.677a3.973,3.973,0,0,0-.039-.488,4.074,4.074,0,0,1-.039-.536q0-.63.558-.63t.559.677q0,.126-.1.976a10.753,10.753,0,0,0-.086,1.274q0,.314.063,1.117.016.126.078.551a4.306,4.306,0,0,1,.048.551.5.5,0,0,1-.425.567.541.541,0,0,1-.142,0q-.551,0-.551-.661a4.372,4.372,0,0,1,.039-.5,4.733,4.733,0,0,0,.039-.5q0-.677-.9-.677h-.708q-.457,0-.558.158a1.43,1.43,0,0,0-.1.676v.976c0,.168,0,.394.016.677q.016.519.015.693.016.629.252.787a1.853,1.853,0,0,0,.818.11h2.141a2.136,2.136,0,0,0,1.275-.275,1.262,1.262,0,0,0,.346-1.03c0-.158-.008-.391-.024-.7s-.024-.542-.024-.7q0-.708.558-.708.591,0,.59.724,0,.283-.024.866t-.024.865c0,.147.008.365.024.653s.024.506.024.653a.647.647,0,0,1-.724.74c-.115,0-.3-.012-.551-.036q-.189-.019-.693-.019.11,0-1.227-.036t-2.313-.036q-1.48,0-2.9.11a.755.755,0,0,0-.142.016h-.093q-.661,0-.661-.567a.438.438,0,0,1,.488-.5q.079,0,.426.031a1.239,1.239,0,0,0,.33.047q.8,0,.8-1.18Zm13.218,6.23V15.709c.011-.43.2-.645.567-.645s.551.241.55.723a4.7,4.7,0,0,1-.437,2.393,2.155,2.155,0,0,1-1.954.913,1.975,1.975,0,0,1-1.782-.8,3.723,3.723,0,0,1-.39-1.982V12.531q0-.33-.306-.33h-.515a.585.585,0,0,1-.426-.165.54.54,0,0,1-.17-.4.555.555,0,0,1,.165-.393.5.5,0,0,1,.369-.172h.614q.268,0,.268-.3V9.148a.536.536,0,0,1,.614-.6q.567,0,.567.6v1.684q0,.236.283.236h1.715q.6,0,.6.551,0,.582-.645.583H51.5c-.147,0-.221.11-.221.33V16.4q0,1.652,1.1,1.652,1.117,0,1.165-1.338m4.375-7.975-.064,3.066a4.223,4.223,0,0,1,1.152-.826,3.452,3.452,0,0,1,3.409.542,2.655,2.655,0,0,1,.821,2.03v2.628q0,.928.016,1.023c.042.524.179.787.409.787a1.165,1.165,0,0,0,.362-.088,1.141,1.141,0,0,1,.252-.022q.582,0,.583.536t-.756.536a5.409,5.409,0,0,1-.6-.048,9.379,9.379,0,0,0-1.07-.078,4.784,4.784,0,0,0-.63.031q-.661.094-.818.094a.688.688,0,0,1-.472-.165.53.53,0,0,1-.189-.417.443.443,0,0,1,.165-.347.577.577,0,0,1,.386-.141,1.33,1.33,0,0,1,.409.078.843.843,0,0,0,.268.048q.472,0,.488-1.023c0-.126.01-.373.032-.74V14.72a4.89,4.89,0,0,0-.316-2.156,1.688,1.688,0,0,0-1.611-.818,2.027,2.027,0,0,0-1.816.85,3.5,3.5,0,0,0-.41,1.872V15.6a1.353,1.353,0,0,1-.063.314v.3q0,.9.016,1.039.081.771.469.771a1.363,1.363,0,0,0,.364-.071,1.353,1.353,0,0,1,.348-.071.451.451,0,0,1,.518.5q0,.568-.7.568-.222,0-.666-.048a10.253,10.253,0,0,0-1.03-.063q-.269,0-.744.048-.634.062-.808.063-.65,0-.65-.584,0-.487.609-.486a.772.772,0,0,1,.3.044,1.913,1.913,0,0,0,.385.066q.256,0,.345-.479a14.4,14.4,0,0,0,.1-1.961V12.736a27.327,27.327,0,0,0-.094-2.982q-.094-.621-.44-.621a1.724,1.724,0,0,0-.331.047,1.826,1.826,0,0,1-.346.048q-.537,0-.536-.5a.476.476,0,0,1,.189-.378.684.684,0,0,1,.456-.157c.053,0,.231.015.536.047a6.276,6.276,0,0,0,.645.031,2.682,2.682,0,0,0,.394-.039,2.655,2.655,0,0,1,.362-.039q.362,0,.362.522ZM72.638,14.25a1.922,1.922,0,0,1-.079.729c-.053.09-.205.134-.458.134H67.084a.441.441,0,0,0-.268.055.23.23,0,0,0-.064.182,2.849,2.849,0,0,0,.711,1.977,2.351,2.351,0,0,0,3.037.413,1.725,1.725,0,0,0,.749-.96l.143-.456a.49.49,0,0,1,.52-.378.522.522,0,0,1,.584.6,2.275,2.275,0,0,1-1.039,1.818,3.783,3.783,0,0,1-2.361.794,3.322,3.322,0,0,1-2.627-1.11,4.355,4.355,0,0,1-.976-2.981,4.583,4.583,0,0,1,1.039-3.116,3.415,3.415,0,0,1,2.707-1.2,3.254,3.254,0,0,1,2.439.988,3.451,3.451,0,0,1,.96,2.509Zm-5.713-.4q0,.22.347.22h3.774c.221,0,.331-.073.331-.22a1.952,1.952,0,0,0-.632-1.448,2.063,2.063,0,0,0-1.484-.614,2.386,2.386,0,0,0-1.611.637,1.871,1.871,0,0,0-.726,1.425m9.253-2.384V11.9a2.746,2.746,0,0,1,3.973-.527,2.06,2.06,0,0,1,.684,1.6A1.744,1.744,0,0,1,80.49,14.1a1.111,1.111,0,0,1-.913.432.9.9,0,0,1-.614-.22.685.685,0,0,1-.251-.536.627.627,0,0,1,.189-.448.592.592,0,0,1,.44-.2.988.988,0,0,1,.2.047.786.786,0,0,0,.094-.346.948.948,0,0,0-.4-.771,1.568,1.568,0,0,0-1-.314,1.591,1.591,0,0,0-1.637,1.1,6.242,6.242,0,0,0-.251,2.045v1.039q0,1.054.016,1.18.079.9.492.9a1.82,1.82,0,0,0,.428-.054,1.353,1.353,0,0,1,.3-.04.444.444,0,0,1,.508.5q0,.543-.646.543h-.063a7.066,7.066,0,0,1-.715-.055,6.9,6.9,0,0,0-.716-.055q-.63,0-.991.032l-.881.078q-.644,0-.645-.551,0-.488.6-.488a1.314,1.314,0,0,1,.239.016l.238.047a1.341,1.341,0,0,0,.222.031q.4,0,.429-.724v-.8l-.048-3.572q-.047-.929-.472-.929a2.078,2.078,0,0,0-.346.039,2.086,2.086,0,0,1-.347.039q-.519,0-.519-.5,0-.543.677-.542a4.145,4.145,0,0,1,.472.039,4.147,4.147,0,0,0,.472.039,3.378,3.378,0,0,0,.41-.039.992.992,0,0,1,.3-.039q.409,0,.409.449m8.66-.716a2.769,2.769,0,0,1,1.757.551v-.063q0-.582.5-.582a.452.452,0,0,1,.519.5c0,.063-.008.22-.026.472a3.84,3.84,0,0,0-.052.63,5.515,5.515,0,0,0,.039.551,5.514,5.514,0,0,1,.039.551q0,.6-.512.6a.457.457,0,0,1-.511-.4.5.5,0,0,1,0-.107v-.519a1.008,1.008,0,0,0-.545-.81,2.249,2.249,0,0,0-1.241-.338,1.963,1.963,0,0,0-1.217.369,1.116,1.116,0,0,0-.491.921q0,1.007,1.389,1.2l.916.126q2.683.362,2.683,2.219a2.252,2.252,0,0,1-.863,1.833,3.479,3.479,0,0,1-2.26.7,3.586,3.586,0,0,1-2.258-.74v.3q0,.567-.536.567-.582,0-.582-.645a8.142,8.142,0,0,0,.094-.818,3.114,3.114,0,0,0,.031-.44,3.736,3.736,0,0,0-.063-.708,2.985,2.985,0,0,1-.063-.52q0-.551.5-.551c.221,0,.359.053.417.157a2.429,2.429,0,0,1,.1.834,1.3,1.3,0,0,0,.708,1.1,3.325,3.325,0,0,0,1.762.425,2.013,2.013,0,0,0,1.275-.393,1.208,1.208,0,0,0,.5-.991q0-1.07-1.7-1.244a6.773,6.773,0,0,1-2.47-.637,1.7,1.7,0,0,1-.85-1.629,2.2,2.2,0,0,1,.832-1.786A3.3,3.3,0,0,1,84.838,10.753Zm9.01,2.943q0-.629.787-.724a1.229,1.229,0,0,0-.529-.866,1.991,1.991,0,0,0-1.161-.315,2.1,2.1,0,0,0-1.754.866,3.68,3.68,0,0,0-.664,2.3,3.829,3.829,0,0,0,.623,2.321,2.028,2.028,0,0,0,1.728.842,1.922,1.922,0,0,0,1.207-.393,1.978,1.978,0,0,0,.7-1.086c.105-.367.168-.577.189-.63a.548.548,0,0,1,.506-.314.592.592,0,0,1,.616.612,2.346,2.346,0,0,1-.252.945,3.294,3.294,0,0,1-.6.913,3.149,3.149,0,0,1-2.407.992,3.262,3.262,0,0,1-2.588-1.133,4.373,4.373,0,0,1-.984-2.974,4.607,4.607,0,0,1,1.014-3.124,3.4,3.4,0,0,1,2.7-1.172,3.186,3.186,0,0,1,2.092.685,2.151,2.151,0,0,1,.834,1.739,1.428,1.428,0,0,1-.322.96,1.038,1.038,0,0,1-.826.378.939.939,0,0,1-.653-.236.758.758,0,0,1-.26-.583m10.213,5.4a1.453,1.453,0,0,1-1.589-1.117,2.831,2.831,0,0,1-2.518,1.181,3.1,3.1,0,0,1-2.038-.63,2.071,2.071,0,0,1-.764-1.684,2.042,2.042,0,0,1,1.117-1.92A2.931,2.931,0,0,1,99,14.616q.306-.071,1.235-.181a4.735,4.735,0,0,0,1.723-.394,1.013,1.013,0,0,0,.4-.929,1.246,1.246,0,0,0-.449-1.014,1.914,1.914,0,0,0-1.25-.369,2.406,2.406,0,0,0-1.322.393q-.236.158-.236.331c0,.042.047.094.142.157a.613.613,0,0,1,.22.536.664.664,0,0,1-.228.519.824.824,0,0,1-.574.2.919.919,0,0,1-.685-.283.958.958,0,0,1-.275-.693,1.832,1.832,0,0,1,.873-1.51,3.516,3.516,0,0,1,2.116-.63q2.864,0,2.864,2.747v3.172a6.778,6.778,0,0,0,.032.895q.094.549.536.549.551,0,.551-1v-.766q0-.5.48-.5.512,0,.511.756v.976A1.4,1.4,0,0,1,104.061,19.093ZM102.3,15.961V14.845a2.024,2.024,0,0,1-.729.44,7.292,7.292,0,0,1-1.371.22q-1.786.172-1.786,1.321a1.144,1.144,0,0,0,.432.944,1.823,1.823,0,0,0,1.172.346,2.317,2.317,0,0,0,1.661-.574,2.128,2.128,0,0,0,.622-1.582m6.278-4.461v.448a3.047,3.047,0,0,1,2.518-1.2,3.176,3.176,0,0,1,1.605.433,2.261,2.261,0,0,1,1.023,1.078,3.74,3.74,0,0,1,.22,1.4v2.99c0,.451.006.718.016.8q.079.536.425.536a2.21,2.21,0,0,0,.369-.039,2.3,2.3,0,0,1,.323-.039.5.5,0,0,1,.354.142.457.457,0,0,1,.149.346.491.491,0,0,1-.189.394.688.688,0,0,1-.456.157,6.508,6.508,0,0,1-.724-.064,7.834,7.834,0,0,0-.944-.063,5.958,5.958,0,0,0-.676.032c-.525.063-.8.094-.834.094q-.629,0-.63-.551,0-.488.546-.488a1.554,1.554,0,0,1,.289.031,2.586,2.586,0,0,0,.384.064q.385,0,.417-.866V14.183a5.546,5.546,0,0,0-.078-1.148,1.516,1.516,0,0,0-.612-.929,1.993,1.993,0,0,0-1.176-.362,1.948,1.948,0,0,0-1.8.9,4.238,4.238,0,0,0-.376,2.093v2.093a3.142,3.142,0,0,0,.094.944.347.347,0,0,0,.347.252,1.5,1.5,0,0,0,.346-.055,1.527,1.527,0,0,1,.362-.055q.488,0,.488.527t-.629.511q-.127,0-.818-.094a5.63,5.63,0,0,0-.771-.047,7.971,7.971,0,0,0-.881.063q-.692.079-.787.078-.661,0-.661-.536a.45.45,0,0,1,.385-.505.462.462,0,0,1,.127,0,1.721,1.721,0,0,1,.3.047,1.988,1.988,0,0,0,.424.048q.482,0,.5-.913v-4.2a2.005,2.005,0,0,0-.136-.731.374.374,0,0,0-.361-.2,1.689,1.689,0,0,0-.328.047,1.7,1.7,0,0,1-.329.047q-.577,0-.577-.511,0-.527.708-.527a.671.671,0,0,1,.158.016l.582.063a2.179,2.179,0,0,0,.44-.039c.273-.026.414-.039.425-.039q.456,0,.456.48" transform="translate(-11.797 -2.523)" fill="#21325b"/>
      <path id="Path_52" data-name="Path 52" d="M4.831,11.024a.984.984,0,0,1,.985-.985h0l1.64.006a.985.985,0,0,1,.985.986v6.2c.185-.055.421-.113.682-.174a.821.821,0,0,0,.633-.8V8.567a.987.987,0,0,1,.986-.987H12.39a.987.987,0,0,1,.986.987v7.138s.412-.166.812-.336a.822.822,0,0,0,.5-.757V6.1a.986.986,0,0,1,.986-.986h1.643A.986.986,0,0,1,18.3,6.1V13.11a19.268,19.268,0,0,0,4.014-3.767A1.653,1.653,0,0,0,22.57,7.8,11.6,11.6,0,1,0,1.545,17.388a1.469,1.469,0,0,0,1.4.726c.311-.028.7-.066,1.158-.12a.821.821,0,0,0,.728-.815V11.024" transform="translate(0 0)" fill="#21325b"/>
      <path id="Path_53" data-name="Path 53" d="M6.931,25.771a11.608,11.608,0,0,0,18.438-9.39c0-.268-.012-.532-.03-.795C21.1,21.913,13.265,24.87,6.931,25.771" transform="translate(-2.136 -4.802)" fill="#979695"/>
    </g>
  </g>
</svg>
