<svg xmlns="http://www.w3.org/2000/svg" width="22.5" height="17.5" viewBox="0 0 22.5 17.5">
  <path id="Path_1175" data-name="Path 1175" d="M7.7-11.016A4.85,4.85,0,0,1,11.25-12.5a4.817,4.817,0,0,1,3.535,1.465A4.817,4.817,0,0,1,16.25-7.5a4.958,4.958,0,0,1-.664,2.52A4.864,4.864,0,0,1,13.77-3.164a4.958,4.958,0,0,1-2.52.664A4.817,4.817,0,0,1,7.715-3.965,4.817,4.817,0,0,1,6.25-7.5,4.785,4.785,0,0,1,7.7-11.016ZM11.25-3.75a3.62,3.62,0,0,0,1.875-.508,3.822,3.822,0,0,0,1.367-1.367A3.619,3.619,0,0,0,15-7.5a3.616,3.616,0,0,0-1.094-2.656A3.616,3.616,0,0,0,11.25-11.25a3.616,3.616,0,0,0-2.656,1.094A3.616,3.616,0,0,0,7.5-7.5,3.616,3.616,0,0,0,8.594-4.844,3.616,3.616,0,0,0,11.25-3.75ZM22.383-8.164A1.876,1.876,0,0,1,22.5-7.5a1.876,1.876,0,0,1-.117.664A14.554,14.554,0,0,1,17.773-.957,10.691,10.691,0,0,1,11.25,1.25,10.691,10.691,0,0,1,4.727-.957,14.554,14.554,0,0,1,.117-6.836,1.876,1.876,0,0,1,0-7.5a1.876,1.876,0,0,1,.117-.664,14.554,14.554,0,0,1,4.609-5.879A10.691,10.691,0,0,1,11.25-16.25a10.691,10.691,0,0,1,6.523,2.207A14.554,14.554,0,0,1,22.383-8.164Zm-1.172.82A.347.347,0,0,0,21.25-7.5a.643.643,0,0,0-.039-.2,12.974,12.974,0,0,0-4.16-5.332A9.577,9.577,0,0,0,11.25-15a9.577,9.577,0,0,0-5.8,1.973,12.931,12.931,0,0,0-4.16,5.371A.347.347,0,0,0,1.25-7.5a.643.643,0,0,0,.039.2,12.974,12.974,0,0,0,4.16,5.332A9.577,9.577,0,0,0,11.25,0a9.577,9.577,0,0,0,5.8-1.973A12.932,12.932,0,0,0,21.211-7.344Z" transform="translate(0 16.25)" fill="#707579"/>
</svg>
