<svg xmlns="http://www.w3.org/2000/svg" width="98.449" height="23.19" viewBox="0 0 98.449 23.19">
  <g id="Group_51" data-name="Group 51" transform="translate(0 0)">
    <path id="Path_41" data-name="Path 41" d="M23.191,11.6A11.6,11.6,0,1,1,11.6,0a11.6,11.6,0,0,1,11.6,11.6" transform="translate(0 0)" fill="#2081e2"/>
    <g id="Group_50" data-name="Group 50" transform="translate(4.87 4.639)">
      <path id="Path_42" data-name="Path 42" d="M8.459,15.413l.05-.078,3.017-4.719a.1.1,0,0,1,.181.014,6.427,6.427,0,0,1,.735,3.408,5.356,5.356,0,0,1-.593,1.3c-.035.066-.073.13-.114.192a.1.1,0,0,1-.086.045h-3.1a.1.1,0,0,1-.088-.159" transform="translate(-7.609 -8.066)" fill="#fff"/>
      <path id="Path_43" data-name="Path 43" d="M21.5,15.089v.747a.108.108,0,0,1-.064.1,3.707,3.707,0,0,0-1.365.93c-.848,1.18-1.5,2.869-2.945,2.869H11.086a3.884,3.884,0,0,1-3.877-3.891v-.07a.1.1,0,0,1,.1-.1h3.369a.115.115,0,0,1,.109.128,1.147,1.147,0,0,0,.12.647,1.186,1.186,0,0,0,1.063.66h1.667V15.8H11.993a.106.106,0,0,1-.086-.167c.018-.028.038-.056.059-.089.156-.222.379-.566.6-.957a7.5,7.5,0,0,0,.416-.83c.024-.051.043-.1.062-.155.032-.091.066-.175.089-.259s.043-.147.062-.217a3.349,3.349,0,0,0,.08-.76c0-.1,0-.212-.014-.316s-.019-.226-.034-.34-.027-.2-.046-.3c-.024-.151-.057-.3-.1-.453l-.014-.057c-.028-.1-.052-.2-.086-.306-.094-.326-.2-.643-.317-.939-.041-.118-.089-.231-.137-.344-.07-.171-.141-.326-.207-.472-.034-.066-.062-.127-.091-.189s-.066-.141-.1-.207c-.024-.051-.051-.1-.07-.147l-.2-.376a.066.066,0,0,1,.075-.1l1.275.346h.008l.168.047.185.053.068.019V7.527a.659.659,0,0,1,.655-.662.648.648,0,0,1,.463.194.667.667,0,0,1,.192.468V8.652l.136.038a.134.134,0,0,1,.031.016l.142.107c.047.038.1.084.161.132.122.1.269.226.43.373.043.036.084.075.123.113.207.193.439.42.661.67.062.07.123.142.185.217s.127.151.184.226c.075.1.156.2.226.312.033.051.072.1.1.155.091.137.17.279.247.421.032.066.065.136.094.207a3.017,3.017,0,0,1,.194.575.687.687,0,0,1,.028.128v.009a1.106,1.106,0,0,1,.024.18,1.938,1.938,0,0,1-.033.595,2.337,2.337,0,0,1-.07.249c-.029.081-.057.166-.095.245a3.275,3.275,0,0,1-.256.486c-.032.057-.07.118-.108.176s-.084.118-.123.174c-.052.072-.108.147-.166.213a2.175,2.175,0,0,1-.161.2c-.08.095-.156.184-.236.27-.048.056-.1.113-.151.164s-.1.109-.151.156c-.08.08-.147.142-.2.193l-.131.12a.105.105,0,0,1-.07.026H14.952v1.3h1.277a1.2,1.2,0,0,0,.777-.287,9.347,9.347,0,0,0,.79-.777.1.1,0,0,1,.049-.03l3.527-1.02a.1.1,0,0,1,.132.1" transform="translate(-7.209 -6.865)" fill="#fff"/>
    </g>
    <g id="Group_49" data-name="Group 49" transform="translate(28.757 6.146)">
      <path id="Path_44" data-name="Path 44" d="M48.068,19.671a5.787,5.787,0,0,1-2.775-.677,5.1,5.1,0,0,1-2.73-4.619,5.139,5.139,0,0,1,.732-2.721,5.248,5.248,0,0,1,2-1.883A5.8,5.8,0,0,1,48.068,9.1a5.709,5.709,0,0,1,2.76.677,5,5,0,0,1,1.982,1.883,5.139,5.139,0,0,1,.732,2.721,5.22,5.22,0,0,1-.732,2.736,5.136,5.136,0,0,1-1.982,1.882,5.7,5.7,0,0,1-2.76.677m0-2.294a2.65,2.65,0,0,0,2.043-.824,3.041,3.041,0,0,0,.778-2.177,3.012,3.012,0,0,0-.778-2.177,2.652,2.652,0,0,0-2.043-.823,2.742,2.742,0,0,0-2.074.809,3.063,3.063,0,0,0-.762,2.191,3.1,3.1,0,0,0,.762,2.192,2.744,2.744,0,0,0,2.074.809" transform="translate(-42.563 -9.096)" fill="#05111d"/>
      <path id="Path_45" data-name="Path 45" d="M64.332,13.687a2.8,2.8,0,0,1,1.052-.927,3.326,3.326,0,0,1,1.57-.353,3.622,3.622,0,0,1,1.906.515A3.561,3.561,0,0,1,70.2,14.393a4.7,4.7,0,0,1,.5,2.221,4.785,4.785,0,0,1-.5,2.236,3.664,3.664,0,0,1-1.341,1.485,3.621,3.621,0,0,1-1.906.514,3.386,3.386,0,0,1-1.57-.353,2.849,2.849,0,0,1-1.052-.912v3.589H61.724V12.524h2.608Zm3.721,2.927a1.948,1.948,0,0,0-.549-1.471,1.783,1.783,0,0,0-1.327-.544,1.815,1.815,0,0,0-1.327.544,2.03,2.03,0,0,0-.533,1.485,2.031,2.031,0,0,0,.533,1.485,1.89,1.89,0,0,0,2.654,0,2.05,2.05,0,0,0,.549-1.5" transform="translate(-49.295 -10.259)" fill="#05111d"/>
      <path id="Path_46" data-name="Path 46" d="M85.42,16.5a6.2,6.2,0,0,1-.045.736h-5.9a1.726,1.726,0,0,0,.5,1.177,1.642,1.642,0,0,0,1.114.4,1.376,1.376,0,0,0,1.357-.794h2.775a3.58,3.58,0,0,1-.778,1.456,3.773,3.773,0,0,1-1.388,1.015,4.622,4.622,0,0,1-1.875.368,4.7,4.7,0,0,1-2.226-.514,3.735,3.735,0,0,1-1.525-1.471,4.413,4.413,0,0,1-.549-2.236,4.513,4.513,0,0,1,.533-2.235,3.73,3.73,0,0,1,1.525-1.471,5.106,5.106,0,0,1,4.438-.014,3.612,3.612,0,0,1,1.494,1.426A4.159,4.159,0,0,1,85.42,16.5m-2.668-.662a1.273,1.273,0,0,0-.457-1.029,1.885,1.885,0,0,0-2.257-.015,1.634,1.634,0,0,0-.549,1.044Z" transform="translate(-54.62 -10.259)" fill="#05111d"/>
      <path id="Path_47" data-name="Path 47" d="M97.35,12.452a3.109,3.109,0,0,1,2.379.941,3.52,3.52,0,0,1,.9,2.56v4.8H98.036V16.291a1.765,1.765,0,0,0-.442-1.28,1.779,1.779,0,0,0-2.379,0,1.762,1.762,0,0,0-.442,1.28v4.457H92.165V12.54h2.608v1.088a2.672,2.672,0,0,1,1.068-.853,3.425,3.425,0,0,1,1.509-.324" transform="translate(-59.989 -10.275)" fill="#05111d"/>
      <path id="Path_48" data-name="Path 48" d="M111.713,19.671a5.684,5.684,0,0,1-2.1-.368,3.473,3.473,0,0,1-1.495-1.088,2.931,2.931,0,0,1-.579-1.735h2.775a1.308,1.308,0,0,0,.412.882,1.379,1.379,0,0,0,.915.295,1.5,1.5,0,0,0,.915-.25.868.868,0,0,0,.335-.721.819.819,0,0,0-.274-.632,2.034,2.034,0,0,0-.656-.412,10.275,10.275,0,0,0-1.1-.368,12.317,12.317,0,0,1-1.693-.618,3.105,3.105,0,0,1-1.128-.912,2.476,2.476,0,0,1-.473-1.574,2.649,2.649,0,0,1,1.083-2.25,4.532,4.532,0,0,1,2.821-.824,4.586,4.586,0,0,1,2.852.824,2.864,2.864,0,0,1,1.159,2.265h-2.821a1.026,1.026,0,0,0-.381-.78,1.351,1.351,0,0,0-.9-.295,1.127,1.127,0,0,0-.763.25.839.839,0,0,0-.289.691.862.862,0,0,0,.488.78,8.2,8.2,0,0,0,1.525.6,13.833,13.833,0,0,1,1.677.647,3.159,3.159,0,0,1,1.128.9,2.341,2.341,0,0,1,.473,1.515,2.861,2.861,0,0,1-.473,1.6,3.163,3.163,0,0,1-1.341,1.147,4.759,4.759,0,0,1-2.089.427" transform="translate(-65.389 -9.096)" fill="#05111d"/>
      <path id="Path_49" data-name="Path 49" d="M130.208,16.5a6.2,6.2,0,0,1-.046.736h-5.9a1.727,1.727,0,0,0,.5,1.177,1.642,1.642,0,0,0,1.114.4,1.376,1.376,0,0,0,1.357-.794h2.775a3.579,3.579,0,0,1-.778,1.456,3.773,3.773,0,0,1-1.388,1.015,4.622,4.622,0,0,1-1.875.368,4.7,4.7,0,0,1-2.226-.514,3.734,3.734,0,0,1-1.525-1.471,4.413,4.413,0,0,1-.549-2.236,4.513,4.513,0,0,1,.533-2.235,3.731,3.731,0,0,1,1.525-1.471,5.106,5.106,0,0,1,4.438-.014,3.612,3.612,0,0,1,1.494,1.426,4.16,4.16,0,0,1,.549,2.162m-2.669-.662a1.273,1.273,0,0,0-.457-1.029,1.885,1.885,0,0,0-2.257-.015,1.634,1.634,0,0,0-.549,1.044Z" transform="translate(-70.354 -10.259)" fill="#05111d"/>
      <path id="Path_50" data-name="Path 50" d="M136.154,16.613a4.827,4.827,0,0,1,.488-2.221A3.667,3.667,0,0,1,138,12.921a3.622,3.622,0,0,1,1.906-.515,3.325,3.325,0,0,1,1.57.354,2.648,2.648,0,0,1,1.052.926V12.524h2.608v8.207h-2.608V19.569a2.765,2.765,0,0,1-1.068.926,3.323,3.323,0,0,1-1.57.354A3.593,3.593,0,0,1,138,20.334a3.774,3.774,0,0,1-1.357-1.485,4.919,4.919,0,0,1-.488-2.236m6.374.015a2,2,0,0,0-.549-1.485,1.767,1.767,0,0,0-1.312-.544,1.816,1.816,0,0,0-1.327.544,1.98,1.98,0,0,0-.534,1.471,2.083,2.083,0,0,0,.534,1.5,1.816,1.816,0,0,0,1.327.544,1.767,1.767,0,0,0,1.312-.544,2,2,0,0,0,.549-1.485" transform="translate(-75.443 -10.259)" fill="#05111d"/>
    </g>
  </g>
</svg>
