<svg xmlns="http://www.w3.org/2000/svg" width="12.25" height="12.25" viewBox="0 0 12.25 12.25">
  <path id="Path_72" data-name="Path 72" d="M4.29-9.595A6.025,6.025,0,0,0,0-11.375,6.078,6.078,0,0,0-6.073-5.3,6.077,6.077,0,0,0-5.264-2.27L-6.125.875-2.907.03a6.052,6.052,0,0,0,2.9.738H0A6.129,6.129,0,0,0,6.125-5.3,6.094,6.094,0,0,0,4.29-9.595ZM0-.254a5.036,5.036,0,0,1-2.57-.7l-.183-.109-1.909.5.509-1.862-.12-.191A5.029,5.029,0,0,1-5.048-5.3,5.052,5.052,0,0,1,0-10.35,5,5,0,0,1,3.566-8.87,5.065,5.065,0,0,1,5.1-5.3,5.1,5.1,0,0,1,0-.254ZM2.764-4.033c-.15-.077-.9-.443-1.036-.492s-.241-.077-.342.077-.391.492-.481.6-.178.115-.328.038a4.129,4.129,0,0,1-2.064-1.8c-.156-.268.156-.249.446-.829a.281.281,0,0,0-.014-.265c-.038-.077-.342-.823-.468-1.127s-.249-.254-.342-.26-.189-.005-.29-.005a.562.562,0,0,0-.4.189A1.7,1.7,0,0,0-3.09-6.65a2.972,2.972,0,0,0,.618,1.57A6.778,6.778,0,0,0,.12-2.789a2.968,2.968,0,0,0,1.821.38,1.554,1.554,0,0,0,1.023-.722,1.268,1.268,0,0,0,.087-.722C3.016-3.921,2.915-3.959,2.764-4.033Z" transform="translate(6.125 11.375)" fill="#5f6367"/>
</svg>
